<svg aria-hidden="true" style="width:0;height:0;position:absolute;overflow:hidden" xmlns="http://www.w3.org/2000/svg"><defs><symbol id="arr-btn-up-icon" viewBox="0 0 32 32"><path fill="#e9c400" style="fill:var(--color1,#e9c400)" d="M7.557 16.443a1.333 1.333 0 0 1 0-1.886l7.333-7.333a1.333 1.333 0 0 1 1.886 0l7.333 7.333a1.333 1.333 0 1 1-1.886 1.886l-6.391-6.391-6.391 6.391a1.333 1.333 0 0 1-1.886 0z"/><path fill="#e9c400" style="fill:var(--color1,#e9c400)" d="M7.557 24.109a1.333 1.333 0 0 1 0-1.886l7.333-7.333a1.333 1.333 0 0 1 1.886 0l7.333 7.333a1.333 1.333 0 1 1-1.886 1.886l-6.391-6.391-6.391 6.391a1.333 1.333 0 0 1-1.886 0z"/></symbol><symbol id="icon-arrow-right-icon" viewBox="0 0 32 32"><path fill="#adc6ff" style="fill:var(--color2,#adc6ff)" d="M20.526 7.406c-.521-.541-1.365-.541-1.886 0s-.521 1.417 0 1.958l5.187 5.386H4.25a1.25 1.25 0 0 0 0 2.5h19.577l-5.187 5.386c-.521.541-.521 1.417 0 1.958s1.365.541 1.886 0l7.333-7.615a1.422 1.422 0 0 0 0-1.958l-7.333-7.615z"/></symbol><symbol id="icon-arrow-up" viewBox="0 0 32 32"><path fill="#968e98" style="fill:var(--color3,#968e98)" d="M13.013 6.457c-.751-.014-1.348.583-1.333 1.333s.634 1.37 1.385 1.385l7.476.141L6.698 23.159a1.25 1.25 0 0 0 1.768 1.768l13.843-13.843.141 7.476c.014.75.634 1.37 1.385 1.385s1.348-.583 1.333-1.333l-.199-10.57a1.424 1.424 0 0 0-1.385-1.385l-10.57-.199z"/></symbol><symbol id="icon-menu-Icon" viewBox="0 0 32 32"><path fill="#c4c7c7" style="fill:var(--color4,#c4c7c7)" d="M2.75 8c0-.69.56-1.25 1.25-1.25h24a1.25 1.25 0 0 1 0 2.5H4c-.69 0-1.25-.56-1.25-1.25zM2.75 16c0-.69.56-1.25 1.25-1.25h24a1.25 1.25 0 0 1 0 2.5H4c-.69 0-1.25-.56-1.25-1.25zM2.75 24c0-.69.56-1.25 1.25-1.25h24a1.25 1.25 0 0 1 0 2.5H4c-.69 0-1.25-.56-1.25-1.25z"/></symbol><symbol id="icon-patreon" viewBox="0 0 32 32"><path fill="#e9c400" style="fill:var(--color1,#e9c400)" d="M2.667 29.333H8V2.666H2.667v26.667zM20.015 2.667c-5.155 0-9.348 4.193-9.348 9.347 0 5.139 4.193 9.319 9.348 9.319 5.138 0 9.319-4.181 9.319-9.319 0-5.154-4.18-9.347-9.319-9.347z"/></symbol><symbol id="icon-search-Icon" viewBox="0 0 32 32"><path fill="#c4c7c7" style="fill:var(--color4,#c4c7c7)" d="m19.277 21.163 7.78 7.78a1.333 1.333 0 1 0 1.886-1.886l-7.601-7.601A9.964 9.964 0 0 0 24 12.666c0-5.523-4.477-10-10-10s-10 4.477-10 10 4.477 10 10 10a9.957 9.957 0 0 0 5.277-1.504zm2.056-8.496a7.333 7.333 0 1 1-14.666 0 7.333 7.333 0 0 1 14.666 0z"/></symbol><symbol id="icon-telegram" viewBox="0 0 32 32"><path fill="#d8e2ff" style="fill:var(--color5,#d8e2ff)" d="m13.114 19.412-.417 5.962c.613 0 .884-.267 1.226-.585l2.945-2.732 6.128 4.318c1.128.593 1.942.286 2.223-.999l4.023-18.081c.412-1.575-.629-2.289-1.708-1.822L3.913 14.161c-1.612.617-1.603 1.475-.294 1.857l6.062 1.805 14.034-8.445c.663-.383 1.271-.177.771.245l-11.371 9.788z"/></symbol><symbol id="icon-TikTok" viewBox="0 0 32 32"><path fill="#ffe16d" style="fill:var(--color6,#ffe16d)" d="M22.273 1.333h-5.261v19.981c0 2.381-2.023 4.336-4.542 4.336s-4.542-1.956-4.542-4.336c0-2.338 1.979-4.251 4.407-4.336v-5.016c-5.351.085-9.668 4.209-9.668 9.353 0 5.187 4.407 9.353 9.848 9.353s9.848-4.209 9.848-9.353V11.07a12.712 12.712 0 0 0 6.97 2.211V8.265c-3.957-.128-7.06-3.188-7.06-6.929z"/></symbol><symbol id="icon-Twitter" viewBox="0 0 32 32"><path fill="#9ff798" style="fill:var(--color7,#9ff798)" d="M23.668 4h4.089l-8.933 10.166L29.333 28h-8.229l-6.445-8.39L7.284 28H3.192l9.555-10.874L2.665 4h8.438l5.826 7.669L23.667 4zm-1.435 21.563h2.266L9.873 6.309H7.442l14.791 19.254z"/><symbol id="icon-logo-hed" viewBox="0 0 32 32"><path fill="#005ac2" style="fill:var(--color1,#005ac2)" d="M32 16c0 8.837-7.163 16-16 16S0 24.837 0 16 7.163 0 16 0s16 7.163 16 16z"/><path fill="#e9c400" style="fill:var(--color2,#e9c400)" d="m19.843 2.667.005.006-1.956 1.812 2.067-.21-.862 1.683 2.131-.898c1.464 3.91.035 8.621-2.943 9.291-.367-1.418-1.911-2.12-2.019-3.206l.051.015c.271.072.545.066.799-.004l1.408 1.279 1.157-.915c-.412.158-1.601-.078-1.862-.778a1.504 1.504 0 0 0 .428-.97l.421.896.517-.57c.427.312.699.76.643 1.181 0 0 .934-.905.934-1.643 0-.447-4.04-1.652-4.04-1.652L13.471 5.3l.958 1.746-2.7-1.104 1.968 1.746c-2.274 1.573-1.237 4.752-.101 6.666-3.22-.541-5.775-4.327-5.363-8.104l2.756-1.194-1.74-.287 1.636-1.867-1.793.645.006-.011C-.33 7.243 2.579 24.044 5.529 26.893l-.03-.215c-.836-3.143-1.141-7.02-.98-10.647.169-3.813.831-7.329 2.06-9.473l.908.519c-1.058 1.845-1.758 5.284-1.923 9-.109 2.451.006 5.03.351 7.381.343.106.843.537 1.529 1.299a5.887 5.887 0 0 1-.363-2.139c1.136 2.328 3.771 3.869 5.859 3.482 1.257-.233 2.341-.711 3.237-1.368l.409.862c-1.124.281-1.277 1.824-.825 3.08.098-1.111.636-1.665 1.217-1.805-.369.887-.263 1.711-.175 2.468.568-.679 1.202-1.33 1.323-2.199.489.41.69 1.201.067 2.183 1.474-.865 1.768-2.347.447-3.223l-1.796-1.917c.331-.31.629-.648.893-1.01l2.2.882c-.221.765.327 1.761 1.107 2.42-.451-.966-.27-1.681.143-2.073.091.972.596 1.631 1.049 2.239.153-.875.38-1.76-.012-2.57.617.087 1.187.646 1.139 1.781.804-1.415.342-2.777-1.162-2.879l-3.984-.553c.714-1.284 1.046-2.784.953-4.329.795-1.939 2.803-.66 3.053 2.747 1.536-4.49 3.757-2.158 3.294 1.37.661-1.306 1.223-1.956 1.672-2.025-.603-5.137-2.266-10.705-4.348-14.012l.886-.556c2.818 4.476 4.766 12.33 4.753 18.527 2.375-6.477-.131-19.927-8.64-21.469zm-1.65 26.65-.001.001-.001.003.002-.003zM16.692 9.188a.486.486 0 0 1 .149.018c.267.072.418.332.346.599s-.333.417-.6.346-.418-.332-.347-.599a.483.483 0 0 1 .404-.36l.048-.004zm-3.573 9.102c.665-.011 1.268.378 1.466 1.257-.001 2.005-.535 3.846-2.36 4.326-1.547.407-3.905-.637-4.711-2.999.688-1.178 2.092-1.229 3.519 1.262-.705-2.324.806-3.825 2.086-3.846z"/></symbol><symbol id="icon-arr-nav" viewBox="0 0 32 32"><path d="m16 21-6.928-7.5h13.856L16 21z"/></symbol><symbol id="youtube-white-icon" viewBox="0 0 32 32"><path d="M31.681 9.179s-.313-2.353-1.275-3.386c-1.219-1.36-2.581-1.366-3.206-1.446C22.725 4 16.006 4 16.006 4h-.012S9.275 4 4.8 4.347c-.625.08-1.987.087-3.206 1.446C.631 6.826.325 9.179.325 9.179S0 11.945 0 14.704v2.586c0 2.759.319 5.525.319 5.525s.312 2.353 1.269 3.386c1.219 1.36 2.819 1.313 3.531 1.46 2.563.26 10.881.34 10.881.34s6.725-.013 11.2-.353c.625-.08 1.988-.087 3.206-1.446.962-1.033 1.275-3.386 1.275-3.386S32 20.057 32 17.291v-2.586c0-2.759-.319-5.525-.319-5.525zm-18.987 11.25v-9.591l8.644 4.812-8.644 4.779z"/></symbol><symbol id="icon-dragon" viewBox="0 0 32 32"><path d="M24.627 1.929c.564-.327 1.108-.596 1.201-.596s.232.086.299.202a.99.99 0 0 1 .119.509.792.792 0 0 1-.173.49c-.093.106-.478.519-.856.922s-1.062 1.211-1.52 1.787-1.181 1.585-1.613 2.248c-.438.653-.843 1.297-.909 1.432l-.119.24c1.148.327 1.752.538 2.077.673s.896.404 1.261.596 1.049.634 1.527.99a17.55 17.55 0 0 1 1.507 1.249c.405.384.684.73.73.894.073.231.066.298-.053.528-.139.259-.139.259-1.128.279l-.989.029c1.235 1.825 1.785 2.7 2.018 3.123.239.423.657 1.268.936 1.874.272.605.67 1.576.876 2.162.199.586.478 1.46.611 1.95.133.48.239.99.239 1.124s-.066.327-.146.432c-.086.106-.219.192-.299.192-.086 0-.412-.25-.73-.557-.325-.307-.717-.682-.883-.817-.166-.144-.319-.259-.345-.259-.033 0 .086.336.259.749.166.404.511 1.345.757 2.085s.551 1.778.684 2.306c.126.528.166 1.432.259 1.902h-.943l-.173-1.086v-.24c-.133-.529-.491-1.691-.797-2.594s-.79-2.152-1.082-2.786a33.336 33.336 0 0 0-.836-1.729c-.166-.317-.312-.663-.312-.769s.053-.288.119-.403c.066-.115.186-.231.272-.259.099-.038.372.115.896.5.405.307.969.759 1.241.999.272.25.505.404.518.356.007-.048-.139-.49-.325-.97-.193-.49-.518-1.259-.723-1.71s-.571-1.163-.803-1.585a26.762 26.762 0 0 0-1.082-1.768 27.55 27.55 0 0 0-1.248-1.701c-.511-.625-.584-.749-.584-1.018-.007-.183.046-.394.113-.48.08-.115.325-.211.717-.279.332-.067.631-.154.664-.192.04-.038-.199-.25-.531-.471a19.615 19.615 0 0 0-1.228-.749c-.345-.183-.823-.423-1.062-.519s-.757-.288-1.161-.413a15.638 15.638 0 0 0-1.148-.307c-.265-.048-.412-.038-.412.019.007.048.325.528.71 1.057s.889 1.307 1.115 1.729c.226.423.571 1.115.763 1.537s.518 1.287.73 1.922.498 1.605.631 2.162c.133.557.332 1.528.438 2.162s.252 1.739.325 2.45c.073.711.159 2.095.199 3.075.049 1.169.041 1.744 0 2.979-.003.105-.027.982-.031 1.086h-1.193v-.127c-.001-.268-.008-.858 0-.959.072-.932.337-2.166.302-2.979-.04-.922-.133-2.267-.206-2.978s-.239-1.883-.372-2.594a34.543 34.543 0 0 0-.491-2.258 28.287 28.287 0 0 0-.571-1.825 28.293 28.293 0 0 0-.743-1.826c-.292-.634-.73-1.383-1.294-2.21l-.85-1.249c-.226.519-.411.97-.557 1.345-.206.519-.332.721-.564.913-.232.183-.392.24-.73.24-.332-.01-.504-.067-.763-.259-.179-.135-.451-.442-.604-.673a6.147 6.147 0 0 1-.385-.653 1.514 1.514 0 0 1-.106-.528c0-.183.133-.625.365-1.182.199-.48.358-.903.352-.932-.013-.019-.272-.067-.584-.106a4.785 4.785 0 0 0-1.261.058c-.385.058-.969.211-1.294.336s-.883.394-1.228.596-.929.605-1.288.894c-.365.288-.796.73-.962.97s-.358.586-.418.769c-.066.183-.192.605-.279.951-.113.423-.246.73-.418.942-.146.183-1.181.97-2.409 1.825l-2.157 1.509c-1.473.01-1.706.048-1.872.173-.119.086-.246.25-.285.355s-.066.288-.066.404c0 .125.106.692.232 1.278s.259 1.124.292 1.201c.06.125.418.048 2.741-.577 1.473-.394 2.768-.711 2.874-.701.126 0 .246.096.319.231.066.125.119.307.113.394 0 .096-.066.279-.146.413-.139.221-.358.298-2.741.922-1.42.375-2.595.701-2.602.721-.013.019.02.125.066.221.04.106.186.298.312.442.126.135.385.307.564.384.186.087.465.144.631.144s.571-.077.896-.163a5.562 5.562 0 0 1 1.394-.144c.524 0 1.288.115 2.257.317 1.228.259 1.653.317 2.655.317 1.069 0 1.288-.029 2.058-.279.624-.192 1.042-.269 1.493-.269.465.01.743.067 1.062.221.239.106.584.346.763.529.186.173.438.509.564.74s.305.673.411.99c.1.317.226.836.285 1.153.053.317.119.942.139 1.393v.096c-.006.078.011.943 0 1.057h-4.639c.073-.557.106-1.268.106-2.21-.007-.769-.033-1.585-.066-1.826-.053-.375-.08-.432-.219-.423-.093 0-.478.067-.863.135a6.518 6.518 0 0 1-1.527.067c-.458-.038-1.487-.192-2.29-.355s-1.746-.307-2.091-.317c-.358-.01-1.002.058-1.493.163-.71.154-.949.173-1.327.086a2.889 2.889 0 0 1-.889-.375 2.632 2.632 0 0 1-.763-.807c-.192-.288-.458-.807-.591-1.153s-.378-1.23-.551-1.97c-.166-.74-.325-1.585-.345-1.873-.027-.442-.007-.615.133-1.057.1-.298.279-.644.411-.797.133-.144.365-.327.524-.423.206-.115.478-.154 1.042-.144l.763.01c3.192-2.229 4.162-2.95 4.221-3.046.06-.086.159-.384.226-.644.06-.269.192-.672.285-.913s.319-.663.504-.942c.186-.288.518-.682.737-.874.219-.202.644-.548.949-.769.299-.211.763-.519 1.029-.673.259-.154.75-.384 1.075-.519s.823-.298 1.095-.365c.272-.077.916-.125 1.427-.125s1.102.048 1.314.115l.378.115c1.155-1.605 1.812-2.412 2.204-2.834a25.771 25.771 0 0 1 1.394-1.393c.378-.336 1.102-.922 1.613-1.297s1.394-.951 1.958-1.278zm-5.443 8.58c.246-.528.697-1.412 1.002-1.97s.962-1.605 1.453-2.335c.491-.73.869-1.316.83-1.316s-.352.25-.697.557c-.345.298-.989.932-1.427 1.403s-1.175 1.403-1.633 2.066c-.524.769-.982 1.537-1.241 2.095-.226.49-.411.932-.411.99s.099.231.219.394c.113.154.319.336.445.394.126.048.299.067.385.038.093-.038.232-.288.392-.701.133-.365.438-1.086.684-1.614zm-1.911 16.17c-.106-.173-.352-.423-.551-.548s-.524-.259-.723-.298a2.536 2.536 0 0 0-.597-.019c-.126.029-.239.048-.246.058s.02.231.06.49c.033.269.066 1.095.086 3.219h2.688l-.04-.355c-.02-.202-.08-.615-.133-.913-.053-.307-.153-.73-.226-.942s-.219-.528-.319-.692z"/><path d="M12.985 14.496a.57.57 0 0 0-.372.183 3.767 3.767 0 0 1-.465.394c-.166.125-.524.298-.796.404-.279.096-.538.25-.584.346s-.08.279-.08.403c0 .135.066.346.153.461.08.125.206.221.279.221s.312-.067.531-.154c.219-.077.604-.288.863-.461.252-.173.558-.432.677-.577a.892.892 0 0 0 .232-.557c.007-.192-.04-.375-.113-.48a.454.454 0 0 0-.325-.183zM24 30.667l-5.108-.029c.011-.113-.006-.979 0-1.057H24c-.008.101-.001.69 0 .959v.127zM28.224 30.667c-.325-.336-.65-.452-.743-.471-.093-.029-.232.01-.312.096a.757.757 0 0 0-.171.375h-1.804c.004-.103.028-.981.031-1.086h1.443c.034-.171.253-.393.502-.393.417 0 1.055.393 1.055.393h.883l.173 1.086h-1.055z"/><path stroke-width=".667" d="M18.892 30.638h-4.639c.073-.557.106-1.268.106-2.21-.007-.769-.033-1.585-.066-1.826-.053-.375-.08-.432-.219-.423-.093 0-.478.067-.863.135a6.518 6.518 0 0 1-1.527.067c-.458-.038-1.487-.192-2.29-.355s-1.746-.307-2.091-.317c-.358-.01-1.002.058-1.493.163-.71.154-.949.173-1.327.086a2.889 2.889 0 0 1-.889-.375 2.632 2.632 0 0 1-.763-.807c-.192-.288-.458-.807-.591-1.153s-.378-1.23-.551-1.97c-.166-.74-.325-1.585-.345-1.873-.027-.442-.007-.615.133-1.057.1-.298.279-.644.411-.797.133-.144.365-.327.524-.423.206-.115.478-.154 1.042-.144l.763.01c3.192-2.229 4.162-2.95 4.221-3.046.06-.086.159-.384.226-.644.06-.269.192-.672.285-.913s.319-.663.504-.942c.186-.288.518-.682.737-.874.219-.202.644-.548.949-.769.299-.211.763-.519 1.029-.673.259-.154.75-.384 1.075-.519s.823-.298 1.095-.365c.272-.077.916-.125 1.427-.125s1.102.048 1.314.115l.378.115c1.155-1.605 1.812-2.412 2.204-2.834a25.771 25.771 0 0 1 1.394-1.393c.378-.336 1.102-.922 1.613-1.297s1.394-.951 1.958-1.278c.564-.327 1.108-.596 1.201-.596s.232.086.299.202a.99.99 0 0 1 .119.509.792.792 0 0 1-.173.49c-.093.106-.478.519-.856.922s-1.062 1.211-1.52 1.787-1.181 1.585-1.613 2.248c-.438.653-.843 1.297-.909 1.432l-.119.24c1.148.327 1.752.538 2.077.673s.896.404 1.261.596 1.049.634 1.527.99a17.55 17.55 0 0 1 1.507 1.249c.405.384.684.73.73.894.073.231.066.298-.053.528-.139.259-.139.259-1.128.279l-.989.029c1.235 1.825 1.785 2.7 2.018 3.123.239.423.657 1.268.936 1.874.272.605.67 1.576.876 2.162.199.586.478 1.46.611 1.95.133.48.239.99.239 1.124s-.066.327-.146.432c-.086.106-.219.192-.299.192-.086 0-.412-.25-.73-.557-.325-.307-.717-.682-.883-.817-.166-.144-.319-.259-.345-.259-.033 0 .086.336.259.749.166.404.511 1.345.757 2.085s.551 1.778.684 2.306c.126.528.166 1.432.259 1.902h-.943m-10.388-.027 5.108.029m-5.108-.029c.011-.113-.006-.979 0-1.057M24 30.667h1.193m-1.193 0v-.127m0 .127v-.127m1.193.127h1.804a.76.76 0 0 1 .171-.375c.08-.087.219-.125.312-.096.093.019.418.135.743.471h1.055m-4.085 0c.004-.103.028-.981.031-1.086m4.055 1.086-.173-1.086m-5.106 0c.072-.932.337-2.166.302-2.979-.04-.922-.133-2.267-.206-2.978s-.239-1.883-.372-2.594a34.543 34.543 0 0 0-.491-2.258 28.287 28.287 0 0 0-.571-1.825 28.293 28.293 0 0 0-.743-1.826c-.292-.634-.73-1.383-1.294-2.21l-.85-1.249c-.226.519-.411.97-.557 1.345-.206.519-.332.721-.564.913-.232.183-.392.24-.73.24-.332-.01-.504-.067-.763-.259-.179-.135-.451-.442-.604-.673a6.147 6.147 0 0 1-.385-.653 1.514 1.514 0 0 1-.106-.528c0-.183.133-.625.365-1.182.199-.48.358-.903.352-.932-.013-.019-.272-.067-.584-.106a4.785 4.785 0 0 0-1.261.058c-.385.058-.969.211-1.294.336s-.883.394-1.228.596-.929.605-1.288.894c-.365.288-.796.73-.962.97s-.358.586-.418.769c-.066.183-.192.605-.279.951-.113.423-.246.73-.418.942-.146.183-1.181.97-2.409 1.825l-2.157 1.509c-1.473.01-1.706.048-1.872.173-.119.086-.246.25-.285.355s-.066.288-.066.404c0 .125.106.692.232 1.278s.259 1.124.292 1.201c.06.125.418.048 2.741-.577C7 21.117 8.295 20.8 8.401 20.81c.126 0 .246.096.319.231.066.125.119.307.113.394 0 .096-.066.279-.146.413-.139.221-.358.298-2.741.922-1.42.375-2.595.701-2.602.721-.013.019.02.125.066.221.04.106.186.298.312.442.126.135.385.307.564.384.186.087.465.144.631.144s.571-.077.896-.163a5.562 5.562 0 0 1 1.394-.144c.524 0 1.288.115 2.257.317 1.228.259 1.653.317 2.655.317 1.069 0 1.288-.029 2.058-.279.624-.192 1.042-.269 1.493-.269.465.01.743.067 1.062.221.239.106.584.346.763.529.186.173.438.509.564.74s.305.673.411.99c.1.317.226.836.285 1.153.053.317.119.942.139 1.393v.096M24 29.581h-5.108m5.108 0c-.008.101-.001.69 0 .959m0-.959v.959m1.224-.959c.041-1.235.049-1.81 0-2.979-.04-.98-.126-2.363-.199-3.075s-.219-1.816-.325-2.45c-.106-.634-.305-1.605-.438-2.162s-.418-1.528-.631-2.162-.538-1.499-.73-1.922c-.192-.423-.538-1.115-.763-1.537s-.73-1.201-1.115-1.729-.704-1.009-.71-1.057c0-.058.146-.067.412-.019.232.048.743.183 1.148.307s.923.317 1.161.413.717.336 1.062.519c.345.192.903.528 1.228.749.332.221.571.432.531.471-.033.038-.332.125-.664.192-.392.067-.637.163-.717.279-.066.086-.119.298-.113.48 0 .269.073.394.584 1.018a27.25 27.25 0 0 1 1.248 1.701c.365.548.856 1.345 1.082 1.768.232.423.597 1.134.803 1.585s.531 1.22.723 1.71c.186.48.332.922.325.97-.013.048-.246-.106-.518-.356-.272-.24-.836-.692-1.241-.999-.524-.384-.797-.538-.896-.5-.086.029-.206.144-.272.259s-.119.298-.119.403c0 .106.146.452.312.769.173.317.551 1.095.836 1.729.292.634.777 1.883 1.082 2.786s.664 2.066.797 2.594v.24m-3.883.005h1.443c.034-.171.253-.393.502-.393.417 0 1.055.393 1.055.393h.883m-8.92-21.042c-.305.557-.757 1.441-1.002 1.97s-.551 1.249-.684 1.614c-.159.413-.299.663-.392.701-.086.029-.259.01-.385-.038-.126-.058-.332-.24-.445-.394-.119-.163-.219-.336-.219-.394s.186-.5.411-.99c.259-.557.717-1.326 1.241-2.095.458-.663 1.195-1.595 1.633-2.066s1.082-1.105 1.427-1.403c.345-.307.657-.557.697-.557s-.339.586-.83 1.316c-.491.73-1.148 1.777-1.453 2.335zm-3.465 17.593c.199.125.445.375.551.548.099.163.245.48.319.692s.173.634.226.942c.053.298.113.711.133.913l.04.355h-2.688c-.02-2.123-.053-2.95-.086-3.219-.04-.259-.066-.48-.06-.49s.119-.029.246-.058a2.59 2.59 0 0 1 .597.019c.199.038.524.173.723.298zm-3.737-11.636a.57.57 0 0 0-.372.183 3.767 3.767 0 0 1-.465.394c-.166.125-.524.298-.796.404-.279.096-.538.25-.584.346s-.08.279-.08.403c0 .135.066.346.153.461.08.125.206.221.279.221s.312-.067.531-.154c.219-.077.604-.288.863-.461.252-.173.558-.432.677-.577a.892.892 0 0 0 .232-.557c.007-.192-.04-.375-.113-.48a.454.454 0 0 0-.325-.183z"/></symbol><symbol id="icon-home" viewBox="0 0 32 32"><path d="M15.114 3.003a1.334 1.334 0 0 1 1.772 0l12 10.667a1.333 1.333 0 0 1-1.771 1.993l-.447-.398v11.401a2.667 2.667 0 0 1-2.667 2.667h-16a2.667 2.667 0 0 1-2.667-2.667V15.265l-.448.398a1.333 1.333 0 1 1-1.771-1.993l12-10.667zM8 12.895v13.772h4v-9.333a2.667 2.667 0 0 1 2.667-2.667h2.667a2.667 2.667 0 0 1 2.667 2.667v9.333h4V12.895l-8-7.111-8 7.111zm9.333 13.772v-9.333h-2.667v9.333h2.667z"/><path d="M12 26.667H8V12.895l8-7.111 8 7.111v13.772h-4v-9.333a2.667 2.667 0 0 0-2.667-2.667h-2.667a2.667 2.667 0 0 0-2.667 2.667v9.333z"/></symbol><symbol id="icon-users" viewBox="0 0 32 32"><path d="M13.486 15.495A5.517 5.517 0 0 0 16 10.875c0-3.06-2.513-5.541-5.614-5.541s-5.614 2.481-5.614 5.541c0 1.929.999 3.628 2.514 4.62C3.064 16.796 0 20.686 0 25.282c0 .765.628 1.385 1.403 1.385s1.403-.62 1.403-1.385c0-4.131 3.393-7.481 7.579-7.481s7.579 3.349 7.579 7.481c0 .765.628 1.385 1.403 1.385s1.404-.62 1.404-1.385c0-1.843-.493-3.573-1.356-5.068 1.029-.806 2.383-1.304 3.882-1.304 3.363 0 5.895 2.459 5.895 5.264 0 .765.628 1.385 1.404 1.385s1.403-.62 1.403-1.385c0-3.464-2.332-6.32-5.524-7.479a4.41 4.41 0 0 0 1.875-3.603c0-2.448-2.011-4.433-4.491-4.433s-4.491 1.985-4.491 4.433c0 1.339.601 2.539 1.552 3.352a8.945 8.945 0 0 0-3.21 1.571 10.407 10.407 0 0 0-4.224-2.518zm-.293-4.621c0 1.53-1.257 2.771-2.807 2.771s-2.807-1.24-2.807-2.771c0-1.53 1.257-2.771 2.807-2.771s2.807 1.24 2.807 2.771zm10.667 3.879c.93 0 1.684-.744 1.684-1.662s-.754-1.662-1.684-1.662c-.93 0-1.684.744-1.684 1.662s.754 1.662 1.684 1.662z"/></symbol><symbol id="icon-A" viewBox="0 0 32 32"><path d="M24.364 2.667C26.372 2.667 28 4.159 28 6v19c0 .552-.488 1-1.091 1H6.182c0 .736.651 1.333 1.455 1.333H26.91c.603 0 1.091.448 1.091 1s-.488 1-1.091 1H7.637c-2.008 0-3.636-1.492-3.636-3.333V6c0-1.841 1.628-3.333 3.636-3.333h16.727zm0 2H7.637c-.803 0-1.455.597-1.455 1.333v18h19.636V6c0-.736-.651-1.333-1.455-1.333zm-8 3.333c.444 0 .844.247 1.011.624l4.727 10.667c.227.512-.042 1.095-.6 1.303s-1.194-.038-1.421-.55l-1.201-2.71h-5.031l-1.201 2.71c-.227.512-.863.758-1.421.55s-.827-.791-.6-1.303l4.727-10.667c.167-.377.567-.624 1.011-.624zm0 3.657-1.629 3.676h3.259l-1.629-3.676z"/></symbol><symbol id="icon-btn-close" viewBox="0 0 32 32"><path style="fill:var(--color1)" d="M19.803 21.071a.897.897 0 0 0 1.268-1.268L17.268 16l3.803-3.803a.897.897 0 0 0-1.268-1.268L16 14.732l-3.803-3.803a.897.897 0 0 0-1.268 1.268L14.732 16l-3.803 3.803a.897.897 0 0 0 1.268 1.268L16 17.268l3.803 3.803z"/><path style="fill:var(--color1)" d="M29.333 16c0-7.364-5.97-13.333-13.333-13.333S2.667 8.637 2.667 16 8.637 29.333 16 29.333c7.364 0 13.333-5.97 13.333-13.333zm-2.667 0c0 5.891-4.776 10.667-10.667 10.667S5.332 21.891 5.332 16 10.108 5.333 15.999 5.333 26.666 10.109 26.666 16z"/></symbol><symbol id="icon-youtube" viewBox="0 0 32 32"><path fill="#3a3000" style="fill:var(--color1,#3a3000)" d="M31.681 9.179s-.313-2.353-1.275-3.386c-1.219-1.36-2.581-1.366-3.206-1.446C22.725 4 16.006 4 16.006 4h-.012S9.275 4 4.8 4.347c-.625.08-1.987.087-3.206 1.446C.631 6.826.325 9.179.325 9.179S0 11.945 0 14.704v2.586c0 2.759.319 5.525.319 5.525s.312 2.353 1.269 3.386c1.219 1.36 2.819 1.313 3.531 1.46 2.563.26 10.881.34 10.881.34s6.725-.013 11.2-.353c.625-.08 1.988-.087 3.206-1.446.962-1.033 1.275-3.386 1.275-3.386S32 20.057 32 17.291v-2.586c0-2.759-.319-5.525-.319-5.525zm-18.987 11.25v-9.591l8.644 4.812-8.644 4.779z"/></symbol><symbol id="icon-logo-ua" viewBox="0 0 32 32"><path fill="#14331d" style="fill:var(--color1,#14331d)" d="M0 0h32v32H0V0z"/><path fill="#191c1d" style="fill:var(--color2,#191c1d)" d="M-3.2-19.2h268.8a9.6 9.6 0 0 1 9.6 9.6v51.2a9.6 9.6 0 0 1-9.6 9.6H-3.2a9.6 9.6 0 0 1-9.6-9.6V-9.6a9.6 9.6 0 0 1 9.6-9.6z"/><path fill="#005ac2" style="fill:var(--color3,#005ac2)" d="M32 16c0 8.837-7.163 16-16 16S0 24.837 0 16 7.163 0 16 0s16 7.163 16 16z"/><path fill="#e9c400" style="fill:var(--color4,#e9c400)" d="m19.842 2.667.005.006-1.956 1.812 2.067-.21-.862 1.683 2.131-.898c1.464 3.91.035 8.621-2.943 9.291-.367-1.418-1.911-2.12-2.019-3.207l.051.015c.271.072.545.066.799-.004l1.408 1.279 1.157-.915c-.412.158-1.601-.078-1.862-.778a1.504 1.504 0 0 0 .428-.97l.421.896.517-.57c.427.312.699.76.643 1.181 0 0 .934-.905.934-1.643 0-.447-4.04-1.652-4.04-1.652L13.47 5.299l.958 1.746-2.7-1.104 1.968 1.746c-2.274 1.573-1.237 4.752-.101 6.666-3.22-.541-5.775-4.327-5.363-8.104l2.756-1.194-1.74-.287 1.636-1.867-1.793.645.006-.011C-.331 7.242 2.578 24.043 5.528 26.892l-.03-.215c-.836-3.143-1.141-7.02-.98-10.647.169-3.813.831-7.329 2.06-9.473l.908.519c-1.058 1.844-1.758 5.284-1.923 9-.109 2.451.006 5.03.351 7.381.343.106.843.537 1.529 1.299a5.887 5.887 0 0 1-.363-2.139c1.136 2.328 3.771 3.869 5.859 3.482 1.257-.233 2.341-.711 3.237-1.368l.409.862c-1.124.281-1.277 1.824-.825 3.08.098-1.111.636-1.665 1.217-1.805-.369.887-.263 1.711-.175 2.468.568-.679 1.202-1.33 1.323-2.199.489.41.69 1.201.067 2.183 1.474-.865 1.768-2.347.447-3.223l-1.796-1.917c.331-.31.629-.648.893-1.01l2.2.882c-.221.765.327 1.761 1.107 2.42-.451-.966-.27-1.681.144-2.073.091.972.596 1.631 1.049 2.239.153-.875.38-1.76-.012-2.57.617.087 1.187.646 1.139 1.781.804-1.414.342-2.777-1.162-2.879l-3.984-.553c.714-1.284 1.046-2.784.953-4.329.795-1.939 2.803-.66 3.053 2.747 1.536-4.49 3.757-2.158 3.294 1.37.661-1.306 1.223-1.957 1.672-2.026-.603-5.137-2.266-10.705-4.348-14.012l.886-.556c2.818 4.476 4.766 12.33 4.753 18.527 2.375-6.477-.131-19.927-8.64-21.469zm-1.649 26.65-.002.001-.001.003.002-.004zM16.692 9.188a.476.476 0 0 1 .148.018c.267.072.418.332.346.599s-.333.417-.6.346a.483.483 0 0 1-.347-.599.483.483 0 0 1 .404-.36l.048-.004zm-3.573 9.102c.665-.011 1.268.378 1.466 1.257 0 2.005-.535 3.846-2.36 4.326-1.547.407-3.905-.637-4.711-2.999.688-1.178 2.092-1.229 3.519 1.262-.705-2.324.806-3.825 2.086-3.846z"/></symbol><symbol id="cross-form-icon" viewBox="0 0 32 32"><path fill="#c4c7c7" style="fill:var(--color1,#c4c7c7)" d="M18.828 19.771a.668.668 0 0 0 .943-.943L16.943 16l2.828-2.828a.668.668 0 0 0-.943-.943L16 15.057l-2.828-2.828a.668.668 0 0 0-.943.943L15.057 16l-2.828 2.828a.668.668 0 0 0 .943.943L16 16.943l2.828 2.828z"/></symbol><symbol id="mic-form-Icon" viewBox="0 0 32 32"><path fill="#c4c7c7" style="fill:var(--color1,#c4c7c7)" d="M20 15.333c0 2.213-1.787 4-4 4s-4-1.787-4-4v-8c0-2.213 1.787-4 4-4s4 1.787 4 4v8zM16 22a6.67 6.67 0 0 0 6.667-6.667h2.667c0 4.707-3.48 8.573-8 9.227v4.107h-2.667V24.56c-4.52-.653-8-4.52-8-9.227h2.667A6.67 6.67 0 0 0 16.001 22z"/></symbol><symbol id="icon-arrow-btn-left" viewBox="0 0 32 32"><path fill="#c4c7c7" style="fill:var(--color1,#c4c7c7)" d="M13.362 20.297c.26.27.682.27.943 0s.26-.709 0-.979l-2.593-2.693h9.789a.625.625 0 0 0 0-1.25h-9.789l2.593-2.693c.26-.27.26-.709 0-.979s-.682-.27-.943 0l-3.667 3.808a.712.712 0 0 0 0 .979l3.667 3.808z"/><path fill="none" stroke="#968e98" style="stroke:var(--color2,#968e98)" stroke-width=".667" d="M16 3c7.18 0 13 5.82 13 13s-5.82 13-13 13S3 23.18 3 16 8.82 3 16 3z"/></symbol><symbol id="icon-btn-toggleable" viewBox="0 0 32 32"><path fill="none" stroke="#cdc4ce" style="stroke:var(--color1,#cdc4ce)" stroke-width="1.333" d="m13.79 15.105 4.419-2.209m.001 6.209-4.415-2.207M22 12a2 2 0 1 1-3.999.001A2 2 0 0 1 22 12zm-8 4a2 2 0 1 1-3.999.001A2 2 0 0 1 14 16zm8 4a2 2 0 1 1-3.999.001A2 2 0 0 1 22 20z"/><path fill="none" stroke="#968e98" style="stroke:var(--color2,#968e98)" stroke-width=".667" d="M16 3c7.18 0 13 5.82 13 13s-5.82 13-13 13S3 23.18 3 16 8.82 3 16 3z"/></symbol><symbol id="icon-but-layer" viewBox="0 0 32 32"><path fill="#cdc4ce" style="fill:var(--color3,#cdc4ce)" d="M18.5 9.333a1.5 1.5 0 0 1 1.497 1.397l.003.103v.499l1.167.001a1.5 1.5 0 0 1 1.497 1.397l.003.103v6.333a1.5 1.5 0 0 1-1.397 1.497l-.103.003H20v.5a1.5 1.5 0 0 1-1.397 1.497l-.103.003h-5a1.5 1.5 0 0 1-1.497-1.397L12 21.166v-.5h-1.167a1.5 1.5 0 0 1-1.497-1.397l-.003-.103v-6.333a1.5 1.5 0 0 1 1.397-1.497l.103-.003L12 11.332v-.499a1.5 1.5 0 0 1 1.397-1.497l.103-.003h5zm0 1h-5a.5.5 0 0 0-.495.432l-.005.068v10.333a.5.5 0 0 0 .432.495l.068.005h5a.5.5 0 0 0 .495-.432l.005-.068V10.833a.5.5 0 0 0-.432-.495l-.068-.005zm-6.5 2-1.167.001a.5.5 0 0 0-.495.432l-.005.068v6.333a.5.5 0 0 0 .432.495l.068.005H12v-7.334zm9.167 0L20 12.332v7.334h1.167a.5.5 0 0 0 .495-.432l.005-.068v-6.333a.5.5 0 0 0-.5-.5z"/><path fill="none" stroke="#968e98" style="stroke:var(--color2,#968e98)" stroke-width=".667" d="M16 3c7.18 0 13 5.82 13 13s-5.82 13-13 13S3 23.18 3 16 8.82 3 16 3z"/></symbol><symbol id="leading" viewBox="0 0 32 32"><path style="fill:var(--color1,#000)" d="M32 16c0 8.837-7.163 16-16 16S0 24.837 0 16 7.163 0 16 0s16 7.163 16 16z"/><path fill="#e9c400" style="fill:var(--color2,#e9c400)" d="M19.333 4.667c.268 1.331-.168 2.096-1.66 3.621-.566-.361-1.598-.542-2.528-.404 2.326-1.106 3.298-1.669 4.188-3.216zm6.667 0s-1.157 4.706-3.609 6.664c1.825-.114 4.028-.753 5.604-1.254-1.262 1.744-3.245 2.621-5.225 3.285 1.263.877 2.787 1.769 5.23 1.918-2.763.951-5.437.441-6.641.035.905 1.729 5.092 3.281 6.184 3.816-2.693.208-6.154-.545-8.444-1.63-.506 1.219.081 2.636.511 3.855.096.223.192.441.288.659a21.196 21.196 0 0 1-.753-.525c-1.193-.803-2.417-1.581-3.008-2.914-1.32 1.546-3.17 3.077-5.41 4.232-.88 1.095-1.431 2.428-1.729 3.657-.42-.947-.698-1.992-.49-2.988-1.239-.178-1.8-1.472-1.795-2.696.637.307.763.312 1.578.406 0-.5-.03-.619.152-1.422A2.671 2.671 0 0 0 10 20.35c-.106-.377-.152-.966-.187-1.353.657.352.971.481 1.522.535.02-.54.005-.991.207-1.506 1.497.942 2.457.074 3.438-1.055-1.001-.842-4.874-1.08-4.808.352-.708-.362-.951-.555-1.193-.788-.46.421-.678 1.036-.763 1.556-.47-.466-.521-.52-.865-1.179-.288.5-.445.842-.541 1.516-.43-.307-.779-.649-1.001-1.061-.379.768-.42.793-.627 1.635-.9-.649-1.102-1.546-1.153-2.359-.101-1.635.015-5.362 1.567-7.081-.086 1.799.662 3.469 1.709 3.999.637.243 4.879-3.697 6.957-4.623 1.188-.505 2.432.352 3.428.461 3.822-1.145 8.312-4.731 8.312-4.731zm-12 6.468s-1.656 1.256-3.066 2.152c.981.144 3.131.002 3.733-.855.278-.392-.667-1.297-.667-1.297zm5.812 7.668a13.4 13.4 0 0 0 2.215.709c.121.178.233.352.339.52-.748.263-1.593.347-2.23.139a6.543 6.543 0 0 1-.324-1.368zm3.438.947.516.075c1.608 1.814 2.925 5.114 2.234 7.527 0 0-.361.343-.718.343s-.903-.343-.903-.343c.562-1.868.836-4.316-1.128-7.602zm-.43 1.065c.298.565.526 1.095.698 1.591-.652.332-1.471.441-2.265.406-.233-.52-.496-1.08-.738-1.65.779.089 1.588-.069 2.306-.347zm-5.632.327a20.35 20.35 0 0 0 1.967 1.467c-.354 1.685-1.689 3.142-3.737 4.742 0 0-1.271.649-2.085.649-.831 0-2.127-.649-2.127-.649 2.892-1.576 4.783-3.632 5.981-6.209zm6.573 2.141c.126.585.167 1.125.152 1.63-1.886.704-3.16.669-4.93.203.364-.51.657-1.041.854-1.601 1.653.466 2.801.282 3.924-.233zm-5.39 2.597c1.926.54 3.479.654 5.435.015-.091.515-.228.996-.379 1.457 0 0-1.999.343-3.292.343-1.291 0-3.286-.343-3.286-.343a14.576 14.576 0 0 0 1.522-1.472z"/></symbol><symbol id="witcher-icon" viewBox="0 0 32 32"><path style="fill:var(--color1,#000)" d="M32 16c0 8.837-7.163 16-16 16S0 24.837 0 16 7.163 0 16 0s16 7.163 16 16z"/><path fill="#fff" style="fill:var(--color3,#fff)" d="M14.49 25.37c.004.005.019.038.033.072s.048.109.078.166c.029.057.073.129.097.162s.059.068.077.081c.019.013.053.025.075.029s.131.011.242.016c.138.007.471.009 1.051.006.514-.003.883-.008.934-.014.047-.005.094-.012.106-.014s.039-.022.061-.043c.023-.021.057-.06.075-.087a1.827 1.827 0 0 0 .144-.277.341.341 0 0 1 .047-.092c.004 0 .004.013.002.029a58.36 58.36 0 0 1-.109.788c-.013.082-.03.195-.04.251-.01.056-.022.118-.027.137-.008.028-.013.034-.038.038l-.164.013a22.468 22.468 0 0 1-1.135.035 21.789 21.789 0 0 1-1.141-.036c-.076-.005-.151-.012-.165-.015s-.027-.008-.028-.011c-.002-.003-.012-.045-.022-.094s-.034-.201-.054-.336l-.073-.514c-.021-.147-.036-.274-.036-.283s.003-.012.007-.006zM6.621 4.004c0 .003-.018.06-.041.128s-.048.148-.056.178-.019.086-.024.126a1.749 1.749 0 0 0-.006.238c.003.132.008.18.023.238.01.039.037.109.058.153s.062.118.091.162c.029.045.075.103.103.13s.087.074.131.103c.044.03.145.086.224.127s.234.112.346.159l.489.204c.158.066.566.231.907.368l1.109.447c.269.109.649.26.844.337.195.076.537.206.759.29l.411.155c.004.003-.218.27-.493.593l-.51.599c-.008.01-.031.001-.122-.048-.062-.033-.185-.101-.274-.152l-.416-.241a44.64 44.64 0 0 1-1.093-.665 82.13 82.13 0 0 1-.624-.392c-.175-.111-.462-.293-.638-.407l-.678-.438a64.47 64.47 0 0 1-.494-.323c-.075-.049-.165-.115-.202-.146s-.086-.078-.109-.104-.057-.07-.077-.097a.951.951 0 0 1-.128-.243 1.778 1.778 0 0 1-.046-.153c-.01-.042-.021-.107-.023-.144a.89.89 0 0 1 .022-.25c.005-.022.005-.029-.005-.029-.005 0-.016.022-.023.048l-.029.118a.991.991 0 0 0-.015.193c0 .077.005.144.013.184a.942.942 0 0 0 .246.444c.04.041.103.101.143.133.04.032.136.101.215.153l.611.4 1.015.661.997.646a117.429 117.429 0 0 0 1.595 1.018l-.022.022-.213.247a7.477 7.477 0 0 1-.198.227c-.004.001-.159-.1-.342-.224l-.573-.387-.593-.405c-.195-.134-.492-.336-.66-.453l-.665-.462a61.287 61.287 0 0 1-1.154-.826 2.462 2.462 0 0 1-.31-.26c-.064-.065-.144-.156-.177-.203s-.081-.124-.105-.17a1.373 1.373 0 0 1-.118-.341 1.346 1.346 0 0 1 .008-.399c.011-.049.034-.132.052-.184s.054-.136.08-.188a2.037 2.037 0 0 1 .229-.354 3.356 3.356 0 0 1 .338-.367l.143-.129a.316.316 0 0 1 .055-.043zM25.373 4c.004.001.029.02.056.042a5.196 5.196 0 0 1 .395.393 2.697 2.697 0 0 1 .321.467c.014.03.041.091.059.135.017.045.043.126.057.179a.786.786 0 0 1 .026.269c0 .111-.004.188-.012.22a1.405 1.405 0 0 1-.18.422 1.792 1.792 0 0 1-.28.322c-.047.042-.17.139-.274.216a51.296 51.296 0 0 1-1.073.768l-.606.422c-.192.134-.542.374-.777.535s-.627.426-.871.592l-.537.363c-.059.04-.095.058-.101.053s-.101-.118-.215-.251c-.156-.183-.204-.245-.196-.252a74.97 74.97 0 0 0 .972-.618 228.53 228.53 0 0 0 2.083-1.348l.934-.609c.173-.113.347-.231.386-.261.039-.03.1-.08.134-.111s.087-.09.119-.129a1.013 1.013 0 0 0 .147-.26.948.948 0 0 0 .031-.114 1.24 1.24 0 0 0 0-.354 2.708 2.708 0 0 0-.029-.127c-.009-.03-.02-.056-.025-.056s-.006.013-.002.038c.004.022.011.075.015.119a.865.865 0 0 1-.051.377 1.14 1.14 0 0 1-.135.274c-.022.032-.072.09-.109.128s-.092.09-.122.114c-.03.023-.179.125-.332.224l-.66.429a149.936 149.936 0 0 1-1.572 1c-.171.106-.429.266-.575.354l-.458.276a31.072 31.072 0 0 1-.894.508l-.019-.021-.511-.599c-.27-.318-.488-.581-.483-.584.004-.004.18-.071.393-.15a59.361 59.361 0 0 0 1.535-.598l1.14-.459a70.91 70.91 0 0 0 1.163-.473c.166-.067.359-.149.431-.181.072-.031.177-.083.234-.112s.137-.076.18-.103c.042-.028.102-.074.134-.105a.92.92 0 0 0 .179-.248c.021-.037.048-.103.064-.148.014-.044.031-.115.038-.157.007-.049.009-.129.005-.229a1.308 1.308 0 0 0-.023-.229c-.01-.042-.03-.11-.044-.153s-.037-.103-.049-.136c-.013-.034-.021-.061-.017-.061zm-14.9.809.162.102c.084.054.316.206.516.34s.48.324.624.422a104.067 104.067 0 0 1 .748.519c.056.04.107.079.112.086s.158.255.336.55c.179.294.325.54.325.545 0 .006-.212.008-1.244.005l-.796-1.279c-.437-.704-.796-1.282-.796-1.287s.005-.005.011-.004zm11.056.008c.002.005-.355.583-1.585 2.562l-.62.003c-.492.001-.62-.001-.62-.009 0-.006.148-.256.33-.555s.335-.548.343-.554l.288-.204c.151-.106.4-.277.552-.382a49.773 49.773 0 0 1 1.145-.764 1.08 1.08 0 0 1 .168-.097zm-7.672 1.027 2.139.174 1.095-.089c.602-.048 1.097-.086 1.1-.084s-.233.479-.523 1.059c-.515 1.029-.527 1.053-.503 1.053.021 0 .049-.03.401-.449l.09.005c.049.003.541.015 1.091.028s1.007.025 1.013.027a.633.633 0 0 1-.097.147c-.059.079-.106.145-.103.148s.066-.052.142-.121c.075-.07.139-.127.144-.126s.224.273.491.606c.267.333.482.609.479.614s-.418.245-.92.534c-.503.289-.917.526-.92.526s-.093-.198-.198-.442c-.104-.243-.19-.445-.19-.449s.094-.126.209-.269c.115-.144.212-.268.216-.274s.004-.012.002-.012c-.003 0-.116.103-.251.229-.152.141-.254.229-.265.229s-.47-.057-2.029-.251h-.943l-1.007.126c-.555.07-1.015.125-1.023.124s-.121-.101-.251-.222c-.13-.12-.244-.222-.252-.226s.083.116.205.268c.145.181.218.28.215.289l-.191.446a6.166 6.166 0 0 1-.195.433c-.004 0-.421-.237-.925-.528s-.916-.531-.916-.537c0-.005.134-.177.296-.38l.673-.84.139.128c.076.07.14.125.142.12s-.046-.071-.103-.147c-.058-.077-.104-.141-.101-.143s.459-.013 1.015-.027l1.189-.028.186.22c.146.174.19.221.209.223.013.001.023 0 .023-.003s-.236-.476-.525-1.054c-.289-.577-.525-1.053-.524-1.055s.026-.003.056.001zm-1.087.014c.004 0 .062.025.13.057.067.031.239.113.381.182.244.118.26.127.278.161.011.02.054.091.096.157l.23.359.395.607-.067.005a16.383 16.383 0 0 1-.721.034c-.003-.003-.165-.35-.361-.772l-.362-.778c-.003-.006-.002-.012.001-.012zm6.451.009c.002.005-.158.355-.354.779s-.357.771-.36.774c-.002.003-.16-.003-.35-.013s-.368-.019-.441-.028l.145-.22.29-.444c.08-.124.183-.286.314-.498l.274-.132c.151-.073.321-.153.377-.179s.104-.043.105-.039zm6.671.761c.003.008-.002.063-.01.122a4.013 4.013 0 0 1-.091.466 6.402 6.402 0 0 1-.178.574c-.033.089-.091.232-.127.319a7.747 7.747 0 0 1-.503.978 10.534 10.534 0 0 1-.428.651c-.06.083-.159.217-.22.296a11.419 11.419 0 0 1-.437.525 9.21 9.21 0 0 1-.587.592 2.478 2.478 0 0 1-.103.088c-.005.002-.064-.019-.13-.048s-.133-.057-.175-.074l.27-.272c.148-.15.334-.345.413-.433a10.598 10.598 0 0 0 1.308-1.82 8.494 8.494 0 0 0 .38-.796 4.578 4.578 0 0 0 .235-.763c.024-.116.03-.132.052-.149l.176-.145c.114-.094.152-.121.155-.11zM6.108 6.62c.004 0 .084.064.18.141l.174.141.025.118a4.452 4.452 0 0 0 .151.538c.032.093.084.233.116.31.032.076.089.206.127.287a8.95 8.95 0 0 0 .318.602c.043.072.102.172.135.224a10.964 10.964 0 0 0 .388.575c.057.076.148.199.206.273a12.857 12.857 0 0 0 .464.557l.261.283c.096.101.235.242.31.314s.132.133.128.136c-.004.004-.07.033-.146.066-.125.053-.141.058-.159.048-.011-.006-.073-.061-.139-.12a8.754 8.754 0 0 1-1.031-1.144 11.053 11.053 0 0 1-.382-.538c-.059-.092-.149-.232-.198-.314s-.123-.208-.164-.283a9.01 9.01 0 0 1-.318-.638c-.029-.064-.075-.177-.106-.251s-.085-.23-.124-.345-.09-.293-.115-.395c-.025-.101-.056-.242-.067-.314s-.025-.162-.029-.199a.21.21 0 0 1-.001-.07zm.952.969c.003 0 .057.045.12.1s.201.17.307.254a30.283 30.283 0 0 0 .835.64l.584.431c.136.1.36.261.498.361.138.1.257.191.263.203s.021.062.032.11a1.623 1.623 0 0 1 .054.487 1.176 1.176 0 0 1-.067.46.867.867 0 0 1-.051.114.964.964 0 0 1-.066.099l-.074-.051a8.525 8.525 0 0 1-.478-.363 6.875 6.875 0 0 1-1.032-1.09 8.671 8.671 0 0 1-.405-.61 7.801 7.801 0 0 1-.348-.691c-.038-.089-.092-.224-.119-.301s-.052-.142-.055-.145c-.003-.005-.002-.007.001-.007zm17.872.008c.002.004-.021.071-.05.15s-.069.182-.089.229-.051.122-.071.166a6.929 6.929 0 0 1-.448.826 7.783 7.783 0 0 1-.33.467l-.148.184a6.92 6.92 0 0 1-1.061 1.009 9.351 9.351 0 0 1-.31.219l-.021-.03a.784.784 0 0 1-.06-.11.976.976 0 0 1-.089-.3 2.303 2.303 0 0 1 0-.491c.007-.058.022-.141.031-.184s.024-.101.05-.173l.278-.2a80.814 80.814 0 0 0 1.171-.859c.205-.153.45-.338.543-.412.094-.073.233-.184.31-.247s.173-.144.215-.182a.31.31 0 0 1 .079-.062zm-9.476 1.16c.015-.001.018.006.021.042.002.023.014.163.03.311s.037.384.048.525a35.25 35.25 0 0 1 .054.686c.008.109.028.341.045.516s.062.606.099.956l.138 1.288c.041.371.077.669.085.694.008.023.017.042.022.042s.014-.021.022-.047a4.76 4.76 0 0 0 .057-.411 440.785 440.785 0 0 0 .224-2.096c.027-.261.057-.571.067-.686s.025-.3.032-.408a53.361 53.361 0 0 1 .097-1.114c.016-.158.03-.29.033-.293s.405.048.893.111c.489.064.894.116.901.116s.011.004.011.009c0 .005-.041.031-.092.059a2.5 2.5 0 0 0-.299.196c-.039.03-.11.092-.156.136a2.258 2.258 0 0 0-.282.34 2.836 2.836 0 0 0-.231.475 3.882 3.882 0 0 0-.063.206 4.454 4.454 0 0 0-.097.503 21.981 21.981 0 0 0-.117.938 7.85 7.85 0 0 0-.027.381 3.055 3.055 0 0 0-.001.318 3.9 3.9 0 0 0 .117.686 8.396 8.396 0 0 0 .14.51c.002.008.006.015.011.015s.012-.01.018-.022c.005-.013.011-.033.011-.047s-.02-.124-.044-.245a9.076 9.076 0 0 1-.113-.682c-.007-.066-.013-.162-.013-.213s.006-.124.014-.162a.746.746 0 0 1 .103-.263c.021-.032.062-.083.092-.112s.083-.068.175-.117l.017.022.057.069.143.164-.068.074a.574.574 0 0 0-.117.172c-.026.055-.054.123-.062.153s-.018.096-.023.148c-.005.052-.008.135-.005.184s.015.132.028.184a2.965 2.965 0 0 0 .147.448c.032.082.092.219.134.305s.075.158.074.159l-.294.18c-.16.098-.376.23-.48.292a9.668 9.668 0 0 1-.226.132c-.039.019-.04.019-1.574.019l-.092-.053c-.051-.029-.159-.092-.241-.142l-.418-.254-.277-.17a.576.576 0 0 1 .057-.137l.113-.251a4.78 4.78 0 0 0 .184-.55 1.48 1.48 0 0 0 .009-.412.99.99 0 0 0-.038-.144c-.014-.039-.045-.104-.068-.144s-.068-.099-.16-.193l.07-.079c.04-.043.088-.1.108-.125.03-.037.041-.047.056-.042a.488.488 0 0 1 .167.116c.03.03.061.066.072.081a.828.828 0 0 1 .131.399c.003.06-.001.143-.01.229a6.982 6.982 0 0 1-.11.678c-.027.136-.048.263-.048.283s.005.044.012.054c.007.01.014.014.018.009s.022-.064.042-.13a7.814 7.814 0 0 0 .152-.597 2.717 2.717 0 0 0 .07-.543c.003-.092 0-.249-.004-.35s-.022-.293-.038-.426c-.014-.133-.04-.337-.054-.453s-.038-.277-.05-.359c-.013-.082-.035-.211-.05-.287s-.043-.196-.063-.265a2.468 2.468 0 0 0-.179-.453 1.997 1.997 0 0 0-.211-.323 2.744 2.744 0 0 0-.112-.13 2.18 2.18 0 0 0-.525-.393.352.352 0 0 1-.084-.051c0-.004.04-.013.088-.019s.449-.057.891-.116.812-.106.821-.107zm.131-.001h.831l-.005.042c-.004.024-.086.883-.36 3.776l-.057.051-.049-.051-.18-1.889c-.1-1.039-.18-1.898-.18-1.909v-.021zm-4.459.217c.01.007.429.25.93.541l.914.529c.001 0-.05.14-.115.31s-.116.311-.113.314c.003.002.019-.026.035-.063a18.641 18.641 0 0 1 .247-.524c.002-.004.398.207.877.47l.875.481c.002.002.01.035.016.073l.033.222a13.82 13.82 0 0 1 .077.664c.006.065.009.122.007.128-.002.007-.027-.018-.057-.057s-.076-.089-.103-.111c-.034-.028-.702-.39-2.126-1.154-1.142-.612-2.076-1.115-2.076-1.119s.104-.138.231-.301l.279-.355c.046-.057.05-.06.068-.048zm9.771.001c.006.005.133.166.281.356s.27.347.27.35c0 .002-.931.502-2.07 1.113a109.816 109.816 0 0 0-2.122 1.149c-.028.022-.077.073-.109.112s-.06.073-.063.074-.003-.037.002-.085l.029-.302c.012-.118.035-.299.049-.399.015-.101.031-.212.049-.307l.866-.476c.477-.262.87-.478.876-.48s.072.127.148.289.143.296.148.299c.005.004.006-.001.002-.012l-.121-.312c-.063-.162-.112-.295-.11-.297l.934-.543c.722-.419.931-.537.939-.528zm-7.375.092c.031.013.103.047.16.075a1.946 1.946 0 0 1 .332.213 2.169 2.169 0 0 1 .323.341c.032.045.08.12.107.166s.066.124.089.173a2.944 2.944 0 0 1 .146.421 3.745 3.745 0 0 1 .079.418c0 .015-.008.013-.07-.024l-.356-.205c-.158-.09-.409-.232-.557-.314a30.553 30.553 0 0 1-.479-.273c-.153-.089-.209-.126-.206-.135l.186-.44c.1-.235.182-.43.184-.432s.029.004.06.016zm5.009-.016c.003.004.087.2.188.437l.186.44c.002.004-.081.057-.183.118s-.401.229-.663.376-.554.313-.649.369c-.17.1-.172.101-.172.077 0-.013.01-.083.022-.154s.038-.187.055-.256c.018-.069.05-.177.073-.238s.064-.161.092-.22c.029-.059.075-.144.101-.188s.08-.119.116-.166c.036-.048.104-.124.152-.17s.124-.115.171-.15c.047-.035.132-.092.189-.126s.152-.082.211-.108a.456.456 0 0 1 .113-.04zm-12.049.837c.005-.001.066.083.136.185s.18.257.243.344a11.68 11.68 0 0 0 .523.664c.037.042.125.133.194.204.07.07.125.129.122.132s-.071-.025-.153-.064l-.229-.104-.144-.063c-.035-.014-.354-.102-.709-.195l-1.405-.369c-.418-.109-.763-.202-.768-.206s.002-.011.018-.014l1.095-.259 1.075-.254zm19.041.003c.008.003.496.118 1.084.257s1.077.255 1.086.259c.014.006.015.009.004.013-.007.004-.43.115-.938.249s-1.112.291-1.342.351c-.23.059-.452.118-.494.13s-.151.056-.242.098c-.092.04-.215.097-.274.124s-.11.048-.112.047c-.003-.003.054-.065.126-.137s.165-.173.207-.223a13.836 13.836 0 0 0 .7-.916l.15-.214c.022-.031.034-.041.045-.038zm-14.886.172c.003.001.075.084.314.368l-.01.04a1.76 1.76 0 0 0-.011.242c0 .149.004.228.015.305a2.618 2.618 0 0 0 .094.381 1.977 1.977 0 0 0 .35.605 2.313 2.313 0 0 0 .47.417 2.096 2.096 0 0 0 .422.203c.062.021.156.047.211.058s.147.025.207.031a2.603 2.603 0 0 0 .52-.014c.049-.008.156-.029.386-.08l.067.072a1.503 1.503 0 0 1 .238.34c.027.054.059.136.072.184s.027.126.032.175.009.118.007.154c-.002.036-.001.065.003.065s.014-.009.022-.02a.257.257 0 0 0 .029-.074.646.646 0 0 0 .007-.165.683.683 0 0 0-.029-.193 1.21 1.21 0 0 0-.058-.153c-.018-.04-.059-.11-.091-.157s-.089-.127-.198-.269l.065-.038c.036-.021.106-.065.155-.098s.136-.098.292-.223l.054.054c.03.03.074.084.101.123s.056.09.066.115c.011.024.026.069.033.099s.016.082.02.117c.003.034.001.1-.005.148s-.015.118-.023.157c-.008.04-.028.118-.045.175a3.566 3.566 0 0 1-.166.444 4.641 4.641 0 0 1-.091.195c-.026.052-.049.086-.056.084l-.15-.081a1.344 1.344 0 0 0-.142-.073c-.001.002.013.035.033.074a2.216 2.216 0 0 1 .142.375c.015.055.03.109.032.121.004.018.081.067.425.271.232.136.435.258.483.286l-.049.048c-.027.027-.052.049-.057.049s-.18-.095-.392-.211c-.213-.117-.388-.21-.39-.209s-.001.048.008.207l.552.317c.303.175.602.346.664.38.106.059.117.063.193.071.044.004.17.013.278.019.116.006.273.008.382.004.101-.003.236-.009.301-.014s.133-.01.153-.013c.025-.004.174-.083.512-.276l.858-.491.002-.104c.002-.066-.001-.101-.006-.1s-.18.097-.391.211c-.21.115-.383.208-.386.207s-.028-.022-.109-.093l.451-.269c.282-.169.453-.276.458-.287s.018-.063.033-.117c.014-.055.042-.139.06-.188s.053-.129.077-.178c.024-.048.042-.09.04-.092s-.069.031-.148.076c-.079.044-.146.081-.151.081s-.038-.066-.075-.146a3.92 3.92 0 0 1-.206-.509 2.689 2.689 0 0 1-.068-.251.99.99 0 0 1-.024-.233.764.764 0 0 1 .012-.17.73.73 0 0 1 .106-.229c.02-.03.058-.08.086-.11s.057-.056.065-.056.055.033.105.074a2.879 2.879 0 0 0 .411.277l-.048.06a4.004 4.004 0 0 0-.179.25 1.134 1.134 0 0 0-.123.278 1.03 1.03 0 0 0-.027.144.552.552 0 0 0 .027.262c.01.021.022.039.027.039.005 0 .009-.039.009-.097a1.21 1.21 0 0 1 .044-.316c.01-.032.03-.089.045-.126s.057-.11.091-.162c.034-.052.096-.135.137-.184s.083-.092.092-.097c.013-.006.052-.001.135.019.064.015.153.033.198.041s.128.018.184.024a2.397 2.397 0 0 0 .512-.015 2.396 2.396 0 0 0 .35-.092 2.406 2.406 0 0 0 .373-.186c.04-.026.114-.081.166-.122s.138-.12.193-.175a2.051 2.051 0 0 0 .385-.543c.027-.057.066-.152.086-.211a2.223 2.223 0 0 0 .089-.399c.004-.048.012-.126.014-.175a2.222 2.222 0 0 0-.018-.35c-.004-.013.01-.037.051-.085l.259-.305.73.875.532.224c.294.123.533.226.533.229s-.282.164-.626.36l-1.3.737-1.212.685c-.296.167-.69.387-.875.489-.185.102-.373.208-.418.234a.905.905 0 0 0-.185.152 1.057 1.057 0 0 0-.242.336c-.018.04-.042.098-.053.13a1.48 1.48 0 0 0-.038.139c-.016.073-.019.131-.025.642l-.009.637-4.35-.004-.005-.583c-.005-.538-.007-.59-.024-.673a1.218 1.218 0 0 0-.186-.454 1.466 1.466 0 0 0-.283-.29 3.853 3.853 0 0 0-.26-.15 193.865 193.865 0 0 1-2.304-1.295l-1.399-.79c-.286-.161-.518-.296-.518-.3s.239-.108 1.064-.455l.363-.437c.2-.24.366-.435.368-.433zm1.365.533c.004 0 .347.183.759.408s.75.412.75.417c0 .004-.017.016-.039.025a.098.098 0 0 1-.074.009c-.02-.004-.085-.022-.146-.04s-.116-.03-.123-.03-.032.013-.057.028a.523.523 0 0 1-.193.083.622.622 0 0 1-.254 0 .663.663 0 0 1-.236-.119.664.664 0 0 1-.213-.346 1.395 1.395 0 0 1-.014-.247l-.072-.054a.53.53 0 0 1-.08-.07c-.004-.009-.01-.027-.013-.04s-.002-.024.004-.024zm7.989 0c.009 0 .009.007 0 .037-.009.032-.022.047-.156.147l-.005.117a.763.763 0 0 1-.024.179c-.011.034-.033.087-.049.117a.766.766 0 0 1-.16.19.691.691 0 0 1-.11.07c-.035.017-.087.037-.117.044s-.086.014-.126.014a.637.637 0 0 1-.256-.058.578.578 0 0 1-.081-.048c-.024-.017-.038-.022-.058-.017l-.287.076-.039-.017c-.021-.01-.04-.021-.041-.024s.334-.191.747-.416c.414-.226.757-.411.762-.411zm-8.8.083a10.098 10.098 0 0 1 .316.371c.016.024.033.061.039.081l.031.108c.012.04.039.104.057.144a1.139 1.139 0 0 0 .194.281 1.442 1.442 0 0 0 .291.234c.042.026.119.067.171.092s.153.068.224.097c.072.028.164.064.206.078s.149.042.238.06c.089.018.192.043.229.056s.092.036.123.053a.554.554 0 0 1 .179.163c.016.025.022.041.017.047-.005.004-.04.013-.076.022a2.188 2.188 0 0 1-.364.052 1.562 1.562 0 0 1-.265-.001c-.072-.005-.179-.02-.238-.031s-.153-.037-.207-.054a2.089 2.089 0 0 1-.373-.174 2.169 2.169 0 0 1-.323-.248 1.795 1.795 0 0 1-.147-.162c-.034-.045-.083-.118-.11-.162a1.374 1.374 0 0 1-.139-.306 1.802 1.802 0 0 1-.085-.375 2.71 2.71 0 0 1-.009-.432c.004-.004.013-.001.019.005zm9.631.004c.003.009.006.074.006.143s-.004.17-.009.224a2.097 2.097 0 0 1-.084.414 2.05 2.05 0 0 1-.094.222c-.035.069-.09.163-.123.21a1.868 1.868 0 0 1-.52.467c-.045.027-.121.068-.171.091s-.135.057-.189.075c-.055.018-.147.042-.207.055a2.02 2.02 0 0 1-.457.035 3.83 3.83 0 0 1-.368-.046 6.405 6.405 0 0 1-.13-.031l.02-.034a.625.625 0 0 1 .2-.183c.034-.018.091-.041.126-.052s.121-.031.193-.046c.072-.015.16-.035.195-.045s.144-.048.238-.086a2.599 2.599 0 0 0 .465-.225 1.148 1.148 0 0 0 .452-.504c.022-.048.05-.122.064-.166s.022-.085.022-.09c0-.005.017-.034.038-.065s.103-.129.182-.219c.116-.132.145-.16.15-.146zm-12.075.813.027.015 4.031 2.285-.081.006c-.044.003-2.153.022-4.686.042s-4.78.04-4.992.043c-.323.005-.385.004-.382-.005.002-.007 1.359-.541 3.043-1.199l3.039-1.187zm14.518.007 3.041 1.188c1.662.649 3.023 1.184 3.025 1.191.004.01-.065.011-.382.005-.212-.004-2.456-.023-4.987-.043s-4.64-.039-4.687-.041c-.047-.003-.081-.008-.076-.012s.918-.522 2.028-1.152c1.725-.977 2.021-1.143 2.038-1.136zm-9.247.61c.015 0 .044.008.066.017s.038.022.038.027c0 .005-.046.041-.101.08s-.14.095-.187.125-.104.064-.171.096l-.193-.191.072-.015c.04-.008.136-.038.216-.066s.164-.055.189-.061a.763.763 0 0 1 .072-.012zm3.978.004c.025.003.13.032.233.067s.213.067.296.083l-.058.058a1.773 1.773 0 0 1-.144.128l-.047-.023a2.5 2.5 0 0 1-.297-.188c-.09-.063-.111-.082-.103-.091a.287.287 0 0 1 .043-.024c.022-.01.046-.013.076-.01zm-6.047 2.456a3.928 3.928 0 0 1 .493.03 1.448 1.448 0 0 1 .4.132 1.053 1.053 0 0 1 .427.404c0 .006-2.146 1.473-4.768 3.262s-4.77 3.249-4.772 3.248c-.003-.002.875-1.315 1.949-2.919s1.961-2.923 1.969-2.931.069-.033.136-.056l.633-.223a87.38 87.38 0 0 1 1.988-.666c.121-.037.299-.089.395-.116.096-.027.228-.059.292-.073s.186-.033.269-.046c.084-.012.199-.026.256-.031l.148-.013c.025-.002.108-.004.184-.004zm8.13.003c.118.002.274.01.346.017a5.714 5.714 0 0 1 .493.076c.066.014.188.044.269.066.082.022.268.078.413.123s.493.157.772.25a80.736 80.736 0 0 1 1.589.546l.368.13c.007.003.895 1.32 1.974 2.926 1.077 1.606 1.958 2.925 1.957 2.93s-2.146-1.453-4.766-3.239-4.766-3.252-4.771-3.256c-.004-.003.023-.047.059-.096s.097-.118.133-.152c.037-.034.097-.083.134-.107s.1-.059.139-.078a1.444 1.444 0 0 1 .292-.098c.042-.009.127-.021.189-.026l.153-.013c.022-.002.137-.002.256 0zm-4.087 1.511c1.524 0 1.909.003 1.907.012-.002.006-.035.022-.075.035a.782.782 0 0 1-.237.033 26.46 26.46 0 0 1-1.14.037c-.283.005-.622.005-.902 0-.247-.004-.566-.013-.709-.018s-.335-.013-.427-.019a.882.882 0 0 1-.233-.03.298.298 0 0 1-.081-.035c-.012-.013.161-.014 1.897-.014zm-1.762.108.065.044a3.276 3.276 0 0 1 .324.257l-.039.179c-.021.099-.051.255-.068.345s-.029.169-.027.17c.002.003.016-.038.031-.09s.059-.191.167-.525l.041.063c.022.035.06.101.125.233l-.32.772c-.176.424-.325.782-.338.817l-.008-.027a7.445 7.445 0 0 1-.068-.556 5.49 5.49 0 0 1-.015-.453c0-.155.005-.339.011-.408s.021-.212.033-.319c.013-.106.032-.247.045-.314s.026-.136.031-.154l.009-.034zm3.533.003a4.005 4.005 0 0 1 .065.342c.01.069.028.208.039.31.018.161.02.232.021.561 0 .243-.004.422-.012.502-.006.069-.022.205-.034.301l-.026.204c-.003.016-.008.03-.012.03s-.154-.352-.66-1.566l.014-.04c.008-.022.036-.077.062-.122s.057-.093.067-.108c.011-.014.022-.022.027-.018s.04.113.08.242l.089.288c.009.03.018.048.02.04.002-.007-.015-.109-.038-.224s-.051-.263-.09-.442l.049-.046c.027-.024.075-.066.108-.092a3.03 3.03 0 0 1 .23-.162zm-2.738.589a1.126 1.126 0 0 1 .203.103c.036.026.05.047.088.123.025.051.046.1.047.11s-.079.232-.177.494c-.098.261-.181.479-.185.485s-.012-.013-.016-.04a3.148 3.148 0 0 1-.047-.44 3.014 3.014 0 0 1 .029-.624c.01-.06.024-.131.032-.16.009-.031.019-.051.027-.051zm1.939 0c.006 0 .017.011.022.024s.017.059.026.101a2.2 2.2 0 0 1 .045.377 4.25 4.25 0 0 1-.045.764c-.005.033-.013.055-.017.049s-.089-.226-.368-.974l.023-.056c.014-.031.036-.078.052-.104s.04-.059.056-.072a.867.867 0 0 1 .206-.108zm-1.287.27c.064-.001.074.002.117.028.026.015.068.044.094.063s.05.039.053.045c.004.006-.048.186-.114.399s-.123.385-.127.381c-.004-.004-.032-.065-.065-.136s-.07-.17-.085-.22c-.014-.049-.033-.12-.04-.157s-.019-.126-.024-.197a1.047 1.047 0 0 1-.003-.153c.006-.018.018-.025.066-.038a.633.633 0 0 1 .128-.015zm.633-.001c.036 0 .096.007.203.031l-.005.144c-.004.083-.014.18-.023.229a1.793 1.793 0 0 1-.196.508c-.004-.004-.059-.18-.242-.773l.019-.016c.011-.009.056-.04.101-.07.08-.053.081-.053.145-.053zm-3.136.778c.059.003.116.008.127.011.017.004-.196.354-2.149 3.536-1.192 1.942-2.171 3.532-2.177 3.533s-.006-.004-.004-.013c.003-.008.245-1.13.54-2.492s.541-2.482.546-2.489a125.132 125.132 0 0 1 2.026-1.68c.101-.081.218-.17.26-.197.042-.026.104-.061.139-.077s.099-.041.144-.057a1.849 1.849 0 0 1 .355-.073c.047-.004.134-.005.193-.003zm5.693-.005.135.008a1.633 1.633 0 0 1 .364.072 1.548 1.548 0 0 1 .315.153c.033.022.141.106.242.188.101.081.333.271.516.422s.597.494 1.509 1.254l.408 1.889.539 2.495c.072.333.127.608.124.606-.005-.001-.983-1.591-2.175-3.533s-2.166-3.533-2.163-3.535c.003-.003.04-.007.083-.01l.105-.007zm-4.879 1.081.086.134a8.153 8.153 0 0 1 .393.677c.027.057.057.129.069.162.017.05.03.195.191 2.158l-.038.092a.636.636 0 0 0-.051.206c-.007.063-.013.13-.013.148s-.004.036-.009.039c-.005.003-.011-.011-.014-.03l-.103-.751c-.055-.395-.103-.74-.109-.767s-.023-.093-.04-.146c-.017-.053-.035-.098-.039-.101s-.009-.002-.009.002l.081 1.223c.044.668.081 1.274.081 1.346s.004.237.009.368a13.803 13.803 0 0 0 .053.814c.01.095.028.247.04.337s.032.219.045.285.026.137.034.193l-.021-.018a.714.714 0 0 1-.125-.166c-.01-.022-.028-.091-.04-.153s-.035-.209-.05-.328c-.014-.118-.037-.325-.049-.458s-.044-.547-.072-.92l-.186-2.508c-.075-1.014-.132-1.834-.128-1.838s.01-.004.013-.001zm4.03-.005c.004 0 .005.017.003.038l-.101 1.398-.174 2.4c-.041.572-.084 1.138-.094 1.256a21.227 21.227 0 0 1-.063.628c-.01.079-.028.2-.04.269s-.03.152-.04.184a.39.39 0 0 1-.077.132.329.329 0 0 1-.07.074c-.008 0-.004-.033.014-.128a10.556 10.556 0 0 0 .083-.562c.008-.066.02-.194.027-.283l.023-.301a45.482 45.482 0 0 1 .104-2.023l.08-1.216c.004-.037.003-.055-.003-.049s-.021.043-.036.085c-.014.042-.033.104-.04.139s-.053.344-.101.686l-.103.749c-.01.069-.021.128-.025.132s-.012-.047-.018-.112c-.007-.066-.016-.136-.021-.159s-.024-.077-.078-.202l.084-1.027c.053-.648.089-1.049.099-1.086.007-.032.031-.097.05-.144s.065-.138.1-.202a12.475 12.475 0 0 1 .329-.55c.046-.07.086-.127.09-.127zm-3.109.691c.004 0 .04.023.079.051l.355.257c.155.113.335.247.4.298s.129.106.145.124c.016.018.03.041.03.051l.009.145c.005.071.019.353.031.626s.025.533.029.576c.004.044.009.079.012.079s.007-.048.012-.106c.004-.057.016-.328.029-.599s.027-.55.032-.619c.005-.069.013-.132.016-.139s.045-.044.092-.082a20.3 20.3 0 0 1 .906-.664c.003 0-.001.083-.006.182l-.03.442-.036.476c-.01.118-.024.278-.032.354s-.02.18-.028.229c-.007.049-.026.128-.04.175s-.045.119-.066.162c-.022.042-.067.115-.102.162s-.102.144-.15.215c-.048.072-.104.147-.124.169s-.048.046-.063.053a.116.116 0 0 1-.072.009c-.025-.003-.085-.021-.135-.04s-.116-.041-.148-.047a.304.304 0 0 0-.108-.002c-.027.004-.094.026-.148.047s-.113.04-.13.043c-.017.002-.043.002-.057-.002s-.043-.022-.066-.044c-.022-.021-.076-.091-.119-.154s-.111-.162-.152-.215c-.04-.055-.09-.129-.11-.166a1.266 1.266 0 0 1-.119-.35 5.728 5.728 0 0 1-.031-.265c-.01-.099-.029-.31-.041-.471l-.04-.57-.022-.335c-.002-.032-.002-.056.002-.056zm.129 1.974c.004 0 .014.025.023.056s.04.105.07.164c.03.059.08.148.11.197s.08.121.108.161c.028.04.084.105.123.147s.083.081.096.088c.013.007.035.013.048.013s.043-.016.071-.039l.105-.086a.58.58 0 0 1 .107-.071.177.177 0 0 1 .108-.019.335.335 0 0 1 .099.023c.022.011.068.043.101.072s.079.066.099.082c.021.016.046.032.056.035s.029.002.042-.001c.013-.003.052-.03.084-.062a1.804 1.804 0 0 0 .266-.347 2.62 2.62 0 0 0 .179-.348c.012-.031.024-.056.028-.056s.01.035.013.078.007.134.007.321l-.041.085c-.022.047-.058.111-.081.144s-.064.084-.093.116c-.03.031-.08.077-.112.102s-.089.074-.126.11c-.039.037-.079.067-.094.071s-.039.004-.052.001c-.013-.003-.046-.016-.072-.028s-.075-.046-.11-.074a.637.637 0 0 0-.103-.068c-.028-.013-.059-.019-.099-.019s-.072.006-.099.018c-.022.011-.066.04-.099.066s-.087.061-.121.078c-.035.017-.075.03-.09.03s-.045-.012-.067-.025-.05-.039-.063-.056c-.013-.017-.053-.053-.09-.081s-.101-.088-.144-.132c-.042-.045-.095-.113-.119-.152s-.055-.101-.098-.206l.005-.157c.003-.086.007-.174.011-.196s.009-.038.013-.038zm-.388 1.413c.004.004.038.1.075.213s.092.264.122.337c.03.073.073.179.098.236s.082.182.128.278c.045.096.126.258.178.362s.098.187.101.186a.253.253 0 0 0 .01-.07.486.486 0 0 1 .105-.257l.041.085c.022.047.047.109.055.139a1.148 1.148 0 0 1 .03.266c-.004.052-.007.063-.031.087a.29.29 0 0 1-.139.068.18.18 0 0 1-.031-.043c-.017-.03-.024-.059-.031-.136-.005-.055-.011-.1-.012-.101s-.037.054-.159.245l-.028-.063-.084-.197a10.297 10.297 0 0 1-.092-.227c-.019-.05-.037-.092-.04-.092s.006.059.02.133c.013.073.046.232.119.575l-.018.02c-.01.011-.057.054-.103.096s-.114.096-.148.12c-.035.023-.068.043-.074.043s-.015-.012-.021-.025c-.005-.013-.021-.083-.035-.154s-.034-.187-.045-.256a8.787 8.787 0 0 1-.064-.597 5.315 5.315 0 0 1-.005-.417c.004-.144.01-.313.015-.377s.018-.186.027-.269l.023-.184c.002-.017.008-.028.012-.022zm2.697-.004c.004 0 .013.049.021.109a7.63 7.63 0 0 1 .054.99c-.004.109-.012.26-.02.337s-.021.205-.031.287a6.62 6.62 0 0 1-.08.48.543.543 0 0 1-.027.094c-.007.012-.012.012-.038-.001-.016-.008-.062-.04-.101-.072s-.104-.088-.216-.196l.011-.052.07-.342c.032-.16.058-.296.058-.305 0-.01-.005-.006-.014.012l-.084.206c-.04.098-.088.217-.149.346l-.076-.121c-.042-.066-.078-.119-.081-.118s-.007.042-.01.091a.376.376 0 0 1-.024.125.58.58 0 0 1-.03.052c-.012.015-.014.015-.057 0a.398.398 0 0 1-.121-.088v-.088c0-.049.007-.125.017-.175a.813.813 0 0 1 .086-.238c.013-.023.027-.04.032-.038s.022.031.039.065c.017.033.036.077.042.097s.014.066.023.17l.153-.305c.084-.168.178-.362.209-.431s.092-.214.136-.323c.043-.109.106-.282.14-.384s.064-.186.067-.186zm-1.346 1.276c.006.002.03.042.054.088a.608.608 0 0 1 .069.269c0 .025.003.045.006.045s.01-.019.013-.042a.869.869 0 0 1 .086-.265c.026-.049.046-.075.051-.071s.022.035.038.069.035.09.042.125.015.105.019.157a.997.997 0 0 1 .001.144.268.268 0 0 1-.035.099c-.017.03-.036.05-.047.052s-.043-.013-.075-.034c-.03-.02-.063-.048-.071-.061s-.018-.047-.024-.123l-.006.049c-.003.027-.013.066-.022.084s-.032.053-.051.074c-.018.021-.04.039-.049.039s-.032-.018-.054-.04c-.021-.022-.044-.053-.051-.067s-.017-.042-.029-.094l-.006.027c-.004.014-.012.037-.019.049s-.034.037-.06.056a.384.384 0 0 1-.07.039c-.019.005-.027.001-.047-.024a.335.335 0 0 1-.039-.07.412.412 0 0 1-.014-.121c0-.045.005-.118.009-.162s.013-.095.019-.112a.93.93 0 0 1 .077-.162.47.47 0 0 1 .054.096.813.813 0 0 1 .067.194c.012.053.023.093.028.09s.006-.03.006-.057a.6.6 0 0 1 .094-.303c.014-.02.03-.038.035-.036zm1.498.967c.003 0-.022.056-.056.123s-.084.16-.112.205c-.028.044-.066.099-.084.121s-.047.048-.064.056-.071.022-.12.029-.171.019-.269.025c-.118.007-.392.011-.799.011-.391 0-.682-.004-.79-.011-.094-.006-.205-.015-.247-.021l-.112-.018c-.025-.007-.05-.025-.085-.061-.027-.029-.077-.098-.11-.154s-.083-.144-.108-.195c-.026-.05-.044-.095-.04-.099s.034.022.067.057c.034.034.082.076.106.092s.066.037.092.047c.026.01.073.022.103.027s.144.014.25.022a11.272 11.272 0 0 0 1.05.028c.175-.003.392-.009.48-.014s.22-.013.292-.019a2.49 2.49 0 0 0 .202-.022.52.52 0 0 0 .13-.041.577.577 0 0 0 .139-.108.99.99 0 0 1 .086-.079z"/></symbol><symbol id="arrow-up-right" viewBox="0 0 34 32"><path fill="#3a3000" style="fill:var(--color1,#3a3000)" d="M13.902 6.457c-.751-.014-1.348.583-1.333 1.333s.634 1.37 1.385 1.385l7.476.141L7.587 23.159a1.25 1.25 0 0 0 1.768 1.768l13.843-13.843.141 7.476c.014.75.634 1.37 1.385 1.385s1.347-.583 1.333-1.333l-.199-10.57a1.423 1.423 0 0 0-1.385-1.385l-10.57-.199z"/></symbol><symbol id="more-vertical" viewBox="0 0 32 32"><path d="M16 10.256c-1.473 0-2.667-1.102-2.667-2.462S14.527 5.332 16 5.332c1.473 0 2.667 1.102 2.667 2.462S17.473 10.256 16 10.256zM16 18.462c-1.473 0-2.667-1.102-2.667-2.462s1.194-2.462 2.667-2.462c1.473 0 2.667 1.102 2.667 2.462S17.473 18.462 16 18.462zM13.333 24.205c0 1.359 1.194 2.462 2.667 2.462s2.667-1.102 2.667-2.462c0-1.359-1.194-2.461-2.667-2.461s-2.667 1.102-2.667 2.461z"/></symbol><symbol id="icon-toggleable-dark" viewBox="0 0 32 32"><path fill="none" stroke="#cdc4ce" style="stroke:var(--color1,#cdc4ce)" stroke-linejoin="round" stroke-linecap="round" stroke-width="1.333" d="M12 12c0-.736.597-1.333 1.333-1.333h5.333c.736 0 1.333.597 1.333 1.333v10l-4-4-4 4V12z"/><path fill="none" stroke="#968e98" style="stroke:var(--color2,#968e98)" stroke-width=".667" d="M16 3c7.18 0 13 5.82 13 13s-5.82 13-13 13S3 23.18 3 16 8.82 3 16 3z"/></symbol><symbol id="icon-container" viewBox="0 0 32 32"><path fill="#cdc4ce" style="fill:var(--color1,#cdc4ce)" d="M21.055 10.208a.75.75 0 0 1 .75.75v3.394a.75.75 0 0 1-1.5 0v-2.644h-2.644a.75.75 0 0 1 0-1.5h3.394zM10.208 10.958a.75.75 0 0 1 .75-.75h3.394a.75.75 0 0 1 0 1.5h-2.644v2.644a.75.75 0 0 1-1.5 0v-3.394zM10.958 21.805a.75.75 0 0 1-.75-.75v-3.394a.75.75 0 0 1 1.5 0v2.644h2.644a.75.75 0 0 1 0 1.5h-3.394zM21.805 21.055a.75.75 0 0 1-.75.75h-3.394a.75.75 0 0 1 0-1.5h2.644v-2.644a.75.75 0 0 1 1.5 0v3.394z"/><path fill="none" stroke="#968e98" style="stroke:var(--color2,#968e98)" stroke-width=".8" d="M16 .4C24.616.4 31.6 7.384 31.6 16S24.616 31.6 16 31.6.4 24.616.4 16 7.384.4 16 .4z"/></symbol><symbol id="icon-btn-minus" viewBox="0 0 32 32"><path fill="#cdc4ce" style="fill:var(--color1,#cdc4ce)" d="M11.333 15.333a.667.667 0 1 0 0 1.334h9.333a.667.667 0 1 0 0-1.334h-9.333z"/><path fill="none" stroke="#968e98" style="stroke:var(--color2,#968e98)" stroke-width=".667" d="M16 3c7.18 0 13 5.82 13 13s-5.82 13-13 13S3 23.18 3 16 8.82 3 16 3z"/></symbol><symbol id="icon-btn-plus" viewBox="0 0 32 32"><path fill="#cdc4ce" style="fill:var(--color1,#cdc4ce)" d="M16.8 10.4a.8.8 0 1 0-1.6 0v4.8h-4.8a.8.8 0 1 0 0 1.6h4.8v4.8a.8.8 0 1 0 1.6 0v-4.8h4.8a.8.8 0 1 0 0-1.6h-4.8v-4.8z"/><path fill="none" stroke="#968e98" style="stroke:var(--color2,#968e98)" stroke-width=".8" d="M16 .4C24.616.4 31.6 7.384 31.6 16S24.616 31.6 16 31.6.4 24.616.4 16 7.384.4 16 .4z"/></symbol><symbol id="icon-save" viewBox="0 0 32 32"><path fill="none" stroke="#cdc4ce" style="stroke:var(--color1,#cdc4ce)" stroke-linejoin="round" stroke-linecap="round" stroke-width="1.333" d="M12 12c0-.736.597-1.333 1.333-1.333h5.333c.736 0 1.333.597 1.333 1.333v10l-4-4-4 4V12z"/><path fill="none" stroke="#968e98" style="stroke:var(--color2,#968e98)" stroke-width=".667" d="M16 3c7.18 0 13 5.82 13 13s-5.82 13-13 13S3 23.18 3 16 8.82 3 16 3z"/></symbol><symbol id="icon-ukr-characters" viewBox="0 0 32 32"><path fill="#005ac2" style="fill:var(--color1,#005ac2)" d="M32 16c0 8.837-7.163 16-16 16S0 24.837 0 16 7.163 0 16 0s16 7.163 16 16z"/><path fill="#e9c400" style="fill:var(--color2,#e9c400)" d="M16 2.667C8.64 2.667 2.667 8.64 2.667 16S8.64 29.333 16 29.333 29.333 23.36 29.333 16 23.36 2.667 16 2.667zm8.48 19.774c-1.907-2.32-6.533-3.107-8.48-3.107s-6.573.787-8.48 3.107a10.6 10.6 0 0 1-2.187-6.44c0-5.88 4.787-10.667 10.667-10.667s10.667 4.787 10.667 10.667a10.6 10.6 0 0 1-2.187 6.44zm-13.147-9.774C11.333 10.08 13.413 8 16 8s4.667 2.08 4.667 4.667c0 2.587-2.08 4.667-4.667 4.667s-4.667-2.08-4.667-4.667z"/></symbol></symbol></defs></svg>