<svg aria-hidden="true" style="width:0;height:0;position:absolute;overflow:hidden" xmlns="http://www.w3.org/2000/svg"><defs><symbol id="icon-arr-btn-up-icon" viewBox="0 0 32 32"><path fill="#e9c400" style="fill:var(--color1,#e9c400)" d="M7.557 16.443a1.333 1.333 0 0 1 0-1.886l7.333-7.333a1.333 1.333 0 0 1 1.886 0l7.333 7.333a1.333 1.333 0 1 1-1.886 1.886l-6.391-6.391-6.391 6.391a1.333 1.333 0 0 1-1.886 0z"/><path fill="#e9c400" style="fill:var(--color1,#e9c400)" d="M7.557 24.109a1.333 1.333 0 0 1 0-1.886l7.333-7.333a1.333 1.333 0 0 1 1.886 0l7.333 7.333a1.333 1.333 0 1 1-1.886 1.886l-6.391-6.391-6.391 6.391a1.333 1.333 0 0 1-1.886 0z"/></symbol><symbol id="icon-arrow-right-icon" viewBox="0 0 32 32"><path fill="#adc6ff" style="fill:var(--color2,#adc6ff)" d="M20.526 7.406c-.521-.541-1.365-.541-1.886 0s-.521 1.417 0 1.958l5.187 5.386H4.25a1.25 1.25 0 0 0 0 2.5h19.577l-5.187 5.386c-.521.541-.521 1.417 0 1.958s1.365.541 1.886 0l7.333-7.615a1.422 1.422 0 0 0 0-1.958l-7.333-7.615z"/></symbol><symbol id="icon-arrow-up-icon" viewBox="0 0 32 32"><path fill="#968e98" style="fill:var(--color3,#968e98)" d="M13.013 6.457c-.751-.014-1.348.583-1.333 1.333s.634 1.37 1.385 1.385l7.476.141L6.698 23.159a1.25 1.25 0 0 0 1.768 1.768l13.843-13.843.141 7.476c.014.75.634 1.37 1.385 1.385s1.348-.583 1.333-1.333l-.199-10.57a1.424 1.424 0 0 0-1.385-1.385l-10.57-.199z"/></symbol><symbol id="icon-menu-Icon" viewBox="0 0 32 32"><path fill="#c4c7c7" style="fill:var(--color4,#c4c7c7)" d="M2.75 8c0-.69.56-1.25 1.25-1.25h24a1.25 1.25 0 0 1 0 2.5H4c-.69 0-1.25-.56-1.25-1.25zM2.75 16c0-.69.56-1.25 1.25-1.25h24a1.25 1.25 0 0 1 0 2.5H4c-.69 0-1.25-.56-1.25-1.25zM2.75 24c0-.69.56-1.25 1.25-1.25h24a1.25 1.25 0 0 1 0 2.5H4c-.69 0-1.25-.56-1.25-1.25z"/></symbol><symbol id="icon-patreon" viewBox="0 0 32 32"><path fill="#e9c400" style="fill:var(--color1,#e9c400)" d="M2.667 29.333H8V2.666H2.667v26.667zM20.015 2.667c-5.155 0-9.348 4.193-9.348 9.347 0 5.139 4.193 9.319 9.348 9.319 5.138 0 9.319-4.181 9.319-9.319 0-5.154-4.18-9.347-9.319-9.347z"/></symbol><symbol id="icon-search-Icon" viewBox="0 0 32 32"><path fill="#c4c7c7" style="fill:var(--color4,#c4c7c7)" d="m19.277 21.163 7.78 7.78a1.333 1.333 0 1 0 1.886-1.886l-7.601-7.601A9.964 9.964 0 0 0 24 12.666c0-5.523-4.477-10-10-10s-10 4.477-10 10 4.477 10 10 10a9.957 9.957 0 0 0 5.277-1.504zm2.056-8.496a7.333 7.333 0 1 1-14.666 0 7.333 7.333 0 0 1 14.666 0z"/></symbol><symbol id="icon-telegram" viewBox="0 0 32 32"><path fill="#d8e2ff" style="fill:var(--color5,#d8e2ff)" d="m13.114 19.412-.417 5.962c.613 0 .884-.267 1.226-.585l2.945-2.732 6.128 4.318c1.128.593 1.942.286 2.223-.999l4.023-18.081c.412-1.575-.629-2.289-1.708-1.822L3.913 14.161c-1.612.617-1.603 1.475-.294 1.857l6.062 1.805 14.034-8.445c.663-.383 1.271-.177.771.245l-11.371 9.788z"/></symbol><symbol id="icon-TikTok" viewBox="0 0 32 32"><path fill="#ffe16d" style="fill:var(--color6,#ffe16d)" d="M22.273 1.333h-5.261v19.981c0 2.381-2.023 4.336-4.542 4.336s-4.542-1.956-4.542-4.336c0-2.338 1.979-4.251 4.407-4.336v-5.016c-5.351.085-9.668 4.209-9.668 9.353 0 5.187 4.407 9.353 9.848 9.353s9.848-4.209 9.848-9.353V11.07a12.712 12.712 0 0 0 6.97 2.211V8.265c-3.957-.128-7.06-3.188-7.06-6.929z"/></symbol><symbol id="icon-Twitter" viewBox="0 0 32 32"><path fill="#9ff798" style="fill:var(--color7,#9ff798)" d="M23.668 4h4.089l-8.933 10.166L29.333 28h-8.229l-6.445-8.39L7.284 28H3.192l9.555-10.874L2.665 4h8.438l5.826 7.669L23.667 4zm-1.435 21.563h2.266L9.873 6.309H7.442l14.791 19.254z"/><symbol id="icon-logo-hed" viewBox="0 0 32 32"><path fill="#005ac2" style="fill:var(--color1,#005ac2)" d="M32 16c0 8.837-7.163 16-16 16S0 24.837 0 16 7.163 0 16 0s16 7.163 16 16z"/><path fill="#e9c400" style="fill:var(--color2,#e9c400)" d="m19.843 2.667.005.006-1.956 1.812 2.067-.21-.862 1.683 2.131-.898c1.464 3.91.035 8.621-2.943 9.291-.367-1.418-1.911-2.12-2.019-3.206l.051.015c.271.072.545.066.799-.004l1.408 1.279 1.157-.915c-.412.158-1.601-.078-1.862-.778a1.504 1.504 0 0 0 .428-.97l.421.896.517-.57c.427.312.699.76.643 1.181 0 0 .934-.905.934-1.643 0-.447-4.04-1.652-4.04-1.652L13.471 5.3l.958 1.746-2.7-1.104 1.968 1.746c-2.274 1.573-1.237 4.752-.101 6.666-3.22-.541-5.775-4.327-5.363-8.104l2.756-1.194-1.74-.287 1.636-1.867-1.793.645.006-.011C-.33 7.243 2.579 24.044 5.529 26.893l-.03-.215c-.836-3.143-1.141-7.02-.98-10.647.169-3.813.831-7.329 2.06-9.473l.908.519c-1.058 1.845-1.758 5.284-1.923 9-.109 2.451.006 5.03.351 7.381.343.106.843.537 1.529 1.299a5.887 5.887 0 0 1-.363-2.139c1.136 2.328 3.771 3.869 5.859 3.482 1.257-.233 2.341-.711 3.237-1.368l.409.862c-1.124.281-1.277 1.824-.825 3.08.098-1.111.636-1.665 1.217-1.805-.369.887-.263 1.711-.175 2.468.568-.679 1.202-1.33 1.323-2.199.489.41.69 1.201.067 2.183 1.474-.865 1.768-2.347.447-3.223l-1.796-1.917c.331-.31.629-.648.893-1.01l2.2.882c-.221.765.327 1.761 1.107 2.42-.451-.966-.27-1.681.143-2.073.091.972.596 1.631 1.049 2.239.153-.875.38-1.76-.012-2.57.617.087 1.187.646 1.139 1.781.804-1.415.342-2.777-1.162-2.879l-3.984-.553c.714-1.284 1.046-2.784.953-4.329.795-1.939 2.803-.66 3.053 2.747 1.536-4.49 3.757-2.158 3.294 1.37.661-1.306 1.223-1.956 1.672-2.025-.603-5.137-2.266-10.705-4.348-14.012l.886-.556c2.818 4.476 4.766 12.33 4.753 18.527 2.375-6.477-.131-19.927-8.64-21.469zm-1.65 26.65-.001.001-.001.003.002-.003zM16.692 9.188a.486.486 0 0 1 .149.018c.267.072.418.332.346.599s-.333.417-.6.346-.418-.332-.347-.599a.483.483 0 0 1 .404-.36l.048-.004zm-3.573 9.102c.665-.011 1.268.378 1.466 1.257-.001 2.005-.535 3.846-2.36 4.326-1.547.407-3.905-.637-4.711-2.999.688-1.178 2.092-1.229 3.519 1.262-.705-2.324.806-3.825 2.086-3.846z"/></symbol><symbol id="icon-arr-nav" viewBox="0 0 32 32"><path d="m16 21-6.928-7.5h13.856L16 21z"/></symbol><symbol id="youtube-white-icon" viewBox="0 0 32 32"><path d="M31.681 9.179s-.313-2.353-1.275-3.386c-1.219-1.36-2.581-1.366-3.206-1.446C22.725 4 16.006 4 16.006 4h-.012S9.275 4 4.8 4.347c-.625.08-1.987.087-3.206 1.446C.631 6.826.325 9.179.325 9.179S0 11.945 0 14.704v2.586c0 2.759.319 5.525.319 5.525s.312 2.353 1.269 3.386c1.219 1.36 2.819 1.313 3.531 1.46 2.563.26 10.881.34 10.881.34s6.725-.013 11.2-.353c.625-.08 1.988-.087 3.206-1.446.962-1.033 1.275-3.386 1.275-3.386S32 20.057 32 17.291v-2.586c0-2.759-.319-5.525-.319-5.525zm-18.987 11.25v-9.591l8.644 4.812-8.644 4.779z"/></symbol><symbol id="icon-dragon" viewBox="0 0 32 32"><path d="M24.627 1.929c.564-.327 1.108-.596 1.201-.596s.232.086.299.202a.99.99 0 0 1 .119.509.792.792 0 0 1-.173.49c-.093.106-.478.519-.856.922s-1.062 1.211-1.52 1.787-1.181 1.585-1.613 2.248c-.438.653-.843 1.297-.909 1.432l-.119.24c1.148.327 1.752.538 2.077.673s.896.404 1.261.596 1.049.634 1.527.99a17.55 17.55 0 0 1 1.507 1.249c.405.384.684.73.73.894.073.231.066.298-.053.528-.139.259-.139.259-1.128.279l-.989.029c1.235 1.825 1.785 2.7 2.018 3.123.239.423.657 1.268.936 1.874.272.605.67 1.576.876 2.162.199.586.478 1.46.611 1.95.133.48.239.99.239 1.124s-.066.327-.146.432c-.086.106-.219.192-.299.192-.086 0-.412-.25-.73-.557-.325-.307-.717-.682-.883-.817-.166-.144-.319-.259-.345-.259-.033 0 .086.336.259.749.166.404.511 1.345.757 2.085s.551 1.778.684 2.306c.126.528.166 1.432.259 1.902h-.943l-.173-1.086v-.24c-.133-.529-.491-1.691-.797-2.594s-.79-2.152-1.082-2.786a33.336 33.336 0 0 0-.836-1.729c-.166-.317-.312-.663-.312-.769s.053-.288.119-.403c.066-.115.186-.231.272-.259.099-.038.372.115.896.5.405.307.969.759 1.241.999.272.25.505.404.518.356.007-.048-.139-.49-.325-.97-.193-.49-.518-1.259-.723-1.71s-.571-1.163-.803-1.585a26.762 26.762 0 0 0-1.082-1.768 27.55 27.55 0 0 0-1.248-1.701c-.511-.625-.584-.749-.584-1.018-.007-.183.046-.394.113-.48.08-.115.325-.211.717-.279.332-.067.631-.154.664-.192.04-.038-.199-.25-.531-.471a19.615 19.615 0 0 0-1.228-.749c-.345-.183-.823-.423-1.062-.519s-.757-.288-1.161-.413a15.638 15.638 0 0 0-1.148-.307c-.265-.048-.412-.038-.412.019.007.048.325.528.71 1.057s.889 1.307 1.115 1.729c.226.423.571 1.115.763 1.537s.518 1.287.73 1.922.498 1.605.631 2.162c.133.557.332 1.528.438 2.162s.252 1.739.325 2.45c.073.711.159 2.095.199 3.075.049 1.169.041 1.744 0 2.979-.003.105-.027.982-.031 1.086h-1.193v-.127c-.001-.268-.008-.858 0-.959.072-.932.337-2.166.302-2.979-.04-.922-.133-2.267-.206-2.978s-.239-1.883-.372-2.594a34.543 34.543 0 0 0-.491-2.258 28.287 28.287 0 0 0-.571-1.825 28.293 28.293 0 0 0-.743-1.826c-.292-.634-.73-1.383-1.294-2.21l-.85-1.249c-.226.519-.411.97-.557 1.345-.206.519-.332.721-.564.913-.232.183-.392.24-.73.24-.332-.01-.504-.067-.763-.259-.179-.135-.451-.442-.604-.673a6.147 6.147 0 0 1-.385-.653 1.514 1.514 0 0 1-.106-.528c0-.183.133-.625.365-1.182.199-.48.358-.903.352-.932-.013-.019-.272-.067-.584-.106a4.785 4.785 0 0 0-1.261.058c-.385.058-.969.211-1.294.336s-.883.394-1.228.596-.929.605-1.288.894c-.365.288-.796.73-.962.97s-.358.586-.418.769c-.066.183-.192.605-.279.951-.113.423-.246.73-.418.942-.146.183-1.181.97-2.409 1.825l-2.157 1.509c-1.473.01-1.706.048-1.872.173-.119.086-.246.25-.285.355s-.066.288-.066.404c0 .125.106.692.232 1.278s.259 1.124.292 1.201c.06.125.418.048 2.741-.577 1.473-.394 2.768-.711 2.874-.701.126 0 .246.096.319.231.066.125.119.307.113.394 0 .096-.066.279-.146.413-.139.221-.358.298-2.741.922-1.42.375-2.595.701-2.602.721-.013.019.02.125.066.221.04.106.186.298.312.442.126.135.385.307.564.384.186.087.465.144.631.144s.571-.077.896-.163a5.562 5.562 0 0 1 1.394-.144c.524 0 1.288.115 2.257.317 1.228.259 1.653.317 2.655.317 1.069 0 1.288-.029 2.058-.279.624-.192 1.042-.269 1.493-.269.465.01.743.067 1.062.221.239.106.584.346.763.529.186.173.438.509.564.74s.305.673.411.99c.1.317.226.836.285 1.153.053.317.119.942.139 1.393v.096c-.006.078.011.943 0 1.057h-4.639c.073-.557.106-1.268.106-2.21-.007-.769-.033-1.585-.066-1.826-.053-.375-.08-.432-.219-.423-.093 0-.478.067-.863.135a6.518 6.518 0 0 1-1.527.067c-.458-.038-1.487-.192-2.29-.355s-1.746-.307-2.091-.317c-.358-.01-1.002.058-1.493.163-.71.154-.949.173-1.327.086a2.889 2.889 0 0 1-.889-.375 2.632 2.632 0 0 1-.763-.807c-.192-.288-.458-.807-.591-1.153s-.378-1.23-.551-1.97c-.166-.74-.325-1.585-.345-1.873-.027-.442-.007-.615.133-1.057.1-.298.279-.644.411-.797.133-.144.365-.327.524-.423.206-.115.478-.154 1.042-.144l.763.01c3.192-2.229 4.162-2.95 4.221-3.046.06-.086.159-.384.226-.644.06-.269.192-.672.285-.913s.319-.663.504-.942c.186-.288.518-.682.737-.874.219-.202.644-.548.949-.769.299-.211.763-.519 1.029-.673.259-.154.75-.384 1.075-.519s.823-.298 1.095-.365c.272-.077.916-.125 1.427-.125s1.102.048 1.314.115l.378.115c1.155-1.605 1.812-2.412 2.204-2.834a25.771 25.771 0 0 1 1.394-1.393c.378-.336 1.102-.922 1.613-1.297s1.394-.951 1.958-1.278zm-5.443 8.58c.246-.528.697-1.412 1.002-1.97s.962-1.605 1.453-2.335c.491-.73.869-1.316.83-1.316s-.352.25-.697.557c-.345.298-.989.932-1.427 1.403s-1.175 1.403-1.633 2.066c-.524.769-.982 1.537-1.241 2.095-.226.49-.411.932-.411.99s.099.231.219.394c.113.154.319.336.445.394.126.048.299.067.385.038.093-.038.232-.288.392-.701.133-.365.438-1.086.684-1.614zm-1.911 16.17c-.106-.173-.352-.423-.551-.548s-.524-.259-.723-.298a2.536 2.536 0 0 0-.597-.019c-.126.029-.239.048-.246.058s.02.231.06.49c.033.269.066 1.095.086 3.219h2.688l-.04-.355c-.02-.202-.08-.615-.133-.913-.053-.307-.153-.73-.226-.942s-.219-.528-.319-.692z"/><path d="M12.985 14.496a.57.57 0 0 0-.372.183 3.767 3.767 0 0 1-.465.394c-.166.125-.524.298-.796.404-.279.096-.538.25-.584.346s-.08.279-.08.403c0 .135.066.346.153.461.08.125.206.221.279.221s.312-.067.531-.154c.219-.077.604-.288.863-.461.252-.173.558-.432.677-.577a.892.892 0 0 0 .232-.557c.007-.192-.04-.375-.113-.48a.454.454 0 0 0-.325-.183zM24 30.667l-5.108-.029c.011-.113-.006-.979 0-1.057H24c-.008.101-.001.69 0 .959v.127zM28.224 30.667c-.325-.336-.65-.452-.743-.471-.093-.029-.232.01-.312.096a.757.757 0 0 0-.171.375h-1.804c.004-.103.028-.981.031-1.086h1.443c.034-.171.253-.393.502-.393.417 0 1.055.393 1.055.393h.883l.173 1.086h-1.055z"/><path stroke-width=".667" d="M18.892 30.638h-4.639c.073-.557.106-1.268.106-2.21-.007-.769-.033-1.585-.066-1.826-.053-.375-.08-.432-.219-.423-.093 0-.478.067-.863.135a6.518 6.518 0 0 1-1.527.067c-.458-.038-1.487-.192-2.29-.355s-1.746-.307-2.091-.317c-.358-.01-1.002.058-1.493.163-.71.154-.949.173-1.327.086a2.889 2.889 0 0 1-.889-.375 2.632 2.632 0 0 1-.763-.807c-.192-.288-.458-.807-.591-1.153s-.378-1.23-.551-1.97c-.166-.74-.325-1.585-.345-1.873-.027-.442-.007-.615.133-1.057.1-.298.279-.644.411-.797.133-.144.365-.327.524-.423.206-.115.478-.154 1.042-.144l.763.01c3.192-2.229 4.162-2.95 4.221-3.046.06-.086.159-.384.226-.644.06-.269.192-.672.285-.913s.319-.663.504-.942c.186-.288.518-.682.737-.874.219-.202.644-.548.949-.769.299-.211.763-.519 1.029-.673.259-.154.75-.384 1.075-.519s.823-.298 1.095-.365c.272-.077.916-.125 1.427-.125s1.102.048 1.314.115l.378.115c1.155-1.605 1.812-2.412 2.204-2.834a25.771 25.771 0 0 1 1.394-1.393c.378-.336 1.102-.922 1.613-1.297s1.394-.951 1.958-1.278c.564-.327 1.108-.596 1.201-.596s.232.086.299.202a.99.99 0 0 1 .119.509.792.792 0 0 1-.173.49c-.093.106-.478.519-.856.922s-1.062 1.211-1.52 1.787-1.181 1.585-1.613 2.248c-.438.653-.843 1.297-.909 1.432l-.119.24c1.148.327 1.752.538 2.077.673s.896.404 1.261.596 1.049.634 1.527.99a17.55 17.55 0 0 1 1.507 1.249c.405.384.684.73.73.894.073.231.066.298-.053.528-.139.259-.139.259-1.128.279l-.989.029c1.235 1.825 1.785 2.7 2.018 3.123.239.423.657 1.268.936 1.874.272.605.67 1.576.876 2.162.199.586.478 1.46.611 1.95.133.48.239.99.239 1.124s-.066.327-.146.432c-.086.106-.219.192-.299.192-.086 0-.412-.25-.73-.557-.325-.307-.717-.682-.883-.817-.166-.144-.319-.259-.345-.259-.033 0 .086.336.259.749.166.404.511 1.345.757 2.085s.551 1.778.684 2.306c.126.528.166 1.432.259 1.902h-.943m-10.388-.027 5.108.029m-5.108-.029c.011-.113-.006-.979 0-1.057M24 30.667h1.193m-1.193 0v-.127m0 .127v-.127m1.193.127h1.804a.76.76 0 0 1 .171-.375c.08-.087.219-.125.312-.096.093.019.418.135.743.471h1.055m-4.085 0c.004-.103.028-.981.031-1.086m4.055 1.086-.173-1.086m-5.106 0c.072-.932.337-2.166.302-2.979-.04-.922-.133-2.267-.206-2.978s-.239-1.883-.372-2.594a34.543 34.543 0 0 0-.491-2.258 28.287 28.287 0 0 0-.571-1.825 28.293 28.293 0 0 0-.743-1.826c-.292-.634-.73-1.383-1.294-2.21l-.85-1.249c-.226.519-.411.97-.557 1.345-.206.519-.332.721-.564.913-.232.183-.392.24-.73.24-.332-.01-.504-.067-.763-.259-.179-.135-.451-.442-.604-.673a6.147 6.147 0 0 1-.385-.653 1.514 1.514 0 0 1-.106-.528c0-.183.133-.625.365-1.182.199-.48.358-.903.352-.932-.013-.019-.272-.067-.584-.106a4.785 4.785 0 0 0-1.261.058c-.385.058-.969.211-1.294.336s-.883.394-1.228.596-.929.605-1.288.894c-.365.288-.796.73-.962.97s-.358.586-.418.769c-.066.183-.192.605-.279.951-.113.423-.246.73-.418.942-.146.183-1.181.97-2.409 1.825l-2.157 1.509c-1.473.01-1.706.048-1.872.173-.119.086-.246.25-.285.355s-.066.288-.066.404c0 .125.106.692.232 1.278s.259 1.124.292 1.201c.06.125.418.048 2.741-.577C7 21.117 8.295 20.8 8.401 20.81c.126 0 .246.096.319.231.066.125.119.307.113.394 0 .096-.066.279-.146.413-.139.221-.358.298-2.741.922-1.42.375-2.595.701-2.602.721-.013.019.02.125.066.221.04.106.186.298.312.442.126.135.385.307.564.384.186.087.465.144.631.144s.571-.077.896-.163a5.562 5.562 0 0 1 1.394-.144c.524 0 1.288.115 2.257.317 1.228.259 1.653.317 2.655.317 1.069 0 1.288-.029 2.058-.279.624-.192 1.042-.269 1.493-.269.465.01.743.067 1.062.221.239.106.584.346.763.529.186.173.438.509.564.74s.305.673.411.99c.1.317.226.836.285 1.153.053.317.119.942.139 1.393v.096M24 29.581h-5.108m5.108 0c-.008.101-.001.69 0 .959m0-.959v.959m1.224-.959c.041-1.235.049-1.81 0-2.979-.04-.98-.126-2.363-.199-3.075s-.219-1.816-.325-2.45c-.106-.634-.305-1.605-.438-2.162s-.418-1.528-.631-2.162-.538-1.499-.73-1.922c-.192-.423-.538-1.115-.763-1.537s-.73-1.201-1.115-1.729-.704-1.009-.71-1.057c0-.058.146-.067.412-.019.232.048.743.183 1.148.307s.923.317 1.161.413.717.336 1.062.519c.345.192.903.528 1.228.749.332.221.571.432.531.471-.033.038-.332.125-.664.192-.392.067-.637.163-.717.279-.066.086-.119.298-.113.48 0 .269.073.394.584 1.018a27.25 27.25 0 0 1 1.248 1.701c.365.548.856 1.345 1.082 1.768.232.423.597 1.134.803 1.585s.531 1.22.723 1.71c.186.48.332.922.325.97-.013.048-.246-.106-.518-.356-.272-.24-.836-.692-1.241-.999-.524-.384-.797-.538-.896-.5-.086.029-.206.144-.272.259s-.119.298-.119.403c0 .106.146.452.312.769.173.317.551 1.095.836 1.729.292.634.777 1.883 1.082 2.786s.664 2.066.797 2.594v.24m-3.883.005h1.443c.034-.171.253-.393.502-.393.417 0 1.055.393 1.055.393h.883m-8.92-21.042c-.305.557-.757 1.441-1.002 1.97s-.551 1.249-.684 1.614c-.159.413-.299.663-.392.701-.086.029-.259.01-.385-.038-.126-.058-.332-.24-.445-.394-.119-.163-.219-.336-.219-.394s.186-.5.411-.99c.259-.557.717-1.326 1.241-2.095.458-.663 1.195-1.595 1.633-2.066s1.082-1.105 1.427-1.403c.345-.307.657-.557.697-.557s-.339.586-.83 1.316c-.491.73-1.148 1.777-1.453 2.335zm-3.465 17.593c.199.125.445.375.551.548.099.163.245.48.319.692s.173.634.226.942c.053.298.113.711.133.913l.04.355h-2.688c-.02-2.123-.053-2.95-.086-3.219-.04-.259-.066-.48-.06-.49s.119-.029.246-.058a2.59 2.59 0 0 1 .597.019c.199.038.524.173.723.298zm-3.737-11.636a.57.57 0 0 0-.372.183 3.767 3.767 0 0 1-.465.394c-.166.125-.524.298-.796.404-.279.096-.538.25-.584.346s-.08.279-.08.403c0 .135.066.346.153.461.08.125.206.221.279.221s.312-.067.531-.154c.219-.077.604-.288.863-.461.252-.173.558-.432.677-.577a.892.892 0 0 0 .232-.557c.007-.192-.04-.375-.113-.48a.454.454 0 0 0-.325-.183z"/></symbol><symbol id="icon-home" viewBox="0 0 32 32"><path d="M15.114 3.003a1.334 1.334 0 0 1 1.772 0l12 10.667a1.333 1.333 0 0 1-1.771 1.993l-.447-.398v11.401a2.667 2.667 0 0 1-2.667 2.667h-16a2.667 2.667 0 0 1-2.667-2.667V15.265l-.448.398a1.333 1.333 0 1 1-1.771-1.993l12-10.667zM8 12.895v13.772h4v-9.333a2.667 2.667 0 0 1 2.667-2.667h2.667a2.667 2.667 0 0 1 2.667 2.667v9.333h4V12.895l-8-7.111-8 7.111zm9.333 13.772v-9.333h-2.667v9.333h2.667z"/><path d="M12 26.667H8V12.895l8-7.111 8 7.111v13.772h-4v-9.333a2.667 2.667 0 0 0-2.667-2.667h-2.667a2.667 2.667 0 0 0-2.667 2.667v9.333z"/></symbol><symbol id="icon-users" viewBox="0 0 32 32"><path d="M13.486 15.495A5.517 5.517 0 0 0 16 10.875c0-3.06-2.513-5.541-5.614-5.541s-5.614 2.481-5.614 5.541c0 1.929.999 3.628 2.514 4.62C3.064 16.796 0 20.686 0 25.282c0 .765.628 1.385 1.403 1.385s1.403-.62 1.403-1.385c0-4.131 3.393-7.481 7.579-7.481s7.579 3.349 7.579 7.481c0 .765.628 1.385 1.403 1.385s1.404-.62 1.404-1.385c0-1.843-.493-3.573-1.356-5.068 1.029-.806 2.383-1.304 3.882-1.304 3.363 0 5.895 2.459 5.895 5.264 0 .765.628 1.385 1.404 1.385s1.403-.62 1.403-1.385c0-3.464-2.332-6.32-5.524-7.479a4.41 4.41 0 0 0 1.875-3.603c0-2.448-2.011-4.433-4.491-4.433s-4.491 1.985-4.491 4.433c0 1.339.601 2.539 1.552 3.352a8.945 8.945 0 0 0-3.21 1.571 10.407 10.407 0 0 0-4.224-2.518zm-.293-4.621c0 1.53-1.257 2.771-2.807 2.771s-2.807-1.24-2.807-2.771c0-1.53 1.257-2.771 2.807-2.771s2.807 1.24 2.807 2.771zm10.667 3.879c.93 0 1.684-.744 1.684-1.662s-.754-1.662-1.684-1.662c-.93 0-1.684.744-1.684 1.662s.754 1.662 1.684 1.662z"/></symbol><symbol id="icon-A" viewBox="0 0 32 32"><path d="M24.364 2.667C26.372 2.667 28 4.159 28 6v19c0 .552-.488 1-1.091 1H6.182c0 .736.651 1.333 1.455 1.333H26.91c.603 0 1.091.448 1.091 1s-.488 1-1.091 1H7.637c-2.008 0-3.636-1.492-3.636-3.333V6c0-1.841 1.628-3.333 3.636-3.333h16.727zm0 2H7.637c-.803 0-1.455.597-1.455 1.333v18h19.636V6c0-.736-.651-1.333-1.455-1.333zm-8 3.333c.444 0 .844.247 1.011.624l4.727 10.667c.227.512-.042 1.095-.6 1.303s-1.194-.038-1.421-.55l-1.201-2.71h-5.031l-1.201 2.71c-.227.512-.863.758-1.421.55s-.827-.791-.6-1.303l4.727-10.667c.167-.377.567-.624 1.011-.624zm0 3.657-1.629 3.676h3.259l-1.629-3.676z"/></symbol><symbol id="icon-btn-close" viewBox="0 0 32 32"><path fill="#4b454d" style="fill:var(--color1,#4b454d)" d="M19.803 21.071a.897.897 0 0 0 1.268-1.268L17.268 16l3.803-3.803a.897.897 0 0 0-1.268-1.268L16 14.732l-3.803-3.803a.897.897 0 0 0-1.268 1.268L14.732 16l-3.803 3.803a.897.897 0 0 0 1.268 1.268L16 17.268l3.803 3.803z"/><path fill="#4b454d" style="fill:var(--color1,#4b454d)" d="M29.333 16c0-7.364-5.97-13.333-13.333-13.333S2.667 8.637 2.667 16 8.637 29.333 16 29.333c7.364 0 13.333-5.97 13.333-13.333zm-2.667 0c0 5.891-4.776 10.667-10.667 10.667S5.332 21.891 5.332 16 10.108 5.333 15.999 5.333 26.666 10.109 26.666 16z"/></symbol></symbol></defs></svg>