<svg aria-hidden="true" style="width:0;height:0;position:absolute;overflow:hidden" xmlns="http://www.w3.org/2000/svg"><defs><symbol id="icon-arr-btn-up-icon" viewBox="0 0 32 32"><path fill="#e9c400" style="fill:var(--color1,#e9c400)" d="M7.557 16.443a1.333 1.333 0 0 1 0-1.886l7.333-7.333a1.333 1.333 0 0 1 1.886 0l7.333 7.333a1.333 1.333 0 1 1-1.886 1.886l-6.391-6.391-6.391 6.391a1.333 1.333 0 0 1-1.886 0z"/><path fill="#e9c400" style="fill:var(--color1,#e9c400)" d="M7.557 24.109a1.333 1.333 0 0 1 0-1.886l7.333-7.333a1.333 1.333 0 0 1 1.886 0l7.333 7.333a1.333 1.333 0 1 1-1.886 1.886l-6.391-6.391-6.391 6.391a1.333 1.333 0 0 1-1.886 0z"/></symbol><symbol id="icon-arrow-right-icon" viewBox="0 0 32 32"><path fill="#adc6ff" style="fill:var(--color2,#adc6ff)" d="M20.526 7.406c-.521-.541-1.365-.541-1.886 0s-.521 1.417 0 1.958l5.187 5.386H4.25a1.25 1.25 0 0 0 0 2.5h19.577l-5.187 5.386c-.521.541-.521 1.417 0 1.958s1.365.541 1.886 0l7.333-7.615a1.422 1.422 0 0 0 0-1.958l-7.333-7.615z"/></symbol><symbol id="icon-arrow-up-icon" viewBox="0 0 32 32"><path fill="#968e98" style="fill:var(--color3,#968e98)" d="M13.013 6.457c-.751-.014-1.348.583-1.333 1.333s.634 1.37 1.385 1.385l7.476.141L6.698 23.159a1.25 1.25 0 0 0 1.768 1.768l13.843-13.843.141 7.476c.014.75.634 1.37 1.385 1.385s1.348-.583 1.333-1.333l-.199-10.57a1.424 1.424 0 0 0-1.385-1.385l-10.57-.199z"/></symbol><symbol id="icon-menu-Icon" viewBox="0 0 32 32"><path fill="#c4c7c7" style="fill:var(--color4,#c4c7c7)" d="M2.75 8c0-.69.56-1.25 1.25-1.25h24a1.25 1.25 0 0 1 0 2.5H4c-.69 0-1.25-.56-1.25-1.25zM2.75 16c0-.69.56-1.25 1.25-1.25h24a1.25 1.25 0 0 1 0 2.5H4c-.69 0-1.25-.56-1.25-1.25zM2.75 24c0-.69.56-1.25 1.25-1.25h24a1.25 1.25 0 0 1 0 2.5H4c-.69 0-1.25-.56-1.25-1.25z"/></symbol><symbol id="icon-patreon-icon" viewBox="0 0 32 32"><path fill="#e9c400" style="fill:var(--color1,#e9c400)" d="M2.667 29.333H8V2.666H2.667v26.667zM20.015 2.667c-5.155 0-9.348 4.193-9.348 9.347 0 5.139 4.193 9.319 9.348 9.319 5.138 0 9.319-4.181 9.319-9.319 0-5.154-4.18-9.347-9.319-9.347z"/></symbol><symbol id="icon-search-Icon" viewBox="0 0 32 32"><path fill="#c4c7c7" style="fill:var(--color4,#c4c7c7)" d="m19.277 21.163 7.78 7.78a1.333 1.333 0 1 0 1.886-1.886l-7.601-7.601A9.964 9.964 0 0 0 24 12.666c0-5.523-4.477-10-10-10s-10 4.477-10 10 4.477 10 10 10a9.957 9.957 0 0 0 5.277-1.504zm2.056-8.496a7.333 7.333 0 1 1-14.666 0 7.333 7.333 0 0 1 14.666 0z"/></symbol><symbol id="icon-telegram-icon" viewBox="0 0 32 32"><path fill="#d8e2ff" style="fill:var(--color5,#d8e2ff)" d="m13.114 19.412-.417 5.962c.613 0 .884-.267 1.226-.585l2.945-2.732 6.128 4.318c1.128.593 1.942.286 2.223-.999l4.023-18.081c.412-1.575-.629-2.289-1.708-1.822L3.913 14.161c-1.612.617-1.603 1.475-.294 1.857l6.062 1.805 14.034-8.445c.663-.383 1.271-.177.771.245l-11.371 9.788z"/></symbol><symbol id="icon-TikTok-icon" viewBox="0 0 32 32"><path fill="#ffe16d" style="fill:var(--color6,#ffe16d)" d="M22.273 1.333h-5.261v19.981c0 2.381-2.023 4.336-4.542 4.336s-4.542-1.956-4.542-4.336c0-2.338 1.979-4.251 4.407-4.336v-5.016c-5.351.085-9.668 4.209-9.668 9.353 0 5.187 4.407 9.353 9.848 9.353s9.848-4.209 9.848-9.353V11.07a12.712 12.712 0 0 0 6.97 2.211V8.265c-3.957-.128-7.06-3.188-7.06-6.929z"/></symbol><symbol id="icon-Twitter-icon" viewBox="0 0 32 32"><path fill="#9ff798" style="fill:var(--color7,#9ff798)" d="M23.668 4h4.089l-8.933 10.166L29.333 28h-8.229l-6.445-8.39L7.284 28H3.192l9.555-10.874L2.665 4h8.438l5.826 7.669L23.667 4zm-1.435 21.563h2.266L9.873 6.309H7.442l14.791 19.254z"/></symbol></defs></svg>