<svg aria-hidden="true" style="width:0;height:0;position:absolute;overflow:hidden" xmlns="http://www.w3.org/2000/svg"><defs><symbol id="icon-arr-btn-up-icon" viewBox="0 0 32 32"><path fill="#e9c400" style="fill:var(--color1,#e9c400)" d="M7.557 16.443a1.333 1.333 0 0 1 0-1.886l7.333-7.333a1.333 1.333 0 0 1 1.886 0l7.333 7.333a1.333 1.333 0 1 1-1.886 1.886l-6.391-6.391-6.391 6.391a1.333 1.333 0 0 1-1.886 0z"/><path fill="#e9c400" style="fill:var(--color1,#e9c400)" d="M7.557 24.109a1.333 1.333 0 0 1 0-1.886l7.333-7.333a1.333 1.333 0 0 1 1.886 0l7.333 7.333a1.333 1.333 0 1 1-1.886 1.886l-6.391-6.391-6.391 6.391a1.333 1.333 0 0 1-1.886 0z"/></symbol><symbol id="icon-arrow-right-icon" viewBox="0 0 32 32"><path fill="#adc6ff" style="fill:var(--color2,#adc6ff)" d="M20.526 7.406c-.521-.541-1.365-.541-1.886 0s-.521 1.417 0 1.958l5.187 5.386H4.25a1.25 1.25 0 0 0 0 2.5h19.577l-5.187 5.386c-.521.541-.521 1.417 0 1.958s1.365.541 1.886 0l7.333-7.615a1.422 1.422 0 0 0 0-1.958l-7.333-7.615z"/></symbol><symbol id="icon-arrow-up-icon" viewBox="0 0 32 32"><path fill="#968e98" style="fill:var(--color3,#968e98)" d="M13.013 6.457c-.751-.014-1.348.583-1.333 1.333s.634 1.37 1.385 1.385l7.476.141L6.698 23.159a1.25 1.25 0 0 0 1.768 1.768l13.843-13.843.141 7.476c.014.75.634 1.37 1.385 1.385s1.348-.583 1.333-1.333l-.199-10.57a1.424 1.424 0 0 0-1.385-1.385l-10.57-.199z"/></symbol><symbol id="icon-menu-Icon" viewBox="0 0 32 32"><path fill="#c4c7c7" style="fill:var(--color4,#c4c7c7)" d="M2.75 8c0-.69.56-1.25 1.25-1.25h24a1.25 1.25 0 0 1 0 2.5H4c-.69 0-1.25-.56-1.25-1.25zM2.75 16c0-.69.56-1.25 1.25-1.25h24a1.25 1.25 0 0 1 0 2.5H4c-.69 0-1.25-.56-1.25-1.25zM2.75 24c0-.69.56-1.25 1.25-1.25h24a1.25 1.25 0 0 1 0 2.5H4c-.69 0-1.25-.56-1.25-1.25z"/></symbol><symbol id="icon-patreon-icon" viewBox="0 0 32 32"><path fill="#e9c400" style="fill:var(--color1,#e9c400)" d="M2.667 29.333H8V2.666H2.667v26.667zM20.015 2.667c-5.155 0-9.348 4.193-9.348 9.347 0 5.139 4.193 9.319 9.348 9.319 5.138 0 9.319-4.181 9.319-9.319 0-5.154-4.18-9.347-9.319-9.347z"/></symbol><symbol id="icon-search-Icon" viewBox="0 0 32 32"><path fill="#c4c7c7" style="fill:var(--color4,#c4c7c7)" d="m19.277 21.163 7.78 7.78a1.333 1.333 0 1 0 1.886-1.886l-7.601-7.601A9.964 9.964 0 0 0 24 12.666c0-5.523-4.477-10-10-10s-10 4.477-10 10 4.477 10 10 10a9.957 9.957 0 0 0 5.277-1.504zm2.056-8.496a7.333 7.333 0 1 1-14.666 0 7.333 7.333 0 0 1 14.666 0z"/></symbol><symbol id="icon-telegram-icon" viewBox="0 0 32 32"><path fill="#d8e2ff" style="fill:var(--color5,#d8e2ff)" d="m13.114 19.412-.417 5.962c.613 0 .884-.267 1.226-.585l2.945-2.732 6.128 4.318c1.128.593 1.942.286 2.223-.999l4.023-18.081c.412-1.575-.629-2.289-1.708-1.822L3.913 14.161c-1.612.617-1.603 1.475-.294 1.857l6.062 1.805 14.034-8.445c.663-.383 1.271-.177.771.245l-11.371 9.788z"/></symbol><symbol id="icon-TikTok-icon" viewBox="0 0 32 32"><path fill="#ffe16d" style="fill:var(--color6,#ffe16d)" d="M22.273 1.333h-5.261v19.981c0 2.381-2.023 4.336-4.542 4.336s-4.542-1.956-4.542-4.336c0-2.338 1.979-4.251 4.407-4.336v-5.016c-5.351.085-9.668 4.209-9.668 9.353 0 5.187 4.407 9.353 9.848 9.353s9.848-4.209 9.848-9.353V11.07a12.712 12.712 0 0 0 6.97 2.211V8.265c-3.957-.128-7.06-3.188-7.06-6.929z"/></symbol><symbol id="icon-Twitter-icon" viewBox="0 0 32 32"><path fill="#9ff798" style="fill:var(--color7,#9ff798)" d="M23.668 4h4.089l-8.933 10.166L29.333 28h-8.229l-6.445-8.39L7.284 28H3.192l9.555-10.874L2.665 4h8.438l5.826 7.669L23.667 4zm-1.435 21.563h2.266L9.873 6.309H7.442l14.791 19.254z"/><symbol id="icon-logo-hed" viewBox="0 0 32 32"><path fill="#005ac2" style="fill:var(--color1,#005ac2)" d="M32 16c0 8.837-7.163 16-16 16S0 24.837 0 16 7.163 0 16 0s16 7.163 16 16z"/><path fill="#e9c400" style="fill:var(--color2,#e9c400)" d="m19.843 2.667.005.006-1.956 1.812 2.067-.21-.862 1.683 2.131-.898c1.464 3.91.035 8.621-2.943 9.291-.367-1.418-1.911-2.12-2.019-3.206l.051.015c.271.072.545.066.799-.004l1.408 1.279 1.157-.915c-.412.158-1.601-.078-1.862-.778a1.504 1.504 0 0 0 .428-.97l.421.896.517-.57c.427.312.699.76.643 1.181 0 0 .934-.905.934-1.643 0-.447-4.04-1.652-4.04-1.652L13.471 5.3l.958 1.746-2.7-1.104 1.968 1.746c-2.274 1.573-1.237 4.752-.101 6.666-3.22-.541-5.775-4.327-5.363-8.104l2.756-1.194-1.74-.287 1.636-1.867-1.793.645.006-.011C-.33 7.243 2.579 24.044 5.529 26.893l-.03-.215c-.836-3.143-1.141-7.02-.98-10.647.169-3.813.831-7.329 2.06-9.473l.908.519c-1.058 1.845-1.758 5.284-1.923 9-.109 2.451.006 5.03.351 7.381.343.106.843.537 1.529 1.299a5.887 5.887 0 0 1-.363-2.139c1.136 2.328 3.771 3.869 5.859 3.482 1.257-.233 2.341-.711 3.237-1.368l.409.862c-1.124.281-1.277 1.824-.825 3.08.098-1.111.636-1.665 1.217-1.805-.369.887-.263 1.711-.175 2.468.568-.679 1.202-1.33 1.323-2.199.489.41.69 1.201.067 2.183 1.474-.865 1.768-2.347.447-3.223l-1.796-1.917c.331-.31.629-.648.893-1.01l2.2.882c-.221.765.327 1.761 1.107 2.42-.451-.966-.27-1.681.143-2.073.091.972.596 1.631 1.049 2.239.153-.875.38-1.76-.012-2.57.617.087 1.187.646 1.139 1.781.804-1.415.342-2.777-1.162-2.879l-3.984-.553c.714-1.284 1.046-2.784.953-4.329.795-1.939 2.803-.66 3.053 2.747 1.536-4.49 3.757-2.158 3.294 1.37.661-1.306 1.223-1.956 1.672-2.025-.603-5.137-2.266-10.705-4.348-14.012l.886-.556c2.818 4.476 4.766 12.33 4.753 18.527 2.375-6.477-.131-19.927-8.64-21.469zm-1.65 26.65-.001.001-.001.003.002-.003zM16.692 9.188a.486.486 0 0 1 .149.018c.267.072.418.332.346.599s-.333.417-.6.346-.418-.332-.347-.599a.483.483 0 0 1 .404-.36l.048-.004zm-3.573 9.102c.665-.011 1.268.378 1.466 1.257-.001 2.005-.535 3.846-2.36 4.326-1.547.407-3.905-.637-4.711-2.999.688-1.178 2.092-1.229 3.519 1.262-.705-2.324.806-3.825 2.086-3.846z"/></symbol><symbol id="icon-Icon-arr-nav" viewBox="0 0 32 32"><path fill="#c4c7c7" style="fill:var(--color1,#c4c7c7)" d="m16 21-6.928-7.5h13.856L16 21z"/></symbol><symbol id="youtube-white-icon" viewBox="0 0 32 32"><path d="M31.681 9.179s-.313-2.353-1.275-3.386c-1.219-1.36-2.581-1.366-3.206-1.446C22.725 4 16.006 4 16.006 4h-.012S9.275 4 4.8 4.347c-.625.08-1.987.087-3.206 1.446C.631 6.826.325 9.179.325 9.179S0 11.945 0 14.704v2.586c0 2.759.319 5.525.319 5.525s.312 2.353 1.269 3.386c1.219 1.36 2.819 1.313 3.531 1.46 2.563.26 10.881.34 10.881.34s6.725-.013 11.2-.353c.625-.08 1.988-.087 3.206-1.446.962-1.033 1.275-3.386 1.275-3.386S32 20.057 32 17.291v-2.586c0-2.759-.319-5.525-.319-5.525zm-18.987 11.25v-9.591l8.644 4.812-8.644 4.779z"/></symbol></symbol></defs></svg>