<svg aria-hidden="true" style="position: absolute; width: 0; height: 0; overflow: hidden;" version="1.1" xmlns="http://www.w3.org/2000/svg" xmlns:xlink="http://www.w3.org/1999/xlink">
<defs>
<symbol id="icon-arr-btn-up-icon" viewBox="0 0 32 32">
<path fill="#e9c400" style="fill: var(--color1, #e9c400)" d="M7.557 16.443c-0.521-0.521-0.521-1.365 0-1.886l7.333-7.333c0.521-0.521 1.365-0.521 1.886 0l7.333 7.333c0.521 0.521 0.521 1.365 0 1.886s-1.365 0.521-1.886 0l-6.391-6.391-6.391 6.391c-0.521 0.521-1.365 0.521-1.886 0z"></path>
<path fill="#e9c400" style="fill: var(--color1, #e9c400)" d="M7.557 24.109c-0.521-0.521-0.521-1.365 0-1.886l7.333-7.333c0.521-0.521 1.365-0.521 1.886 0l7.333 7.333c0.521 0.521 0.521 1.365 0 1.886s-1.365 0.521-1.886 0l-6.391-6.391-6.391 6.391c-0.521 0.521-1.365 0.521-1.886 0z"></path>
</symbol>
<symbol id="icon-arrow-right-icon" viewBox="0 0 32 32">
<path fill="#adc6ff" style="fill: var(--color2, #adc6ff)" d="M20.526 7.406c-0.521-0.541-1.365-0.541-1.886 0s-0.521 1.417 0 1.958l5.187 5.386h-19.577c-0.69 0-1.25 0.56-1.25 1.25s0.56 1.25 1.25 1.25l19.577 0-5.187 5.386c-0.521 0.541-0.521 1.417 0 1.958s1.365 0.541 1.886 0l7.333-7.615c0.521-0.541 0.521-1.417 0-1.958l-7.333-7.615z"></path>
</symbol>
<symbol id="icon-arrow-up-icon" viewBox="0 0 32 32">
<path fill="#968e98" style="fill: var(--color3, #968e98)" d="M13.013 6.457c-0.751-0.014-1.348 0.583-1.333 1.333s0.634 1.37 1.385 1.385l7.476 0.141-13.843 13.843c-0.488 0.488-0.488 1.28 0 1.768s1.28 0.488 1.768 0l13.843-13.843 0.141 7.476c0.014 0.75 0.634 1.37 1.385 1.385s1.348-0.583 1.333-1.333l-0.199-10.57c-0.014-0.75-0.634-1.37-1.385-1.385l-10.57-0.199z"></path>
</symbol>
<symbol id="icon-menu-Icon" viewBox="0 0 32 32">
<path fill="#c4c7c7" style="fill: var(--color4, #c4c7c7)" d="M2.75 8c0-0.69 0.56-1.25 1.25-1.25h24c0.69 0 1.25 0.56 1.25 1.25s-0.56 1.25-1.25 1.25h-24c-0.69 0-1.25-0.56-1.25-1.25z"></path>
<path fill="#c4c7c7" style="fill: var(--color4, #c4c7c7)" d="M2.75 16c0-0.69 0.56-1.25 1.25-1.25h24c0.69 0 1.25 0.56 1.25 1.25s-0.56 1.25-1.25 1.25h-24c-0.69 0-1.25-0.56-1.25-1.25z"></path>
<path fill="#c4c7c7" style="fill: var(--color4, #c4c7c7)" d="M2.75 24c0-0.69 0.56-1.25 1.25-1.25h24c0.69 0 1.25 0.56 1.25 1.25s-0.56 1.25-1.25 1.25h-24c-0.69 0-1.25-0.56-1.25-1.25z"></path>
</symbol>
<symbol id="icon-patreon-icon" viewBox="0 0 32 32">
<path fill="#e9c400" style="fill: var(--color1, #e9c400)" d="M2.667 29.333h5.333v-26.667h-5.333v26.667z"></path>
<path fill="#e9c400" style="fill: var(--color1, #e9c400)" d="M20.015 2.667c-5.155 0-9.348 4.193-9.348 9.347 0 5.139 4.193 9.319 9.348 9.319 5.138 0 9.319-4.181 9.319-9.319 0-5.154-4.18-9.347-9.319-9.347z"></path>
</symbol>
<symbol id="icon-search-Icon" viewBox="0 0 32 32">
<path fill="#c4c7c7" style="fill: var(--color4, #c4c7c7)" d="M19.277 21.163l7.78 7.78c0.521 0.521 1.365 0.521 1.886 0s0.521-1.365 0-1.886l-7.601-7.601c1.65-1.783 2.658-4.169 2.658-6.79 0-5.523-4.477-10-10-10s-10 4.477-10 10c0 5.523 4.477 10 10 10 1.937 0 3.745-0.551 5.277-1.504zM21.333 12.667c0 4.050-3.283 7.333-7.333 7.333s-7.333-3.283-7.333-7.333c0-4.050 3.283-7.333 7.333-7.333s7.333 3.283 7.333 7.333z"></path>
</symbol>
<symbol id="icon-telegram-icon" viewBox="0 0 32 32">
<path fill="#d8e2ff" style="fill: var(--color5, #d8e2ff)" d="M13.114 19.412l-0.417 5.962c0.613 0 0.884-0.267 1.226-0.585l2.945-2.732 6.128 4.318c1.128 0.593 1.942 0.286 2.223-0.999l4.023-18.081c0.412-1.575-0.629-2.289-1.708-1.822l-23.621 8.688c-1.612 0.617-1.603 1.475-0.294 1.857l6.062 1.805 14.034-8.445c0.663-0.383 1.271-0.177 0.771 0.245l-11.371 9.788z"></path>
</symbol>
<symbol id="icon-TikTok-icon" viewBox="0 0 32 32">
<path fill="#ffe16d" style="fill: var(--color6, #ffe16d)" d="M22.273 1.333h-5.261v19.981c0 2.381-2.023 4.336-4.542 4.336s-4.542-1.956-4.542-4.336c0-2.338 1.979-4.251 4.407-4.336v-5.016c-5.351 0.085-9.668 4.209-9.668 9.353 0 5.187 4.407 9.353 9.848 9.353s9.848-4.209 9.848-9.353v-10.245c1.979 1.36 4.407 2.168 6.97 2.211v-5.016c-3.957-0.128-7.060-3.188-7.060-6.929z"></path>
</symbol>
<symbol id="icon-Twitter-icon" viewBox="0 0 32 32">
<path fill="#9ff798" style="fill: var(--color7, #9ff798)" d="M23.668 4h4.089l-8.933 10.166 10.509 13.834h-8.229l-6.445-8.39-7.375 8.39h-4.092l9.555-10.874-10.082-13.126h8.438l5.826 7.669 6.738-7.669zM22.233 25.563h2.266l-14.626-19.254h-2.431l14.791 19.254z"></path>
</symbol>
</defs>
</svg>
