<svg aria-hidden="true" style="position: absolute; width: 0; height: 0; overflow: hidden;" version="1.1" xmlns="http://www.w3.org/2000/svg" xmlns:xlink="http://www.w3.org/1999/xlink">
<defs>
<symbol id="icon-arr-btn-up-icon" viewBox="0 0 32 32">
<path fill="#e9c400" style="fill: var(--color1, #e9c400)" d="M7.557 16.443c-0.521-0.521-0.521-1.365 0-1.886l7.333-7.333c0.521-0.521 1.365-0.521 1.886 0l7.333 7.333c0.521 0.521 0.521 1.365 0 1.886s-1.365 0.521-1.886 0l-6.391-6.391-6.391 6.391c-0.521 0.521-1.365 0.521-1.886 0z"></path>
<path fill="#e9c400" style="fill: var(--color1, #e9c400)" d="M7.557 24.109c-0.521-0.521-0.521-1.365 0-1.886l7.333-7.333c0.521-0.521 1.365-0.521 1.886 0l7.333 7.333c0.521 0.521 0.521 1.365 0 1.886s-1.365 0.521-1.886 0l-6.391-6.391-6.391 6.391c-0.521 0.521-1.365 0.521-1.886 0z"></path>
</symbol>
<symbol id="icon-arrow-right-icon" viewBox="0 0 32 32">
<path fill="#adc6ff" style="fill: var(--color2, #adc6ff)" d="M20.526 7.406c-0.521-0.541-1.365-0.541-1.886 0s-0.521 1.417 0 1.958l5.187 5.386h-19.577c-0.69 0-1.25 0.56-1.25 1.25s0.56 1.25 1.25 1.25l19.577 0-5.187 5.386c-0.521 0.541-0.521 1.417 0 1.958s1.365 0.541 1.886 0l7.333-7.615c0.521-0.541 0.521-1.417 0-1.958l-7.333-7.615z"></path>
</symbol>
<symbol id="icon-arrow-up-icon" viewBox="0 0 32 32">
<path fill="#968e98" style="fill: var(--color3, #968e98)" d="M13.013 6.457c-0.751-0.014-1.348 0.583-1.333 1.333s0.634 1.37 1.385 1.385l7.476 0.141-13.843 13.843c-0.488 0.488-0.488 1.28 0 1.768s1.28 0.488 1.768 0l13.843-13.843 0.141 7.476c0.014 0.75 0.634 1.37 1.385 1.385s1.348-0.583 1.333-1.333l-0.199-10.57c-0.014-0.75-0.634-1.37-1.385-1.385l-10.57-0.199z"></path>
</symbol>
<symbol id="icon-menu-Icon" viewBox="0 0 32 32">
<path fill="#c4c7c7" style="fill: var(--color4, #c4c7c7)" d="M2.75 8c0-0.69 0.56-1.25 1.25-1.25h24c0.69 0 1.25 0.56 1.25 1.25s-0.56 1.25-1.25 1.25h-24c-0.69 0-1.25-0.56-1.25-1.25z"></path>
<path fill="#c4c7c7" style="fill: var(--color4, #c4c7c7)" d="M2.75 16c0-0.69 0.56-1.25 1.25-1.25h24c0.69 0 1.25 0.56 1.25 1.25s-0.56 1.25-1.25 1.25h-24c-0.69 0-1.25-0.56-1.25-1.25z"></path>
<path fill="#c4c7c7" style="fill: var(--color4, #c4c7c7)" d="M2.75 24c0-0.69 0.56-1.25 1.25-1.25h24c0.69 0 1.25 0.56 1.25 1.25s-0.56 1.25-1.25 1.25h-24c-0.69 0-1.25-0.56-1.25-1.25z"></path>
</symbol>
<symbol id="icon-patreon-icon" viewBox="0 0 32 32">
<path fill="#e9c400" style="fill: var(--color1, #e9c400)" d="M2.667 29.333h5.333v-26.667h-5.333v26.667z"></path>
<path fill="#e9c400" style="fill: var(--color1, #e9c400)" d="M20.015 2.667c-5.155 0-9.348 4.193-9.348 9.347 0 5.139 4.193 9.319 9.348 9.319 5.138 0 9.319-4.181 9.319-9.319 0-5.154-4.18-9.347-9.319-9.347z"></path>
</symbol>
<symbol id="icon-search-Icon" viewBox="0 0 32 32">
<path fill="#c4c7c7" style="fill: var(--color4, #c4c7c7)" d="M19.277 21.163l7.78 7.78c0.521 0.521 1.365 0.521 1.886 0s0.521-1.365 0-1.886l-7.601-7.601c1.65-1.783 2.658-4.169 2.658-6.79 0-5.523-4.477-10-10-10s-10 4.477-10 10c0 5.523 4.477 10 10 10 1.937 0 3.745-0.551 5.277-1.504zM21.333 12.667c0 4.050-3.283 7.333-7.333 7.333s-7.333-3.283-7.333-7.333c0-4.050 3.283-7.333 7.333-7.333s7.333 3.283 7.333 7.333z"></path>
</symbol>
<symbol id="icon-telegram-icon" viewBox="0 0 32 32">
<path fill="#d8e2ff" style="fill: var(--color5, #d8e2ff)" d="M13.114 19.412l-0.417 5.962c0.613 0 0.884-0.267 1.226-0.585l2.945-2.732 6.128 4.318c1.128 0.593 1.942 0.286 2.223-0.999l4.023-18.081c0.412-1.575-0.629-2.289-1.708-1.822l-23.621 8.688c-1.612 0.617-1.603 1.475-0.294 1.857l6.062 1.805 14.034-8.445c0.663-0.383 1.271-0.177 0.771 0.245l-11.371 9.788z"></path>
</symbol>
<symbol id="icon-TikTok-icon" viewBox="0 0 32 32">
<path fill="#ffe16d" style="fill: var(--color6, #ffe16d)" d="M22.273 1.333h-5.261v19.981c0 2.381-2.023 4.336-4.542 4.336s-4.542-1.956-4.542-4.336c0-2.338 1.979-4.251 4.407-4.336v-5.016c-5.351 0.085-9.668 4.209-9.668 9.353 0 5.187 4.407 9.353 9.848 9.353s9.848-4.209 9.848-9.353v-10.245c1.979 1.36 4.407 2.168 6.97 2.211v-5.016c-3.957-0.128-7.060-3.188-7.060-6.929z"></path>
</symbol>
<symbol id="icon-Twitter-icon" viewBox="0 0 32 32">
<path fill="#9ff798" style="fill: var(--color7, #9ff798)" d="M23.668 4h4.089l-8.933 10.166 10.509 13.834h-8.229l-6.445-8.39-7.375 8.39h-4.092l9.555-10.874-10.082-13.126h8.438l5.826 7.669 6.738-7.669zM22.233 25.563h2.266l-14.626-19.254h-2.431l14.791 19.254z"></path>
<symbol id="icon-logo-hed" viewBox="0 0 32 32">
<path fill="#005ac2" style="fill: var(--color1, #005ac2)" d="M32 16c0 8.837-7.163 16-16 16s-16-7.163-16-16c0-8.837 7.163-16 16-16s16 7.163 16 16z"></path>
<path fill="#e9c400" style="fill: var(--color2, #e9c400)" d="M19.843 2.667l0.005 0.006-1.956 1.812 2.067-0.21-0.862 1.683 2.131-0.898c1.464 3.91 0.035 8.621-2.943 9.291-0.367-1.418-1.911-2.12-2.019-3.206 0.017 0.005 0.034 0.010 0.051 0.015 0.271 0.072 0.545 0.066 0.799-0.004l1.408 1.279 1.157-0.915c-0.412 0.158-1.601-0.078-1.862-0.778 0.177-0.181 0.311-0.407 0.38-0.666 0.027-0.101 0.042-0.203 0.048-0.304l0.421 0.896 0.517-0.57c0.427 0.312 0.699 0.76 0.643 1.181 0 0 0.934-0.905 0.934-1.643 0-0.447-4.040-1.652-4.040-1.652l-3.251-2.684 0.958 1.746-2.7-1.104 1.968 1.746c-2.274 1.573-1.237 4.752-0.101 6.666-3.22-0.541-5.775-4.327-5.363-8.104l2.756-1.194-1.74-0.287 1.636-1.867-1.793 0.645c0.002-0.004 0.004-0.008 0.006-0.011-9.428 3.707-6.519 20.508-3.569 23.357-0.011-0.074-0.020-0.144-0.030-0.215-0.836-3.143-1.141-7.020-0.98-10.647 0.169-3.813 0.831-7.329 2.060-9.473l0.908 0.519c-1.058 1.845-1.758 5.284-1.923 9-0.109 2.451 0.006 5.030 0.351 7.381 0.343 0.106 0.843 0.537 1.529 1.299-0.27-0.746-0.38-1.481-0.363-2.139 1.136 2.328 3.771 3.869 5.859 3.482 1.257-0.233 2.341-0.711 3.237-1.368l0.409 0.862c-1.124 0.281-1.277 1.824-0.825 3.080 0.098-1.111 0.636-1.665 1.217-1.805-0.369 0.887-0.263 1.711-0.175 2.468 0.568-0.679 1.202-1.33 1.323-2.199 0.489 0.41 0.69 1.201 0.067 2.183 1.474-0.865 1.768-2.347 0.447-3.223l-1.796-1.917c0.331-0.31 0.629-0.648 0.893-1.010l2.2 0.882c-0.221 0.765 0.327 1.761 1.107 2.42-0.451-0.966-0.27-1.681 0.143-2.073 0.091 0.972 0.596 1.631 1.049 2.239 0.153-0.875 0.38-1.76-0.012-2.57 0.617 0.087 1.187 0.646 1.139 1.781 0.804-1.415 0.342-2.777-1.162-2.879l-3.984-0.553c0.714-1.284 1.046-2.784 0.953-4.329 0.795-1.939 2.803-0.66 3.053 2.747 1.536-4.49 3.757-2.158 3.294 1.37 0.661-1.306 1.223-1.956 1.672-2.025-0.603-5.137-2.266-10.705-4.348-14.012l0.886-0.556c2.818 4.476 4.766 12.33 4.753 18.527 2.375-6.477-0.131-19.927-8.64-21.469zM18.193 29.317l-0.001 0.001-0.001 0.003 0.002-0.003zM16.692 9.188c0.048-0.002 0.098 0.004 0.149 0.018 0.267 0.072 0.418 0.332 0.346 0.599s-0.333 0.417-0.6 0.346-0.418-0.332-0.347-0.599c0.054-0.2 0.214-0.335 0.404-0.36 0.016-0.002 0.032-0.003 0.048-0.004zM13.119 18.29c0.665-0.011 1.268 0.378 1.466 1.257-0.001 2.005-0.535 3.846-2.36 4.326-1.547 0.407-3.905-0.637-4.711-2.999 0.688-1.178 2.092-1.229 3.519 1.262-0.705-2.324 0.806-3.825 2.086-3.846z"></path>
</symbol>
<symbol id="icon-Icon-arr-nav" viewBox="0 0 32 32">
<path fill="#c4c7c7" style="fill: var(--color1, #c4c7c7)" d="M16 21l-6.928-7.5h13.856l-6.928 7.5z"></path>
</symbol>
</defs>
</svg>
