<svg aria-hidden="true" style="position: absolute; width: 0; height: 0; overflow: hidden;" version="1.1" xmlns="http://www.w3.org/2000/svg" xmlns:xlink="http://www.w3.org/1999/xlink">
<defs>
<symbol id="icon-arr-btn-up-icon" viewBox="0 0 32 32">
<path fill="#e9c400" style="fill: var(--color1, #e9c400)" d="M7.557 16.443c-0.521-0.521-0.521-1.365 0-1.886l7.333-7.333c0.521-0.521 1.365-0.521 1.886 0l7.333 7.333c0.521 0.521 0.521 1.365 0 1.886s-1.365 0.521-1.886 0l-6.391-6.391-6.391 6.391c-0.521 0.521-1.365 0.521-1.886 0z"></path>
<path fill="#e9c400" style="fill: var(--color1, #e9c400)" d="M7.557 24.109c-0.521-0.521-0.521-1.365 0-1.886l7.333-7.333c0.521-0.521 1.365-0.521 1.886 0l7.333 7.333c0.521 0.521 0.521 1.365 0 1.886s-1.365 0.521-1.886 0l-6.391-6.391-6.391 6.391c-0.521 0.521-1.365 0.521-1.886 0z"></path>
</symbol>
<symbol id="icon-arrow-right-icon" viewBox="0 0 32 32">
<path fill="#adc6ff" style="fill: var(--color2, #adc6ff)" d="M20.526 7.406c-0.521-0.541-1.365-0.541-1.886 0s-0.521 1.417 0 1.958l5.187 5.386h-19.577c-0.69 0-1.25 0.56-1.25 1.25s0.56 1.25 1.25 1.25l19.577 0-5.187 5.386c-0.521 0.541-0.521 1.417 0 1.958s1.365 0.541 1.886 0l7.333-7.615c0.521-0.541 0.521-1.417 0-1.958l-7.333-7.615z"></path>
</symbol>
<symbol id="icon-arrow-up-icon" viewBox="0 0 32 32">
<path fill="#968e98" style="fill: var(--color3, #968e98)" d="M13.013 6.457c-0.751-0.014-1.348 0.583-1.333 1.333s0.634 1.37 1.385 1.385l7.476 0.141-13.843 13.843c-0.488 0.488-0.488 1.28 0 1.768s1.28 0.488 1.768 0l13.843-13.843 0.141 7.476c0.014 0.75 0.634 1.37 1.385 1.385s1.348-0.583 1.333-1.333l-0.199-10.57c-0.014-0.75-0.634-1.37-1.385-1.385l-10.57-0.199z"></path>
</symbol>
<symbol id="icon-menu-Icon" viewBox="0 0 32 32">
<path fill="#c4c7c7" style="fill: var(--color4, #c4c7c7)" d="M2.75 8c0-0.69 0.56-1.25 1.25-1.25h24c0.69 0 1.25 0.56 1.25 1.25s-0.56 1.25-1.25 1.25h-24c-0.69 0-1.25-0.56-1.25-1.25z"></path>
<path fill="#c4c7c7" style="fill: var(--color4, #c4c7c7)" d="M2.75 16c0-0.69 0.56-1.25 1.25-1.25h24c0.69 0 1.25 0.56 1.25 1.25s-0.56 1.25-1.25 1.25h-24c-0.69 0-1.25-0.56-1.25-1.25z"></path>
<path fill="#c4c7c7" style="fill: var(--color4, #c4c7c7)" d="M2.75 24c0-0.69 0.56-1.25 1.25-1.25h24c0.69 0 1.25 0.56 1.25 1.25s-0.56 1.25-1.25 1.25h-24c-0.69 0-1.25-0.56-1.25-1.25z"></path>
</symbol>
<symbol id="icon-patreon" viewBox="0 0 32 32">
<path fill="#e9c400" style="fill: var(--color1, #e9c400)" d="M2.667 29.333h5.333v-26.667h-5.333v26.667z"></path>
<path fill="#e9c400" style="fill: var(--color1, #e9c400)" d="M20.015 2.667c-5.155 0-9.348 4.193-9.348 9.347 0 5.139 4.193 9.319 9.348 9.319 5.138 0 9.319-4.181 9.319-9.319 0-5.154-4.18-9.347-9.319-9.347z"></path>
</symbol>
<symbol id="icon-search-Icon" viewBox="0 0 32 32">
<path fill="#c4c7c7" style="fill: var(--color4, #c4c7c7)" d="M19.277 21.163l7.78 7.78c0.521 0.521 1.365 0.521 1.886 0s0.521-1.365 0-1.886l-7.601-7.601c1.65-1.783 2.658-4.169 2.658-6.79 0-5.523-4.477-10-10-10s-10 4.477-10 10c0 5.523 4.477 10 10 10 1.937 0 3.745-0.551 5.277-1.504zM21.333 12.667c0 4.050-3.283 7.333-7.333 7.333s-7.333-3.283-7.333-7.333c0-4.050 3.283-7.333 7.333-7.333s7.333 3.283 7.333 7.333z"></path>
</symbol>
<symbol id="icon-telegram" viewBox="0 0 32 32">
<path fill="#d8e2ff" style="fill: var(--color5, #d8e2ff)" d="M13.114 19.412l-0.417 5.962c0.613 0 0.884-0.267 1.226-0.585l2.945-2.732 6.128 4.318c1.128 0.593 1.942 0.286 2.223-0.999l4.023-18.081c0.412-1.575-0.629-2.289-1.708-1.822l-23.621 8.688c-1.612 0.617-1.603 1.475-0.294 1.857l6.062 1.805 14.034-8.445c0.663-0.383 1.271-0.177 0.771 0.245l-11.371 9.788z"></path>
</symbol>
<symbol id="icon-TikTok" viewBox="0 0 32 32">
<path fill="#ffe16d" style="fill: var(--color6, #ffe16d)" d="M22.273 1.333h-5.261v19.981c0 2.381-2.023 4.336-4.542 4.336s-4.542-1.956-4.542-4.336c0-2.338 1.979-4.251 4.407-4.336v-5.016c-5.351 0.085-9.668 4.209-9.668 9.353 0 5.187 4.407 9.353 9.848 9.353s9.848-4.209 9.848-9.353v-10.245c1.979 1.36 4.407 2.168 6.97 2.211v-5.016c-3.957-0.128-7.060-3.188-7.060-6.929z"></path>
</symbol>
<symbol id="icon-Twitter" viewBox="0 0 32 32">
<path fill="#9ff798" style="fill: var(--color7, #9ff798)" d="M23.668 4h4.089l-8.933 10.166 10.509 13.834h-8.229l-6.445-8.39-7.375 8.39h-4.092l9.555-10.874-10.082-13.126h8.438l5.826 7.669 6.738-7.669zM22.233 25.563h2.266l-14.626-19.254h-2.431l14.791 19.254z"></path>
<symbol id="icon-logo-hed" viewBox="0 0 32 32">
<path fill="#005ac2" style="fill: var(--color1, #005ac2)" d="M32 16c0 8.837-7.163 16-16 16s-16-7.163-16-16c0-8.837 7.163-16 16-16s16 7.163 16 16z"></path>
<path fill="#e9c400" style="fill: var(--color2, #e9c400)" d="M19.843 2.667l0.005 0.006-1.956 1.812 2.067-0.21-0.862 1.683 2.131-0.898c1.464 3.91 0.035 8.621-2.943 9.291-0.367-1.418-1.911-2.12-2.019-3.206 0.017 0.005 0.034 0.010 0.051 0.015 0.271 0.072 0.545 0.066 0.799-0.004l1.408 1.279 1.157-0.915c-0.412 0.158-1.601-0.078-1.862-0.778 0.177-0.181 0.311-0.407 0.38-0.666 0.027-0.101 0.042-0.203 0.048-0.304l0.421 0.896 0.517-0.57c0.427 0.312 0.699 0.76 0.643 1.181 0 0 0.934-0.905 0.934-1.643 0-0.447-4.040-1.652-4.040-1.652l-3.251-2.684 0.958 1.746-2.7-1.104 1.968 1.746c-2.274 1.573-1.237 4.752-0.101 6.666-3.22-0.541-5.775-4.327-5.363-8.104l2.756-1.194-1.74-0.287 1.636-1.867-1.793 0.645c0.002-0.004 0.004-0.008 0.006-0.011-9.428 3.707-6.519 20.508-3.569 23.357-0.011-0.074-0.020-0.144-0.030-0.215-0.836-3.143-1.141-7.020-0.98-10.647 0.169-3.813 0.831-7.329 2.060-9.473l0.908 0.519c-1.058 1.845-1.758 5.284-1.923 9-0.109 2.451 0.006 5.030 0.351 7.381 0.343 0.106 0.843 0.537 1.529 1.299-0.27-0.746-0.38-1.481-0.363-2.139 1.136 2.328 3.771 3.869 5.859 3.482 1.257-0.233 2.341-0.711 3.237-1.368l0.409 0.862c-1.124 0.281-1.277 1.824-0.825 3.080 0.098-1.111 0.636-1.665 1.217-1.805-0.369 0.887-0.263 1.711-0.175 2.468 0.568-0.679 1.202-1.33 1.323-2.199 0.489 0.41 0.69 1.201 0.067 2.183 1.474-0.865 1.768-2.347 0.447-3.223l-1.796-1.917c0.331-0.31 0.629-0.648 0.893-1.010l2.2 0.882c-0.221 0.765 0.327 1.761 1.107 2.42-0.451-0.966-0.27-1.681 0.143-2.073 0.091 0.972 0.596 1.631 1.049 2.239 0.153-0.875 0.38-1.76-0.012-2.57 0.617 0.087 1.187 0.646 1.139 1.781 0.804-1.415 0.342-2.777-1.162-2.879l-3.984-0.553c0.714-1.284 1.046-2.784 0.953-4.329 0.795-1.939 2.803-0.66 3.053 2.747 1.536-4.49 3.757-2.158 3.294 1.37 0.661-1.306 1.223-1.956 1.672-2.025-0.603-5.137-2.266-10.705-4.348-14.012l0.886-0.556c2.818 4.476 4.766 12.33 4.753 18.527 2.375-6.477-0.131-19.927-8.64-21.469zM18.193 29.317l-0.001 0.001-0.001 0.003 0.002-0.003zM16.692 9.188c0.048-0.002 0.098 0.004 0.149 0.018 0.267 0.072 0.418 0.332 0.346 0.599s-0.333 0.417-0.6 0.346-0.418-0.332-0.347-0.599c0.054-0.2 0.214-0.335 0.404-0.36 0.016-0.002 0.032-0.003 0.048-0.004zM13.119 18.29c0.665-0.011 1.268 0.378 1.466 1.257-0.001 2.005-0.535 3.846-2.36 4.326-1.547 0.407-3.905-0.637-4.711-2.999 0.688-1.178 2.092-1.229 3.519 1.262-0.705-2.324 0.806-3.825 2.086-3.846z"></path>
</symbol>
<symbol id="icon-arr-nav" viewBox="0 0 32 32">
<path d="M16 21l-6.928-7.5h13.856l-6.928 7.5z"></path>
</symbol>
<symbol id="youtube-white-icon" viewBox="0 0 32 32">
<path d="M31.681 9.179c0 0-0.313-2.353-1.275-3.386-1.219-1.36-2.581-1.366-3.206-1.446-4.475-0.347-11.194-0.347-11.194-0.347h-0.012c0 0-6.719 0-11.194 0.347-0.625 0.080-1.987 0.087-3.206 1.446-0.963 1.033-1.269 3.386-1.269 3.386s-0.325 2.766-0.325 5.525v2.586c0 2.759 0.319 5.525 0.319 5.525s0.312 2.353 1.269 3.386c1.219 1.36 2.819 1.313 3.531 1.46 2.563 0.26 10.881 0.34 10.881 0.34s6.725-0.013 11.2-0.353c0.625-0.080 1.988-0.087 3.206-1.446 0.962-1.033 1.275-3.386 1.275-3.386s0.319-2.759 0.319-5.525v-2.586c0-2.759-0.319-5.525-0.319-5.525zM12.694 20.429v-9.591l8.644 4.812-8.644 4.779z"></path>
</symbol>
<symbol id="icon-dragon" viewBox="0 0 32 32">
<path d="M24.627 1.929c0.564-0.327 1.108-0.596 1.201-0.596s0.232 0.086 0.299 0.202c0.073 0.115 0.126 0.327 0.119 0.509-0.007 0.192-0.066 0.365-0.173 0.49-0.093 0.106-0.478 0.519-0.856 0.922s-1.062 1.211-1.52 1.787-1.181 1.585-1.613 2.248c-0.438 0.653-0.843 1.297-0.909 1.432l-0.119 0.24c1.148 0.327 1.752 0.538 2.077 0.673s0.896 0.404 1.261 0.596 1.049 0.634 1.527 0.99c0.478 0.346 1.155 0.913 1.507 1.249 0.405 0.384 0.684 0.73 0.73 0.894 0.073 0.231 0.066 0.298-0.053 0.528-0.139 0.259-0.139 0.259-1.128 0.279l-0.989 0.029c1.235 1.825 1.785 2.7 2.018 3.123 0.239 0.423 0.657 1.268 0.936 1.874 0.272 0.605 0.67 1.576 0.876 2.162 0.199 0.586 0.478 1.46 0.611 1.95 0.133 0.48 0.239 0.99 0.239 1.124s-0.066 0.327-0.146 0.432c-0.086 0.106-0.219 0.192-0.299 0.192-0.086 0-0.412-0.25-0.73-0.557-0.325-0.307-0.717-0.682-0.883-0.817-0.166-0.144-0.319-0.259-0.345-0.259-0.033 0 0.086 0.336 0.259 0.749 0.166 0.404 0.511 1.345 0.757 2.085s0.551 1.778 0.684 2.306c0.126 0.528 0.166 1.432 0.259 1.902h-0.943l-0.173-1.086v-0.24c-0.133-0.529-0.491-1.691-0.797-2.594s-0.79-2.152-1.082-2.786c-0.285-0.634-0.664-1.412-0.836-1.729-0.166-0.317-0.312-0.663-0.312-0.769s0.053-0.288 0.119-0.403c0.066-0.115 0.186-0.231 0.272-0.259 0.099-0.038 0.372 0.115 0.896 0.5 0.405 0.307 0.969 0.759 1.241 0.999 0.272 0.25 0.505 0.404 0.518 0.356 0.007-0.048-0.139-0.49-0.325-0.97-0.193-0.49-0.518-1.259-0.723-1.71s-0.571-1.163-0.803-1.585c-0.226-0.423-0.717-1.22-1.082-1.768-0.372-0.548-0.929-1.316-1.248-1.701-0.511-0.625-0.584-0.749-0.584-1.018-0.007-0.183 0.046-0.394 0.113-0.48 0.080-0.115 0.325-0.211 0.717-0.279 0.332-0.067 0.631-0.154 0.664-0.192 0.040-0.038-0.199-0.25-0.531-0.471-0.325-0.221-0.883-0.557-1.228-0.749-0.345-0.183-0.823-0.423-1.062-0.519s-0.757-0.288-1.161-0.413c-0.405-0.125-0.916-0.259-1.148-0.307-0.265-0.048-0.412-0.038-0.412 0.019 0.007 0.048 0.325 0.528 0.71 1.057s0.889 1.307 1.115 1.729c0.226 0.423 0.571 1.115 0.763 1.537s0.518 1.287 0.73 1.922 0.498 1.605 0.631 2.162c0.133 0.557 0.332 1.528 0.438 2.162s0.252 1.739 0.325 2.45c0.073 0.711 0.159 2.095 0.199 3.075 0.049 1.169 0.041 1.744 0 2.979-0.003 0.105-0.027 0.982-0.031 1.086h-1.193c0-0.016 0-0.062 0-0.127-0.001-0.268-0.008-0.858 0-0.959 0.072-0.932 0.337-2.166 0.302-2.979-0.040-0.922-0.133-2.267-0.206-2.978s-0.239-1.883-0.372-2.594c-0.126-0.711-0.352-1.729-0.491-2.258-0.146-0.528-0.398-1.355-0.571-1.825-0.166-0.471-0.504-1.297-0.743-1.826-0.292-0.634-0.73-1.383-1.294-2.21l-0.85-1.249c-0.226 0.519-0.411 0.97-0.557 1.345-0.206 0.519-0.332 0.721-0.564 0.913-0.232 0.183-0.392 0.24-0.73 0.24-0.332-0.010-0.504-0.067-0.763-0.259-0.179-0.135-0.451-0.442-0.604-0.673-0.153-0.221-0.319-0.519-0.385-0.653-0.060-0.135-0.106-0.365-0.106-0.528 0-0.183 0.133-0.625 0.365-1.182 0.199-0.48 0.358-0.903 0.352-0.932-0.013-0.019-0.272-0.067-0.584-0.106-0.332-0.038-0.849-0.019-1.261 0.058-0.385 0.058-0.969 0.211-1.294 0.336s-0.883 0.394-1.228 0.596-0.929 0.605-1.288 0.894c-0.365 0.288-0.796 0.73-0.962 0.97s-0.358 0.586-0.418 0.769c-0.066 0.183-0.192 0.605-0.279 0.951-0.113 0.423-0.246 0.73-0.418 0.942-0.146 0.183-1.181 0.97-2.409 1.825l-2.157 1.509c-1.473 0.010-1.706 0.048-1.872 0.173-0.119 0.086-0.246 0.25-0.285 0.355s-0.066 0.288-0.066 0.404c0 0.125 0.106 0.692 0.232 1.278s0.259 1.124 0.292 1.201c0.060 0.125 0.418 0.048 2.741-0.577 1.473-0.394 2.768-0.711 2.874-0.701 0.126 0 0.246 0.096 0.319 0.231 0.066 0.125 0.119 0.307 0.113 0.394 0 0.096-0.066 0.279-0.146 0.413-0.139 0.221-0.358 0.298-2.741 0.922-1.42 0.375-2.595 0.701-2.602 0.721-0.013 0.019 0.020 0.125 0.066 0.221 0.040 0.106 0.186 0.298 0.312 0.442 0.126 0.135 0.385 0.307 0.564 0.384 0.186 0.087 0.465 0.144 0.631 0.144s0.571-0.077 0.896-0.163c0.365-0.096 0.909-0.154 1.394-0.144 0.524 0 1.288 0.115 2.257 0.317 1.228 0.259 1.653 0.317 2.655 0.317 1.069 0 1.288-0.029 2.058-0.279 0.624-0.192 1.042-0.269 1.493-0.269 0.465 0.010 0.743 0.067 1.062 0.221 0.239 0.106 0.584 0.346 0.763 0.529 0.186 0.173 0.438 0.509 0.564 0.74s0.305 0.673 0.411 0.99c0.1 0.317 0.226 0.836 0.285 1.153 0.053 0.317 0.119 0.942 0.139 1.393v0.096c-0.006 0.078 0.011 0.943 0 1.057h-4.639c0.073-0.557 0.106-1.268 0.106-2.21-0.007-0.769-0.033-1.585-0.066-1.826-0.053-0.375-0.080-0.432-0.219-0.423-0.093 0-0.478 0.067-0.863 0.135-0.438 0.077-1.002 0.106-1.527 0.067-0.458-0.038-1.487-0.192-2.29-0.355s-1.746-0.307-2.091-0.317c-0.358-0.010-1.002 0.058-1.493 0.163-0.71 0.154-0.949 0.173-1.327 0.086-0.259-0.048-0.657-0.221-0.889-0.375-0.279-0.183-0.538-0.452-0.763-0.807-0.192-0.288-0.458-0.807-0.591-1.153s-0.378-1.23-0.551-1.97c-0.166-0.74-0.325-1.585-0.345-1.873-0.027-0.442-0.007-0.615 0.133-1.057 0.1-0.298 0.279-0.644 0.411-0.797 0.133-0.144 0.365-0.327 0.524-0.423 0.206-0.115 0.478-0.154 1.042-0.144l0.763 0.010c3.192-2.229 4.162-2.95 4.221-3.046 0.060-0.086 0.159-0.384 0.226-0.644 0.060-0.269 0.192-0.672 0.285-0.913s0.319-0.663 0.504-0.942c0.186-0.288 0.518-0.682 0.737-0.874 0.219-0.202 0.644-0.548 0.949-0.769 0.299-0.211 0.763-0.519 1.029-0.673 0.259-0.154 0.75-0.384 1.075-0.519s0.823-0.298 1.095-0.365c0.272-0.077 0.916-0.125 1.427-0.125s1.102 0.048 1.314 0.115l0.378 0.115c1.155-1.605 1.812-2.412 2.204-2.834 0.385-0.423 1.015-1.047 1.394-1.393 0.378-0.336 1.102-0.922 1.613-1.297s1.394-0.951 1.958-1.278zM19.184 10.509c0.246-0.528 0.697-1.412 1.002-1.97s0.962-1.605 1.453-2.335c0.491-0.73 0.869-1.316 0.83-1.316s-0.352 0.25-0.697 0.557c-0.345 0.298-0.989 0.932-1.427 1.403s-1.175 1.403-1.633 2.066c-0.524 0.769-0.982 1.537-1.241 2.095-0.226 0.49-0.411 0.932-0.411 0.99s0.099 0.231 0.219 0.394c0.113 0.154 0.319 0.336 0.445 0.394 0.126 0.048 0.299 0.067 0.385 0.038 0.093-0.038 0.232-0.288 0.392-0.701 0.133-0.365 0.438-1.086 0.684-1.614zM17.273 26.679c-0.106-0.173-0.352-0.423-0.551-0.548s-0.524-0.259-0.723-0.298c-0.199-0.029-0.471-0.039-0.597-0.019-0.126 0.029-0.239 0.048-0.246 0.058s0.020 0.231 0.060 0.49c0.033 0.269 0.066 1.095 0.086 3.219h2.688l-0.040-0.355c-0.020-0.202-0.080-0.615-0.133-0.913-0.053-0.307-0.153-0.73-0.226-0.942s-0.219-0.528-0.319-0.692z"></path>
<path d="M12.985 14.496c-0.113 0-0.279 0.077-0.372 0.183-0.093 0.096-0.299 0.279-0.465 0.394-0.166 0.125-0.524 0.298-0.796 0.404-0.279 0.096-0.538 0.25-0.584 0.346s-0.080 0.279-0.080 0.403c0 0.135 0.066 0.346 0.153 0.461 0.080 0.125 0.206 0.221 0.279 0.221s0.312-0.067 0.531-0.154c0.219-0.077 0.604-0.288 0.863-0.461 0.252-0.173 0.558-0.432 0.677-0.577 0.153-0.183 0.219-0.346 0.232-0.557 0.007-0.192-0.040-0.375-0.113-0.48-0.066-0.096-0.212-0.183-0.325-0.183z"></path>
<path d="M24 30.667l-5.108-0.029c0.011-0.113-0.006-0.979 0-1.057h5.108c-0.008 0.101-0.001 0.69 0 0.959v0.127z"></path>
<path d="M28.224 30.667c-0.325-0.336-0.65-0.452-0.743-0.471-0.093-0.029-0.232 0.010-0.312 0.096-0.086 0.086-0.151 0.25-0.171 0.375h-1.804c0.004-0.103 0.028-0.981 0.031-1.086h1.443c0.034-0.171 0.253-0.393 0.502-0.393 0.417 0 1.055 0.393 1.055 0.393h0.883l0.173 1.086h-1.055z"></path>
<path stroke-linejoin="miter" stroke-linecap="butt" stroke-miterlimit="4" stroke-width="0.6667" d="M18.892 30.638h-4.639c0.073-0.557 0.106-1.268 0.106-2.21-0.007-0.769-0.033-1.585-0.066-1.826-0.053-0.375-0.080-0.432-0.219-0.423-0.093 0-0.478 0.067-0.863 0.135-0.438 0.077-1.002 0.106-1.527 0.067-0.458-0.038-1.487-0.192-2.29-0.355s-1.746-0.307-2.091-0.317c-0.358-0.010-1.002 0.058-1.493 0.163-0.71 0.154-0.949 0.173-1.327 0.086-0.259-0.048-0.657-0.221-0.889-0.375-0.279-0.183-0.538-0.452-0.763-0.807-0.192-0.288-0.458-0.807-0.591-1.153s-0.378-1.23-0.551-1.97c-0.166-0.74-0.325-1.585-0.345-1.873-0.027-0.442-0.007-0.615 0.133-1.057 0.1-0.298 0.279-0.644 0.411-0.797 0.133-0.144 0.365-0.327 0.524-0.423 0.206-0.115 0.478-0.154 1.042-0.144l0.763 0.010c3.192-2.229 4.162-2.95 4.221-3.046 0.060-0.086 0.159-0.384 0.226-0.644 0.060-0.269 0.192-0.672 0.285-0.913s0.319-0.663 0.504-0.942c0.186-0.288 0.518-0.682 0.737-0.874 0.219-0.202 0.644-0.548 0.949-0.769 0.299-0.211 0.763-0.519 1.029-0.673 0.259-0.154 0.75-0.384 1.075-0.519s0.823-0.298 1.095-0.365c0.272-0.077 0.916-0.125 1.427-0.125s1.102 0.048 1.314 0.115l0.378 0.115c1.155-1.605 1.812-2.412 2.204-2.834 0.385-0.423 1.015-1.047 1.394-1.393 0.378-0.336 1.102-0.922 1.613-1.297s1.394-0.951 1.958-1.278c0.564-0.327 1.108-0.596 1.201-0.596s0.232 0.086 0.299 0.202c0.073 0.115 0.126 0.327 0.119 0.509-0.007 0.192-0.066 0.365-0.173 0.49-0.093 0.106-0.478 0.519-0.856 0.922s-1.062 1.211-1.52 1.787-1.181 1.585-1.613 2.248c-0.438 0.653-0.843 1.297-0.909 1.432l-0.119 0.24c1.148 0.327 1.752 0.538 2.077 0.673s0.896 0.404 1.261 0.596 1.049 0.634 1.527 0.99c0.478 0.346 1.155 0.913 1.507 1.249 0.405 0.384 0.684 0.73 0.73 0.894 0.073 0.231 0.066 0.298-0.053 0.528-0.139 0.259-0.139 0.259-1.128 0.279l-0.989 0.029c1.235 1.825 1.785 2.7 2.018 3.123 0.239 0.423 0.657 1.268 0.936 1.874 0.272 0.605 0.67 1.576 0.876 2.162 0.199 0.586 0.478 1.46 0.611 1.95 0.133 0.48 0.239 0.99 0.239 1.124s-0.066 0.327-0.146 0.432c-0.086 0.106-0.219 0.192-0.299 0.192-0.086 0-0.412-0.25-0.73-0.557-0.325-0.307-0.717-0.682-0.883-0.817-0.166-0.144-0.319-0.259-0.345-0.259-0.033 0 0.086 0.336 0.259 0.749 0.166 0.404 0.511 1.345 0.757 2.085s0.551 1.778 0.684 2.306c0.126 0.528 0.166 1.432 0.259 1.902h-0.943M18.892 30.638l5.108 0.029M18.892 30.638c0.011-0.113-0.006-0.979 0-1.057M24 30.667h1.193M24 30.667v-0.127M24 30.667c0-0.016 0-0.062 0-0.127M25.193 30.667h1.804c0.020-0.125 0.085-0.288 0.171-0.375 0.080-0.087 0.219-0.125 0.312-0.096 0.093 0.019 0.418 0.135 0.743 0.471h1.055M25.193 30.667c0.004-0.103 0.028-0.981 0.031-1.086M29.279 30.667l-0.173-1.086M24 29.581c0.072-0.932 0.337-2.166 0.302-2.979-0.040-0.922-0.133-2.267-0.206-2.978s-0.239-1.883-0.372-2.594c-0.126-0.711-0.352-1.729-0.491-2.258-0.146-0.528-0.398-1.355-0.571-1.825-0.166-0.471-0.504-1.297-0.743-1.826-0.292-0.634-0.73-1.383-1.294-2.21l-0.85-1.249c-0.226 0.519-0.411 0.97-0.557 1.345-0.206 0.519-0.332 0.721-0.564 0.913-0.232 0.183-0.392 0.24-0.73 0.24-0.332-0.010-0.504-0.067-0.763-0.259-0.179-0.135-0.451-0.442-0.604-0.673-0.153-0.221-0.319-0.519-0.385-0.653-0.060-0.135-0.106-0.365-0.106-0.528 0-0.183 0.133-0.625 0.365-1.182 0.199-0.48 0.358-0.903 0.352-0.932-0.013-0.019-0.272-0.067-0.584-0.106-0.332-0.038-0.849-0.019-1.261 0.058-0.385 0.058-0.969 0.211-1.294 0.336s-0.883 0.394-1.228 0.596-0.929 0.605-1.288 0.894c-0.365 0.288-0.796 0.73-0.962 0.97s-0.358 0.586-0.418 0.769c-0.066 0.183-0.192 0.605-0.279 0.951-0.113 0.423-0.246 0.73-0.418 0.942-0.146 0.183-1.181 0.97-2.409 1.825l-2.157 1.509c-1.473 0.010-1.706 0.048-1.872 0.173-0.119 0.086-0.246 0.25-0.285 0.355s-0.066 0.288-0.066 0.404c0 0.125 0.106 0.692 0.232 1.278s0.259 1.124 0.292 1.201c0.060 0.125 0.418 0.048 2.741-0.577 1.473-0.394 2.768-0.711 2.874-0.701 0.126 0 0.246 0.096 0.319 0.231 0.066 0.125 0.119 0.307 0.113 0.394 0 0.096-0.066 0.279-0.146 0.413-0.139 0.221-0.358 0.298-2.741 0.922-1.42 0.375-2.595 0.701-2.602 0.721-0.013 0.019 0.020 0.125 0.066 0.221 0.040 0.106 0.186 0.298 0.312 0.442 0.126 0.135 0.385 0.307 0.564 0.384 0.186 0.087 0.465 0.144 0.631 0.144s0.571-0.077 0.896-0.163c0.365-0.096 0.909-0.154 1.394-0.144 0.524 0 1.288 0.115 2.257 0.317 1.228 0.259 1.653 0.317 2.655 0.317 1.069 0 1.288-0.029 2.058-0.279 0.624-0.192 1.042-0.269 1.493-0.269 0.465 0.010 0.743 0.067 1.062 0.221 0.239 0.106 0.584 0.346 0.763 0.529 0.186 0.173 0.438 0.509 0.564 0.74s0.305 0.673 0.411 0.99c0.1 0.317 0.226 0.836 0.285 1.153 0.053 0.317 0.119 0.942 0.139 1.393v0.096M24 29.581h-5.108M24 29.581c-0.008 0.101-0.001 0.69 0 0.959M24 29.581v0.959M25.224 29.581c0.041-1.235 0.049-1.81 0-2.979-0.040-0.98-0.126-2.363-0.199-3.075s-0.219-1.816-0.325-2.45c-0.106-0.634-0.305-1.605-0.438-2.162s-0.418-1.528-0.631-2.162-0.538-1.499-0.73-1.922c-0.192-0.423-0.538-1.115-0.763-1.537s-0.73-1.201-1.115-1.729-0.704-1.009-0.71-1.057c0-0.058 0.146-0.067 0.412-0.019 0.232 0.048 0.743 0.183 1.148 0.307s0.923 0.317 1.161 0.413 0.717 0.336 1.062 0.519c0.345 0.192 0.903 0.528 1.228 0.749 0.332 0.221 0.571 0.432 0.531 0.471-0.033 0.038-0.332 0.125-0.664 0.192-0.392 0.067-0.637 0.163-0.717 0.279-0.066 0.086-0.119 0.298-0.113 0.48 0 0.269 0.073 0.394 0.584 1.018 0.319 0.384 0.876 1.153 1.248 1.701 0.365 0.548 0.856 1.345 1.082 1.768 0.232 0.423 0.597 1.134 0.803 1.585s0.531 1.22 0.723 1.71c0.186 0.48 0.332 0.922 0.325 0.97-0.013 0.048-0.246-0.106-0.518-0.356-0.272-0.24-0.836-0.692-1.241-0.999-0.524-0.384-0.797-0.538-0.896-0.5-0.086 0.029-0.206 0.144-0.272 0.259s-0.119 0.298-0.119 0.403c0 0.106 0.146 0.452 0.312 0.769 0.173 0.317 0.551 1.095 0.836 1.729 0.292 0.634 0.777 1.883 1.082 2.786s0.664 2.066 0.797 2.594v0.24M25.224 29.581h1.443c0.034-0.171 0.253-0.393 0.502-0.393 0.417 0 1.055 0.393 1.055 0.393h0.883M20.187 8.539c-0.305 0.557-0.757 1.441-1.002 1.97s-0.551 1.249-0.684 1.614c-0.159 0.413-0.299 0.663-0.392 0.701-0.086 0.029-0.259 0.010-0.385-0.038-0.126-0.058-0.332-0.24-0.445-0.394-0.119-0.163-0.219-0.336-0.219-0.394s0.186-0.5 0.411-0.99c0.259-0.557 0.717-1.326 1.241-2.095 0.458-0.663 1.195-1.595 1.633-2.066s1.082-1.105 1.427-1.403c0.345-0.307 0.657-0.557 0.697-0.557s-0.339 0.586-0.83 1.316c-0.491 0.73-1.148 1.777-1.453 2.335zM16.722 26.132c0.199 0.125 0.445 0.375 0.551 0.548 0.099 0.163 0.245 0.48 0.319 0.692s0.173 0.634 0.226 0.942c0.053 0.298 0.113 0.711 0.133 0.913l0.040 0.355h-2.688c-0.020-2.123-0.053-2.95-0.086-3.219-0.040-0.259-0.066-0.48-0.060-0.49s0.119-0.029 0.246-0.058c0.126-0.019 0.398-0.010 0.597 0.019 0.199 0.038 0.524 0.173 0.723 0.298zM12.985 14.496c-0.113 0-0.279 0.077-0.372 0.183-0.093 0.096-0.299 0.279-0.465 0.394-0.166 0.125-0.524 0.298-0.796 0.404-0.279 0.096-0.538 0.25-0.584 0.346s-0.080 0.279-0.080 0.403c0 0.135 0.066 0.346 0.153 0.461 0.080 0.125 0.206 0.221 0.279 0.221s0.312-0.067 0.531-0.154c0.219-0.077 0.604-0.288 0.863-0.461 0.252-0.173 0.558-0.432 0.677-0.577 0.153-0.183 0.219-0.346 0.232-0.557 0.007-0.192-0.040-0.375-0.113-0.48-0.066-0.096-0.212-0.183-0.325-0.183z"></path>
</symbol>
<symbol id="icon-home" viewBox="0 0 32 32">
<path d="M15.114 3.003c0.505-0.449 1.267-0.449 1.772 0l12 10.667c0.55 0.489 0.6 1.332 0.111 1.882s-1.332 0.6-1.882 0.111l-0.447-0.398v11.401c0 1.473-1.194 2.667-2.667 2.667h-16c-1.473 0-2.667-1.194-2.667-2.667v-11.401l-0.448 0.398c-0.55 0.489-1.393 0.44-1.882-0.111s-0.44-1.393 0.111-1.882l12-10.667zM8 12.895v13.772h4v-9.333c0-1.473 1.194-2.667 2.667-2.667h2.667c1.473 0 2.667 1.194 2.667 2.667v9.333h4v-13.772l-8-7.111-8 7.111zM17.333 26.667v-9.333h-2.667v9.333h2.667z"></path>
<path d="M12 26.667h-4v-13.772l8-7.111 8 7.111v13.772h-4v-9.333c0-1.473-1.194-2.667-2.667-2.667h-2.667c-1.473 0-2.667 1.194-2.667 2.667v9.333z"></path>
</symbol>
<symbol id="icon-users" viewBox="0 0 32 32">
<path d="M13.486 15.495c1.515-0.992 2.514-2.691 2.514-4.62 0-3.060-2.513-5.541-5.614-5.541s-5.614 2.481-5.614 5.541c0 1.929 0.999 3.628 2.514 4.62-4.222 1.301-7.286 5.191-7.286 9.787 0 0.765 0.628 1.385 1.403 1.385s1.403-0.62 1.403-1.385c0-4.131 3.393-7.481 7.579-7.481s7.579 3.349 7.579 7.481c0 0.765 0.628 1.385 1.403 1.385s1.404-0.62 1.404-1.385c0-1.843-0.493-3.573-1.356-5.068 1.029-0.806 2.383-1.304 3.882-1.304 3.363 0 5.895 2.459 5.895 5.264 0 0.765 0.628 1.385 1.404 1.385s1.403-0.62 1.403-1.385c0-3.464-2.332-6.32-5.524-7.479 1.135-0.804 1.875-2.119 1.875-3.603 0-2.448-2.011-4.433-4.491-4.433s-4.491 1.985-4.491 4.433c0 1.339 0.601 2.539 1.552 3.352-1.191 0.312-2.281 0.852-3.21 1.571-1.168-1.147-2.612-2.021-4.224-2.518zM13.193 10.874c0 1.53-1.257 2.771-2.807 2.771s-2.807-1.24-2.807-2.771c0-1.53 1.257-2.771 2.807-2.771s2.807 1.24 2.807 2.771zM23.86 14.753c0.93 0 1.684-0.744 1.684-1.662s-0.754-1.662-1.684-1.662c-0.93 0-1.684 0.744-1.684 1.662s0.754 1.662 1.684 1.662z"></path>
</symbol>
<symbol id="icon-A" viewBox="0 0 32 32">
<path d="M24.364 2.667c2.008 0 3.636 1.492 3.636 3.333v19c0 0.552-0.488 1-1.091 1h-20.727c0 0.736 0.651 1.333 1.455 1.333h19.273c0.603 0 1.091 0.448 1.091 1s-0.488 1-1.091 1h-19.273c-2.008 0-3.636-1.492-3.636-3.333v-20c0-1.841 1.628-3.333 3.636-3.333h16.727zM24.364 4.667h-16.727c-0.803 0-1.455 0.597-1.455 1.333v18h19.636v-18c0-0.736-0.651-1.333-1.455-1.333zM16.364 8c0.444 0 0.844 0.247 1.011 0.624l4.727 10.667c0.227 0.512-0.042 1.095-0.6 1.303s-1.194-0.038-1.421-0.55l-1.201-2.71h-5.031l-1.201 2.71c-0.227 0.512-0.863 0.758-1.421 0.55s-0.827-0.791-0.6-1.303l4.727-10.667c0.167-0.377 0.567-0.624 1.011-0.624zM16.364 11.657l-1.629 3.676h3.259l-1.629-3.676z"></path>
</symbol>
<symbol id="icon-btn-close" viewBox="0 0 32 32">
<path fill="#4b454d" style="fill: var(--color1, #4b454d)" d="M19.803 21.071c0.35 0.35 0.918 0.35 1.268 0s0.35-0.918 0-1.268l-3.803-3.803 3.803-3.803c0.35-0.35 0.35-0.918 0-1.268s-0.918-0.35-1.268 0l-3.803 3.803-3.803-3.803c-0.35-0.35-0.918-0.35-1.268 0s-0.35 0.918 0 1.268l3.803 3.803-3.803 3.803c-0.35 0.35-0.35 0.918 0 1.268s0.918 0.35 1.268 0l3.803-3.803 3.803 3.803z"></path>
<path fill="#4b454d" style="fill: var(--color1, #4b454d)" d="M29.333 16c0-7.364-5.97-13.333-13.333-13.333s-13.333 5.97-13.333 13.333 5.97 13.333 13.333 13.333c7.364 0 13.333-5.97 13.333-13.333zM26.666 16c0 5.891-4.776 10.667-10.667 10.667s-10.667-4.776-10.667-10.667 4.776-10.667 10.667-10.667c5.891 0 10.667 4.776 10.667 10.667z"></path>
</symbol>
</defs>
</svg>
