<svg aria-hidden="true" style="position: absolute; width: 0; height: 0; overflow: hidden;" version="1.1" xmlns="http://www.w3.org/2000/svg" xmlns:xlink="http://www.w3.org/1999/xlink">
<defs>

<symbol id="arr-btn-up-icon" viewBox="0 0 32 32">
<path fill="#e9c400" style="fill: var(--color1, #e9c400)" d="M7.557 16.443c-0.521-0.521-0.521-1.365 0-1.886l7.333-7.333c0.521-0.521 1.365-0.521 1.886 0l7.333 7.333c0.521 0.521 0.521 1.365 0 1.886s-1.365 0.521-1.886 0l-6.391-6.391-6.391 6.391c-0.521 0.521-1.365 0.521-1.886 0z"></path>
<path fill="#e9c400" style="fill: var(--color1, #e9c400)" d="M7.557 24.109c-0.521-0.521-0.521-1.365 0-1.886l7.333-7.333c0.521-0.521 1.365-0.521 1.886 0l7.333 7.333c0.521 0.521 0.521 1.365 0 1.886s-1.365 0.521-1.886 0l-6.391-6.391-6.391 6.391c-0.521 0.521-1.365 0.521-1.886 0z"></path>
</symbol>

<symbol id="icon-arrow-right-icon" viewBox="0 0 32 32">
<path fill="#adc6ff" style="fill: var(--color2, #adc6ff)" d="M20.526 7.406c-0.521-0.541-1.365-0.541-1.886 0s-0.521 1.417 0 1.958l5.187 5.386h-19.577c-0.69 0-1.25 0.56-1.25 1.25s0.56 1.25 1.25 1.25l19.577 0-5.187 5.386c-0.521 0.541-0.521 1.417 0 1.958s1.365 0.541 1.886 0l7.333-7.615c0.521-0.541 0.521-1.417 0-1.958l-7.333-7.615z"></path>
</symbol>

<symbol id="icon-arrow-up" viewBox="0 0 32 32">
<path fill="#968e98" style="fill: var(--color3, #968e98)" d="M13.013 6.457c-0.751-0.014-1.348 0.583-1.333 1.333s0.634 1.37 1.385 1.385l7.476 0.141-13.843 13.843c-0.488 0.488-0.488 1.28 0 1.768s1.28 0.488 1.768 0l13.843-13.843 0.141 7.476c0.014 0.75 0.634 1.37 1.385 1.385s1.348-0.583 1.333-1.333l-0.199-10.57c-0.014-0.75-0.634-1.37-1.385-1.385l-10.57-0.199z"></path>
</symbol>

<symbol id="icon-menu-Icon" viewBox="0 0 32 32">
<path fill="#c4c7c7" style="fill: var(--color4, #c4c7c7)" d="M2.75 8c0-0.69 0.56-1.25 1.25-1.25h24c0.69 0 1.25 0.56 1.25 1.25s-0.56 1.25-1.25 1.25h-24c-0.69 0-1.25-0.56-1.25-1.25z"></path>
<path fill="#c4c7c7" style="fill: var(--color4, #c4c7c7)" d="M2.75 16c0-0.69 0.56-1.25 1.25-1.25h24c0.69 0 1.25 0.56 1.25 1.25s-0.56 1.25-1.25 1.25h-24c-0.69 0-1.25-0.56-1.25-1.25z"></path>
<path fill="#c4c7c7" style="fill: var(--color4, #c4c7c7)" d="M2.75 24c0-0.69 0.56-1.25 1.25-1.25h24c0.69 0 1.25 0.56 1.25 1.25s-0.56 1.25-1.25 1.25h-24c-0.69 0-1.25-0.56-1.25-1.25z"></path>
</symbol>

<symbol id="icon-patreon" viewBox="0 0 32 32">
<path fill="#e9c400" style="fill: var(--color1, #e9c400)" d="M2.667 29.333h5.333v-26.667h-5.333v26.667z"></path>
<path fill="#e9c400" style="fill: var(--color1, #e9c400)" d="M20.015 2.667c-5.155 0-9.348 4.193-9.348 9.347 0 5.139 4.193 9.319 9.348 9.319 5.138 0 9.319-4.181 9.319-9.319 0-5.154-4.18-9.347-9.319-9.347z"></path>
</symbol>

<symbol id="icon-search-Icon" viewBox="0 0 32 32">
<path fill="#c4c7c7" style="fill: var(--color4, #c4c7c7)" d="M19.277 21.163l7.78 7.78c0.521 0.521 1.365 0.521 1.886 0s0.521-1.365 0-1.886l-7.601-7.601c1.65-1.783 2.658-4.169 2.658-6.79 0-5.523-4.477-10-10-10s-10 4.477-10 10c0 5.523 4.477 10 10 10 1.937 0 3.745-0.551 5.277-1.504zM21.333 12.667c0 4.050-3.283 7.333-7.333 7.333s-7.333-3.283-7.333-7.333c0-4.050 3.283-7.333 7.333-7.333s7.333 3.283 7.333 7.333z"></path>
</symbol>

<symbol id="icon-telegram" viewBox="0 0 32 32">
<path fill="#d8e2ff" style="fill: var(--color5, #d8e2ff)" d="M13.114 19.412l-0.417 5.962c0.613 0 0.884-0.267 1.226-0.585l2.945-2.732 6.128 4.318c1.128 0.593 1.942 0.286 2.223-0.999l4.023-18.081c0.412-1.575-0.629-2.289-1.708-1.822l-23.621 8.688c-1.612 0.617-1.603 1.475-0.294 1.857l6.062 1.805 14.034-8.445c0.663-0.383 1.271-0.177 0.771 0.245l-11.371 9.788z"></path>
</symbol>

<symbol id="icon-TikTok" viewBox="0 0 32 32">
<path fill="#ffe16d" style="fill: var(--color6, #ffe16d)" d="M22.273 1.333h-5.261v19.981c0 2.381-2.023 4.336-4.542 4.336s-4.542-1.956-4.542-4.336c0-2.338 1.979-4.251 4.407-4.336v-5.016c-5.351 0.085-9.668 4.209-9.668 9.353 0 5.187 4.407 9.353 9.848 9.353s9.848-4.209 9.848-9.353v-10.245c1.979 1.36 4.407 2.168 6.97 2.211v-5.016c-3.957-0.128-7.060-3.188-7.060-6.929z"></path>
</symbol>

<symbol id="icon-Twitter" viewBox="0 0 32 32">
<path fill="#9ff798" style="fill: var(--color7, #9ff798)" d="M23.668 4h4.089l-8.933 10.166 10.509 13.834h-8.229l-6.445-8.39-7.375 8.39h-4.092l9.555-10.874-10.082-13.126h8.438l5.826 7.669 6.738-7.669zM22.233 25.563h2.266l-14.626-19.254h-2.431l14.791 19.254z"></path>
<symbol id="icon-logo-hed" viewBox="0 0 32 32">
<path fill="#005ac2" style="fill: var(--color1, #005ac2)" d="M32 16c0 8.837-7.163 16-16 16s-16-7.163-16-16c0-8.837 7.163-16 16-16s16 7.163 16 16z"></path>
<path fill="#e9c400" style="fill: var(--color2, #e9c400)" d="M19.843 2.667l0.005 0.006-1.956 1.812 2.067-0.21-0.862 1.683 2.131-0.898c1.464 3.91 0.035 8.621-2.943 9.291-0.367-1.418-1.911-2.12-2.019-3.206 0.017 0.005 0.034 0.010 0.051 0.015 0.271 0.072 0.545 0.066 0.799-0.004l1.408 1.279 1.157-0.915c-0.412 0.158-1.601-0.078-1.862-0.778 0.177-0.181 0.311-0.407 0.38-0.666 0.027-0.101 0.042-0.203 0.048-0.304l0.421 0.896 0.517-0.57c0.427 0.312 0.699 0.76 0.643 1.181 0 0 0.934-0.905 0.934-1.643 0-0.447-4.040-1.652-4.040-1.652l-3.251-2.684 0.958 1.746-2.7-1.104 1.968 1.746c-2.274 1.573-1.237 4.752-0.101 6.666-3.22-0.541-5.775-4.327-5.363-8.104l2.756-1.194-1.74-0.287 1.636-1.867-1.793 0.645c0.002-0.004 0.004-0.008 0.006-0.011-9.428 3.707-6.519 20.508-3.569 23.357-0.011-0.074-0.020-0.144-0.030-0.215-0.836-3.143-1.141-7.020-0.98-10.647 0.169-3.813 0.831-7.329 2.060-9.473l0.908 0.519c-1.058 1.845-1.758 5.284-1.923 9-0.109 2.451 0.006 5.030 0.351 7.381 0.343 0.106 0.843 0.537 1.529 1.299-0.27-0.746-0.38-1.481-0.363-2.139 1.136 2.328 3.771 3.869 5.859 3.482 1.257-0.233 2.341-0.711 3.237-1.368l0.409 0.862c-1.124 0.281-1.277 1.824-0.825 3.080 0.098-1.111 0.636-1.665 1.217-1.805-0.369 0.887-0.263 1.711-0.175 2.468 0.568-0.679 1.202-1.33 1.323-2.199 0.489 0.41 0.69 1.201 0.067 2.183 1.474-0.865 1.768-2.347 0.447-3.223l-1.796-1.917c0.331-0.31 0.629-0.648 0.893-1.010l2.2 0.882c-0.221 0.765 0.327 1.761 1.107 2.42-0.451-0.966-0.27-1.681 0.143-2.073 0.091 0.972 0.596 1.631 1.049 2.239 0.153-0.875 0.38-1.76-0.012-2.57 0.617 0.087 1.187 0.646 1.139 1.781 0.804-1.415 0.342-2.777-1.162-2.879l-3.984-0.553c0.714-1.284 1.046-2.784 0.953-4.329 0.795-1.939 2.803-0.66 3.053 2.747 1.536-4.49 3.757-2.158 3.294 1.37 0.661-1.306 1.223-1.956 1.672-2.025-0.603-5.137-2.266-10.705-4.348-14.012l0.886-0.556c2.818 4.476 4.766 12.33 4.753 18.527 2.375-6.477-0.131-19.927-8.64-21.469zM18.193 29.317l-0.001 0.001-0.001 0.003 0.002-0.003zM16.692 9.188c0.048-0.002 0.098 0.004 0.149 0.018 0.267 0.072 0.418 0.332 0.346 0.599s-0.333 0.417-0.6 0.346-0.418-0.332-0.347-0.599c0.054-0.2 0.214-0.335 0.404-0.36 0.016-0.002 0.032-0.003 0.048-0.004zM13.119 18.29c0.665-0.011 1.268 0.378 1.466 1.257-0.001 2.005-0.535 3.846-2.36 4.326-1.547 0.407-3.905-0.637-4.711-2.999 0.688-1.178 2.092-1.229 3.519 1.262-0.705-2.324 0.806-3.825 2.086-3.846z"></path>
</symbol>

<symbol id="icon-arr-nav" viewBox="0 0 32 32">
<path d="M16 21l-6.928-7.5h13.856l-6.928 7.5z"></path>
</symbol>

<symbol id="youtube-white-icon" viewBox="0 0 32 32">
<path d="M31.681 9.179c0 0-0.313-2.353-1.275-3.386-1.219-1.36-2.581-1.366-3.206-1.446-4.475-0.347-11.194-0.347-11.194-0.347h-0.012c0 0-6.719 0-11.194 0.347-0.625 0.080-1.987 0.087-3.206 1.446-0.963 1.033-1.269 3.386-1.269 3.386s-0.325 2.766-0.325 5.525v2.586c0 2.759 0.319 5.525 0.319 5.525s0.312 2.353 1.269 3.386c1.219 1.36 2.819 1.313 3.531 1.46 2.563 0.26 10.881 0.34 10.881 0.34s6.725-0.013 11.2-0.353c0.625-0.080 1.988-0.087 3.206-1.446 0.962-1.033 1.275-3.386 1.275-3.386s0.319-2.759 0.319-5.525v-2.586c0-2.759-0.319-5.525-0.319-5.525zM12.694 20.429v-9.591l8.644 4.812-8.644 4.779z"></path>
</symbol>

<symbol id="icon-dragon" viewBox="0 0 32 32">
<path d="M24.627 1.929c0.564-0.327 1.108-0.596 1.201-0.596s0.232 0.086 0.299 0.202c0.073 0.115 0.126 0.327 0.119 0.509-0.007 0.192-0.066 0.365-0.173 0.49-0.093 0.106-0.478 0.519-0.856 0.922s-1.062 1.211-1.52 1.787-1.181 1.585-1.613 2.248c-0.438 0.653-0.843 1.297-0.909 1.432l-0.119 0.24c1.148 0.327 1.752 0.538 2.077 0.673s0.896 0.404 1.261 0.596 1.049 0.634 1.527 0.99c0.478 0.346 1.155 0.913 1.507 1.249 0.405 0.384 0.684 0.73 0.73 0.894 0.073 0.231 0.066 0.298-0.053 0.528-0.139 0.259-0.139 0.259-1.128 0.279l-0.989 0.029c1.235 1.825 1.785 2.7 2.018 3.123 0.239 0.423 0.657 1.268 0.936 1.874 0.272 0.605 0.67 1.576 0.876 2.162 0.199 0.586 0.478 1.46 0.611 1.95 0.133 0.48 0.239 0.99 0.239 1.124s-0.066 0.327-0.146 0.432c-0.086 0.106-0.219 0.192-0.299 0.192-0.086 0-0.412-0.25-0.73-0.557-0.325-0.307-0.717-0.682-0.883-0.817-0.166-0.144-0.319-0.259-0.345-0.259-0.033 0 0.086 0.336 0.259 0.749 0.166 0.404 0.511 1.345 0.757 2.085s0.551 1.778 0.684 2.306c0.126 0.528 0.166 1.432 0.259 1.902h-0.943l-0.173-1.086v-0.24c-0.133-0.529-0.491-1.691-0.797-2.594s-0.79-2.152-1.082-2.786c-0.285-0.634-0.664-1.412-0.836-1.729-0.166-0.317-0.312-0.663-0.312-0.769s0.053-0.288 0.119-0.403c0.066-0.115 0.186-0.231 0.272-0.259 0.099-0.038 0.372 0.115 0.896 0.5 0.405 0.307 0.969 0.759 1.241 0.999 0.272 0.25 0.505 0.404 0.518 0.356 0.007-0.048-0.139-0.49-0.325-0.97-0.193-0.49-0.518-1.259-0.723-1.71s-0.571-1.163-0.803-1.585c-0.226-0.423-0.717-1.22-1.082-1.768-0.372-0.548-0.929-1.316-1.248-1.701-0.511-0.625-0.584-0.749-0.584-1.018-0.007-0.183 0.046-0.394 0.113-0.48 0.080-0.115 0.325-0.211 0.717-0.279 0.332-0.067 0.631-0.154 0.664-0.192 0.040-0.038-0.199-0.25-0.531-0.471-0.325-0.221-0.883-0.557-1.228-0.749-0.345-0.183-0.823-0.423-1.062-0.519s-0.757-0.288-1.161-0.413c-0.405-0.125-0.916-0.259-1.148-0.307-0.265-0.048-0.412-0.038-0.412 0.019 0.007 0.048 0.325 0.528 0.71 1.057s0.889 1.307 1.115 1.729c0.226 0.423 0.571 1.115 0.763 1.537s0.518 1.287 0.73 1.922 0.498 1.605 0.631 2.162c0.133 0.557 0.332 1.528 0.438 2.162s0.252 1.739 0.325 2.45c0.073 0.711 0.159 2.095 0.199 3.075 0.049 1.169 0.041 1.744 0 2.979-0.003 0.105-0.027 0.982-0.031 1.086h-1.193c0-0.016 0-0.062 0-0.127-0.001-0.268-0.008-0.858 0-0.959 0.072-0.932 0.337-2.166 0.302-2.979-0.040-0.922-0.133-2.267-0.206-2.978s-0.239-1.883-0.372-2.594c-0.126-0.711-0.352-1.729-0.491-2.258-0.146-0.528-0.398-1.355-0.571-1.825-0.166-0.471-0.504-1.297-0.743-1.826-0.292-0.634-0.73-1.383-1.294-2.21l-0.85-1.249c-0.226 0.519-0.411 0.97-0.557 1.345-0.206 0.519-0.332 0.721-0.564 0.913-0.232 0.183-0.392 0.24-0.73 0.24-0.332-0.010-0.504-0.067-0.763-0.259-0.179-0.135-0.451-0.442-0.604-0.673-0.153-0.221-0.319-0.519-0.385-0.653-0.060-0.135-0.106-0.365-0.106-0.528 0-0.183 0.133-0.625 0.365-1.182 0.199-0.48 0.358-0.903 0.352-0.932-0.013-0.019-0.272-0.067-0.584-0.106-0.332-0.038-0.849-0.019-1.261 0.058-0.385 0.058-0.969 0.211-1.294 0.336s-0.883 0.394-1.228 0.596-0.929 0.605-1.288 0.894c-0.365 0.288-0.796 0.73-0.962 0.97s-0.358 0.586-0.418 0.769c-0.066 0.183-0.192 0.605-0.279 0.951-0.113 0.423-0.246 0.73-0.418 0.942-0.146 0.183-1.181 0.97-2.409 1.825l-2.157 1.509c-1.473 0.010-1.706 0.048-1.872 0.173-0.119 0.086-0.246 0.25-0.285 0.355s-0.066 0.288-0.066 0.404c0 0.125 0.106 0.692 0.232 1.278s0.259 1.124 0.292 1.201c0.060 0.125 0.418 0.048 2.741-0.577 1.473-0.394 2.768-0.711 2.874-0.701 0.126 0 0.246 0.096 0.319 0.231 0.066 0.125 0.119 0.307 0.113 0.394 0 0.096-0.066 0.279-0.146 0.413-0.139 0.221-0.358 0.298-2.741 0.922-1.42 0.375-2.595 0.701-2.602 0.721-0.013 0.019 0.020 0.125 0.066 0.221 0.040 0.106 0.186 0.298 0.312 0.442 0.126 0.135 0.385 0.307 0.564 0.384 0.186 0.087 0.465 0.144 0.631 0.144s0.571-0.077 0.896-0.163c0.365-0.096 0.909-0.154 1.394-0.144 0.524 0 1.288 0.115 2.257 0.317 1.228 0.259 1.653 0.317 2.655 0.317 1.069 0 1.288-0.029 2.058-0.279 0.624-0.192 1.042-0.269 1.493-0.269 0.465 0.010 0.743 0.067 1.062 0.221 0.239 0.106 0.584 0.346 0.763 0.529 0.186 0.173 0.438 0.509 0.564 0.74s0.305 0.673 0.411 0.99c0.1 0.317 0.226 0.836 0.285 1.153 0.053 0.317 0.119 0.942 0.139 1.393v0.096c-0.006 0.078 0.011 0.943 0 1.057h-4.639c0.073-0.557 0.106-1.268 0.106-2.21-0.007-0.769-0.033-1.585-0.066-1.826-0.053-0.375-0.080-0.432-0.219-0.423-0.093 0-0.478 0.067-0.863 0.135-0.438 0.077-1.002 0.106-1.527 0.067-0.458-0.038-1.487-0.192-2.29-0.355s-1.746-0.307-2.091-0.317c-0.358-0.010-1.002 0.058-1.493 0.163-0.71 0.154-0.949 0.173-1.327 0.086-0.259-0.048-0.657-0.221-0.889-0.375-0.279-0.183-0.538-0.452-0.763-0.807-0.192-0.288-0.458-0.807-0.591-1.153s-0.378-1.23-0.551-1.97c-0.166-0.74-0.325-1.585-0.345-1.873-0.027-0.442-0.007-0.615 0.133-1.057 0.1-0.298 0.279-0.644 0.411-0.797 0.133-0.144 0.365-0.327 0.524-0.423 0.206-0.115 0.478-0.154 1.042-0.144l0.763 0.010c3.192-2.229 4.162-2.95 4.221-3.046 0.060-0.086 0.159-0.384 0.226-0.644 0.060-0.269 0.192-0.672 0.285-0.913s0.319-0.663 0.504-0.942c0.186-0.288 0.518-0.682 0.737-0.874 0.219-0.202 0.644-0.548 0.949-0.769 0.299-0.211 0.763-0.519 1.029-0.673 0.259-0.154 0.75-0.384 1.075-0.519s0.823-0.298 1.095-0.365c0.272-0.077 0.916-0.125 1.427-0.125s1.102 0.048 1.314 0.115l0.378 0.115c1.155-1.605 1.812-2.412 2.204-2.834 0.385-0.423 1.015-1.047 1.394-1.393 0.378-0.336 1.102-0.922 1.613-1.297s1.394-0.951 1.958-1.278zM19.184 10.509c0.246-0.528 0.697-1.412 1.002-1.97s0.962-1.605 1.453-2.335c0.491-0.73 0.869-1.316 0.83-1.316s-0.352 0.25-0.697 0.557c-0.345 0.298-0.989 0.932-1.427 1.403s-1.175 1.403-1.633 2.066c-0.524 0.769-0.982 1.537-1.241 2.095-0.226 0.49-0.411 0.932-0.411 0.99s0.099 0.231 0.219 0.394c0.113 0.154 0.319 0.336 0.445 0.394 0.126 0.048 0.299 0.067 0.385 0.038 0.093-0.038 0.232-0.288 0.392-0.701 0.133-0.365 0.438-1.086 0.684-1.614zM17.273 26.679c-0.106-0.173-0.352-0.423-0.551-0.548s-0.524-0.259-0.723-0.298c-0.199-0.029-0.471-0.039-0.597-0.019-0.126 0.029-0.239 0.048-0.246 0.058s0.020 0.231 0.060 0.49c0.033 0.269 0.066 1.095 0.086 3.219h2.688l-0.040-0.355c-0.020-0.202-0.080-0.615-0.133-0.913-0.053-0.307-0.153-0.73-0.226-0.942s-0.219-0.528-0.319-0.692z"></path>
<path d="M12.985 14.496c-0.113 0-0.279 0.077-0.372 0.183-0.093 0.096-0.299 0.279-0.465 0.394-0.166 0.125-0.524 0.298-0.796 0.404-0.279 0.096-0.538 0.25-0.584 0.346s-0.080 0.279-0.080 0.403c0 0.135 0.066 0.346 0.153 0.461 0.080 0.125 0.206 0.221 0.279 0.221s0.312-0.067 0.531-0.154c0.219-0.077 0.604-0.288 0.863-0.461 0.252-0.173 0.558-0.432 0.677-0.577 0.153-0.183 0.219-0.346 0.232-0.557 0.007-0.192-0.040-0.375-0.113-0.48-0.066-0.096-0.212-0.183-0.325-0.183z"></path>
<path d="M24 30.667l-5.108-0.029c0.011-0.113-0.006-0.979 0-1.057h5.108c-0.008 0.101-0.001 0.69 0 0.959v0.127z"></path>
<path d="M28.224 30.667c-0.325-0.336-0.65-0.452-0.743-0.471-0.093-0.029-0.232 0.010-0.312 0.096-0.086 0.086-0.151 0.25-0.171 0.375h-1.804c0.004-0.103 0.028-0.981 0.031-1.086h1.443c0.034-0.171 0.253-0.393 0.502-0.393 0.417 0 1.055 0.393 1.055 0.393h0.883l0.173 1.086h-1.055z"></path>
<path stroke-linejoin="miter" stroke-linecap="butt" stroke-miterlimit="4" stroke-width="0.6667" d="M18.892 30.638h-4.639c0.073-0.557 0.106-1.268 0.106-2.21-0.007-0.769-0.033-1.585-0.066-1.826-0.053-0.375-0.080-0.432-0.219-0.423-0.093 0-0.478 0.067-0.863 0.135-0.438 0.077-1.002 0.106-1.527 0.067-0.458-0.038-1.487-0.192-2.29-0.355s-1.746-0.307-2.091-0.317c-0.358-0.010-1.002 0.058-1.493 0.163-0.71 0.154-0.949 0.173-1.327 0.086-0.259-0.048-0.657-0.221-0.889-0.375-0.279-0.183-0.538-0.452-0.763-0.807-0.192-0.288-0.458-0.807-0.591-1.153s-0.378-1.23-0.551-1.97c-0.166-0.74-0.325-1.585-0.345-1.873-0.027-0.442-0.007-0.615 0.133-1.057 0.1-0.298 0.279-0.644 0.411-0.797 0.133-0.144 0.365-0.327 0.524-0.423 0.206-0.115 0.478-0.154 1.042-0.144l0.763 0.010c3.192-2.229 4.162-2.95 4.221-3.046 0.060-0.086 0.159-0.384 0.226-0.644 0.060-0.269 0.192-0.672 0.285-0.913s0.319-0.663 0.504-0.942c0.186-0.288 0.518-0.682 0.737-0.874 0.219-0.202 0.644-0.548 0.949-0.769 0.299-0.211 0.763-0.519 1.029-0.673 0.259-0.154 0.75-0.384 1.075-0.519s0.823-0.298 1.095-0.365c0.272-0.077 0.916-0.125 1.427-0.125s1.102 0.048 1.314 0.115l0.378 0.115c1.155-1.605 1.812-2.412 2.204-2.834 0.385-0.423 1.015-1.047 1.394-1.393 0.378-0.336 1.102-0.922 1.613-1.297s1.394-0.951 1.958-1.278c0.564-0.327 1.108-0.596 1.201-0.596s0.232 0.086 0.299 0.202c0.073 0.115 0.126 0.327 0.119 0.509-0.007 0.192-0.066 0.365-0.173 0.49-0.093 0.106-0.478 0.519-0.856 0.922s-1.062 1.211-1.52 1.787-1.181 1.585-1.613 2.248c-0.438 0.653-0.843 1.297-0.909 1.432l-0.119 0.24c1.148 0.327 1.752 0.538 2.077 0.673s0.896 0.404 1.261 0.596 1.049 0.634 1.527 0.99c0.478 0.346 1.155 0.913 1.507 1.249 0.405 0.384 0.684 0.73 0.73 0.894 0.073 0.231 0.066 0.298-0.053 0.528-0.139 0.259-0.139 0.259-1.128 0.279l-0.989 0.029c1.235 1.825 1.785 2.7 2.018 3.123 0.239 0.423 0.657 1.268 0.936 1.874 0.272 0.605 0.67 1.576 0.876 2.162 0.199 0.586 0.478 1.46 0.611 1.95 0.133 0.48 0.239 0.99 0.239 1.124s-0.066 0.327-0.146 0.432c-0.086 0.106-0.219 0.192-0.299 0.192-0.086 0-0.412-0.25-0.73-0.557-0.325-0.307-0.717-0.682-0.883-0.817-0.166-0.144-0.319-0.259-0.345-0.259-0.033 0 0.086 0.336 0.259 0.749 0.166 0.404 0.511 1.345 0.757 2.085s0.551 1.778 0.684 2.306c0.126 0.528 0.166 1.432 0.259 1.902h-0.943M18.892 30.638l5.108 0.029M18.892 30.638c0.011-0.113-0.006-0.979 0-1.057M24 30.667h1.193M24 30.667v-0.127M24 30.667c0-0.016 0-0.062 0-0.127M25.193 30.667h1.804c0.020-0.125 0.085-0.288 0.171-0.375 0.080-0.087 0.219-0.125 0.312-0.096 0.093 0.019 0.418 0.135 0.743 0.471h1.055M25.193 30.667c0.004-0.103 0.028-0.981 0.031-1.086M29.279 30.667l-0.173-1.086M24 29.581c0.072-0.932 0.337-2.166 0.302-2.979-0.040-0.922-0.133-2.267-0.206-2.978s-0.239-1.883-0.372-2.594c-0.126-0.711-0.352-1.729-0.491-2.258-0.146-0.528-0.398-1.355-0.571-1.825-0.166-0.471-0.504-1.297-0.743-1.826-0.292-0.634-0.73-1.383-1.294-2.21l-0.85-1.249c-0.226 0.519-0.411 0.97-0.557 1.345-0.206 0.519-0.332 0.721-0.564 0.913-0.232 0.183-0.392 0.24-0.73 0.24-0.332-0.010-0.504-0.067-0.763-0.259-0.179-0.135-0.451-0.442-0.604-0.673-0.153-0.221-0.319-0.519-0.385-0.653-0.060-0.135-0.106-0.365-0.106-0.528 0-0.183 0.133-0.625 0.365-1.182 0.199-0.48 0.358-0.903 0.352-0.932-0.013-0.019-0.272-0.067-0.584-0.106-0.332-0.038-0.849-0.019-1.261 0.058-0.385 0.058-0.969 0.211-1.294 0.336s-0.883 0.394-1.228 0.596-0.929 0.605-1.288 0.894c-0.365 0.288-0.796 0.73-0.962 0.97s-0.358 0.586-0.418 0.769c-0.066 0.183-0.192 0.605-0.279 0.951-0.113 0.423-0.246 0.73-0.418 0.942-0.146 0.183-1.181 0.97-2.409 1.825l-2.157 1.509c-1.473 0.010-1.706 0.048-1.872 0.173-0.119 0.086-0.246 0.25-0.285 0.355s-0.066 0.288-0.066 0.404c0 0.125 0.106 0.692 0.232 1.278s0.259 1.124 0.292 1.201c0.060 0.125 0.418 0.048 2.741-0.577 1.473-0.394 2.768-0.711 2.874-0.701 0.126 0 0.246 0.096 0.319 0.231 0.066 0.125 0.119 0.307 0.113 0.394 0 0.096-0.066 0.279-0.146 0.413-0.139 0.221-0.358 0.298-2.741 0.922-1.42 0.375-2.595 0.701-2.602 0.721-0.013 0.019 0.020 0.125 0.066 0.221 0.040 0.106 0.186 0.298 0.312 0.442 0.126 0.135 0.385 0.307 0.564 0.384 0.186 0.087 0.465 0.144 0.631 0.144s0.571-0.077 0.896-0.163c0.365-0.096 0.909-0.154 1.394-0.144 0.524 0 1.288 0.115 2.257 0.317 1.228 0.259 1.653 0.317 2.655 0.317 1.069 0 1.288-0.029 2.058-0.279 0.624-0.192 1.042-0.269 1.493-0.269 0.465 0.010 0.743 0.067 1.062 0.221 0.239 0.106 0.584 0.346 0.763 0.529 0.186 0.173 0.438 0.509 0.564 0.74s0.305 0.673 0.411 0.99c0.1 0.317 0.226 0.836 0.285 1.153 0.053 0.317 0.119 0.942 0.139 1.393v0.096M24 29.581h-5.108M24 29.581c-0.008 0.101-0.001 0.69 0 0.959M24 29.581v0.959M25.224 29.581c0.041-1.235 0.049-1.81 0-2.979-0.040-0.98-0.126-2.363-0.199-3.075s-0.219-1.816-0.325-2.45c-0.106-0.634-0.305-1.605-0.438-2.162s-0.418-1.528-0.631-2.162-0.538-1.499-0.73-1.922c-0.192-0.423-0.538-1.115-0.763-1.537s-0.73-1.201-1.115-1.729-0.704-1.009-0.71-1.057c0-0.058 0.146-0.067 0.412-0.019 0.232 0.048 0.743 0.183 1.148 0.307s0.923 0.317 1.161 0.413 0.717 0.336 1.062 0.519c0.345 0.192 0.903 0.528 1.228 0.749 0.332 0.221 0.571 0.432 0.531 0.471-0.033 0.038-0.332 0.125-0.664 0.192-0.392 0.067-0.637 0.163-0.717 0.279-0.066 0.086-0.119 0.298-0.113 0.48 0 0.269 0.073 0.394 0.584 1.018 0.319 0.384 0.876 1.153 1.248 1.701 0.365 0.548 0.856 1.345 1.082 1.768 0.232 0.423 0.597 1.134 0.803 1.585s0.531 1.22 0.723 1.71c0.186 0.48 0.332 0.922 0.325 0.97-0.013 0.048-0.246-0.106-0.518-0.356-0.272-0.24-0.836-0.692-1.241-0.999-0.524-0.384-0.797-0.538-0.896-0.5-0.086 0.029-0.206 0.144-0.272 0.259s-0.119 0.298-0.119 0.403c0 0.106 0.146 0.452 0.312 0.769 0.173 0.317 0.551 1.095 0.836 1.729 0.292 0.634 0.777 1.883 1.082 2.786s0.664 2.066 0.797 2.594v0.24M25.224 29.581h1.443c0.034-0.171 0.253-0.393 0.502-0.393 0.417 0 1.055 0.393 1.055 0.393h0.883M20.187 8.539c-0.305 0.557-0.757 1.441-1.002 1.97s-0.551 1.249-0.684 1.614c-0.159 0.413-0.299 0.663-0.392 0.701-0.086 0.029-0.259 0.010-0.385-0.038-0.126-0.058-0.332-0.24-0.445-0.394-0.119-0.163-0.219-0.336-0.219-0.394s0.186-0.5 0.411-0.99c0.259-0.557 0.717-1.326 1.241-2.095 0.458-0.663 1.195-1.595 1.633-2.066s1.082-1.105 1.427-1.403c0.345-0.307 0.657-0.557 0.697-0.557s-0.339 0.586-0.83 1.316c-0.491 0.73-1.148 1.777-1.453 2.335zM16.722 26.132c0.199 0.125 0.445 0.375 0.551 0.548 0.099 0.163 0.245 0.48 0.319 0.692s0.173 0.634 0.226 0.942c0.053 0.298 0.113 0.711 0.133 0.913l0.040 0.355h-2.688c-0.020-2.123-0.053-2.95-0.086-3.219-0.040-0.259-0.066-0.48-0.060-0.49s0.119-0.029 0.246-0.058c0.126-0.019 0.398-0.010 0.597 0.019 0.199 0.038 0.524 0.173 0.723 0.298zM12.985 14.496c-0.113 0-0.279 0.077-0.372 0.183-0.093 0.096-0.299 0.279-0.465 0.394-0.166 0.125-0.524 0.298-0.796 0.404-0.279 0.096-0.538 0.25-0.584 0.346s-0.080 0.279-0.080 0.403c0 0.135 0.066 0.346 0.153 0.461 0.080 0.125 0.206 0.221 0.279 0.221s0.312-0.067 0.531-0.154c0.219-0.077 0.604-0.288 0.863-0.461 0.252-0.173 0.558-0.432 0.677-0.577 0.153-0.183 0.219-0.346 0.232-0.557 0.007-0.192-0.040-0.375-0.113-0.48-0.066-0.096-0.212-0.183-0.325-0.183z"></path>
</symbol>

<symbol id="icon-home" viewBox="0 0 32 32">
<path d="M15.114 3.003c0.505-0.449 1.267-0.449 1.772 0l12 10.667c0.55 0.489 0.6 1.332 0.111 1.882s-1.332 0.6-1.882 0.111l-0.447-0.398v11.401c0 1.473-1.194 2.667-2.667 2.667h-16c-1.473 0-2.667-1.194-2.667-2.667v-11.401l-0.448 0.398c-0.55 0.489-1.393 0.44-1.882-0.111s-0.44-1.393 0.111-1.882l12-10.667zM8 12.895v13.772h4v-9.333c0-1.473 1.194-2.667 2.667-2.667h2.667c1.473 0 2.667 1.194 2.667 2.667v9.333h4v-13.772l-8-7.111-8 7.111zM17.333 26.667v-9.333h-2.667v9.333h2.667z"></path>
<path d="M12 26.667h-4v-13.772l8-7.111 8 7.111v13.772h-4v-9.333c0-1.473-1.194-2.667-2.667-2.667h-2.667c-1.473 0-2.667 1.194-2.667 2.667v9.333z"></path>
</symbol>

<symbol id="icon-users" viewBox="0 0 32 32">
<path d="M13.486 15.495c1.515-0.992 2.514-2.691 2.514-4.62 0-3.060-2.513-5.541-5.614-5.541s-5.614 2.481-5.614 5.541c0 1.929 0.999 3.628 2.514 4.62-4.222 1.301-7.286 5.191-7.286 9.787 0 0.765 0.628 1.385 1.403 1.385s1.403-0.62 1.403-1.385c0-4.131 3.393-7.481 7.579-7.481s7.579 3.349 7.579 7.481c0 0.765 0.628 1.385 1.403 1.385s1.404-0.62 1.404-1.385c0-1.843-0.493-3.573-1.356-5.068 1.029-0.806 2.383-1.304 3.882-1.304 3.363 0 5.895 2.459 5.895 5.264 0 0.765 0.628 1.385 1.404 1.385s1.403-0.62 1.403-1.385c0-3.464-2.332-6.32-5.524-7.479 1.135-0.804 1.875-2.119 1.875-3.603 0-2.448-2.011-4.433-4.491-4.433s-4.491 1.985-4.491 4.433c0 1.339 0.601 2.539 1.552 3.352-1.191 0.312-2.281 0.852-3.21 1.571-1.168-1.147-2.612-2.021-4.224-2.518zM13.193 10.874c0 1.53-1.257 2.771-2.807 2.771s-2.807-1.24-2.807-2.771c0-1.53 1.257-2.771 2.807-2.771s2.807 1.24 2.807 2.771zM23.86 14.753c0.93 0 1.684-0.744 1.684-1.662s-0.754-1.662-1.684-1.662c-0.93 0-1.684 0.744-1.684 1.662s0.754 1.662 1.684 1.662z"></path>
</symbol>

<symbol id="icon-A" viewBox="0 0 32 32">
<path d="M24.364 2.667c2.008 0 3.636 1.492 3.636 3.333v19c0 0.552-0.488 1-1.091 1h-20.727c0 0.736 0.651 1.333 1.455 1.333h19.273c0.603 0 1.091 0.448 1.091 1s-0.488 1-1.091 1h-19.273c-2.008 0-3.636-1.492-3.636-3.333v-20c0-1.841 1.628-3.333 3.636-3.333h16.727zM24.364 4.667h-16.727c-0.803 0-1.455 0.597-1.455 1.333v18h19.636v-18c0-0.736-0.651-1.333-1.455-1.333zM16.364 8c0.444 0 0.844 0.247 1.011 0.624l4.727 10.667c0.227 0.512-0.042 1.095-0.6 1.303s-1.194-0.038-1.421-0.55l-1.201-2.71h-5.031l-1.201 2.71c-0.227 0.512-0.863 0.758-1.421 0.55s-0.827-0.791-0.6-1.303l4.727-10.667c0.167-0.377 0.567-0.624 1.011-0.624zM16.364 11.657l-1.629 3.676h3.259l-1.629-3.676z"></path>
</symbol>

<symbol id="icon-btn-close" viewBox="0 0 32 32">
<path fill="" style="fill: var(--color1)" d="M19.803 21.071c0.35 0.35 0.918 0.35 1.268 0s0.35-0.918 0-1.268l-3.803-3.803 3.803-3.803c0.35-0.35 0.35-0.918 0-1.268s-0.918-0.35-1.268 0l-3.803 3.803-3.803-3.803c-0.35-0.35-0.918-0.35-1.268 0s-0.35 0.918 0 1.268l3.803 3.803-3.803 3.803c-0.35 0.35-0.35 0.918 0 1.268s0.918 0.35 1.268 0l3.803-3.803 3.803 3.803z"></path>
<path fill="" style="fill: var(--color1)" d="M29.333 16c0-7.364-5.97-13.333-13.333-13.333s-13.333 5.97-13.333 13.333 5.97 13.333 13.333 13.333c7.364 0 13.333-5.97 13.333-13.333zM26.666 16c0 5.891-4.776 10.667-10.667 10.667s-10.667-4.776-10.667-10.667 4.776-10.667 10.667-10.667c5.891 0 10.667 4.776 10.667 10.667z"></path>
</symbol>

<symbol id="icon-youtube" viewBox="0 0 32 32">
<path fill="#3a3000" style="fill: var(--color1, #3a3000)" d="M31.681 9.179c0 0-0.313-2.353-1.275-3.386-1.219-1.36-2.581-1.366-3.206-1.446-4.475-0.347-11.194-0.347-11.194-0.347h-0.012c0 0-6.719 0-11.194 0.347-0.625 0.080-1.987 0.087-3.206 1.446-0.963 1.033-1.269 3.386-1.269 3.386s-0.325 2.766-0.325 5.525v2.586c0 2.759 0.319 5.525 0.319 5.525s0.312 2.353 1.269 3.386c1.219 1.36 2.819 1.313 3.531 1.46 2.563 0.26 10.881 0.34 10.881 0.34s6.725-0.013 11.2-0.353c0.625-0.080 1.988-0.087 3.206-1.446 0.962-1.033 1.275-3.386 1.275-3.386s0.319-2.759 0.319-5.525v-2.586c0-2.759-0.319-5.525-0.319-5.525zM12.694 20.429v-9.591l8.644 4.812-8.644 4.779z"></path>
</symbol>

<symbol id="icon-logo-ua" viewBox="0 0 32 32">
<path fill="#14331d" style="fill: var(--color1, #14331d)" d="M0 0h32v32h-32v-32z"></path>
<path fill="#191c1d" style="fill: var(--color2, #191c1d)" d="M-3.2-19.2h268.8c5.302 0 9.6 4.298 9.6 9.6v51.2c0 5.302-4.298 9.6-9.6 9.6h-268.8c-5.302 0-9.6-4.298-9.6-9.6v-51.2c0-5.302 4.298-9.6 9.6-9.6z"></path>
<path fill="#005ac2" style="fill: var(--color3, #005ac2)" d="M32 16c0 8.837-7.163 16-16 16s-16-7.163-16-16c0-8.837 7.163-16 16-16s16 7.163 16 16z"></path>
<path fill="#e9c400" style="fill: var(--color4, #e9c400)" d="M19.842 2.667l0.005 0.006-1.956 1.812 2.067-0.21-0.862 1.683 2.131-0.898c1.464 3.91 0.035 8.621-2.943 9.291-0.367-1.418-1.911-2.12-2.019-3.207 0.017 0.005 0.034 0.010 0.051 0.015 0.271 0.072 0.545 0.066 0.799-0.004l1.408 1.279 1.157-0.915c-0.412 0.158-1.601-0.078-1.862-0.778 0.177-0.181 0.311-0.407 0.38-0.666 0.027-0.101 0.042-0.203 0.048-0.304l0.421 0.896 0.517-0.57c0.427 0.312 0.699 0.76 0.643 1.181 0 0 0.934-0.905 0.934-1.643 0-0.447-4.040-1.652-4.040-1.652l-3.251-2.684 0.958 1.746-2.7-1.104 1.968 1.746c-2.274 1.573-1.237 4.752-0.101 6.666-3.22-0.541-5.775-4.327-5.363-8.104l2.756-1.194-1.74-0.287 1.636-1.867-1.793 0.645c0.002-0.004 0.004-0.008 0.006-0.011-9.428 3.707-6.519 20.508-3.569 23.357-0.011-0.074-0.020-0.144-0.030-0.215-0.836-3.143-1.141-7.020-0.98-10.647 0.169-3.813 0.831-7.329 2.060-9.473l0.908 0.519c-1.058 1.844-1.758 5.284-1.923 9-0.109 2.451 0.006 5.030 0.351 7.381 0.343 0.106 0.843 0.537 1.529 1.299-0.27-0.746-0.38-1.481-0.363-2.139 1.136 2.328 3.771 3.869 5.859 3.482 1.257-0.233 2.341-0.711 3.237-1.368l0.409 0.862c-1.124 0.281-1.277 1.824-0.825 3.080 0.098-1.111 0.636-1.665 1.217-1.805-0.369 0.887-0.263 1.711-0.175 2.468 0.568-0.679 1.202-1.33 1.323-2.199 0.489 0.41 0.69 1.201 0.067 2.183 1.474-0.865 1.768-2.347 0.447-3.223l-1.796-1.917c0.331-0.31 0.629-0.648 0.893-1.010l2.2 0.882c-0.221 0.765 0.327 1.761 1.107 2.42-0.451-0.966-0.27-1.681 0.144-2.073 0.091 0.972 0.596 1.631 1.049 2.239 0.153-0.875 0.38-1.76-0.012-2.57 0.617 0.087 1.187 0.646 1.139 1.781 0.804-1.414 0.342-2.777-1.162-2.879l-3.984-0.553c0.714-1.284 1.046-2.784 0.953-4.329 0.795-1.939 2.803-0.66 3.053 2.747 1.536-4.49 3.757-2.158 3.294 1.37 0.661-1.306 1.223-1.957 1.672-2.026-0.603-5.137-2.266-10.705-4.348-14.012l0.886-0.556c2.818 4.476 4.766 12.33 4.753 18.527 2.375-6.477-0.131-19.927-8.64-21.469zM18.193 29.317l-0.002 0.001-0.001 0.003 0.002-0.004zM16.692 9.188c0.048-0.002 0.098 0.004 0.148 0.018 0.267 0.072 0.418 0.332 0.346 0.599s-0.333 0.417-0.6 0.346c-0.267-0.072-0.418-0.332-0.347-0.599 0.054-0.2 0.214-0.335 0.404-0.36 0.016-0.002 0.032-0.003 0.048-0.004zM13.119 18.29c0.665-0.011 1.268 0.378 1.466 1.257-0 2.005-0.535 3.846-2.36 4.326-1.547 0.407-3.905-0.637-4.711-2.999 0.688-1.178 2.092-1.229 3.519 1.262-0.705-2.324 0.806-3.825 2.086-3.846z"></path>
</symbol>

<symbol id="cross-form-icon" viewBox="0 0 32 32">
<path fill="#c4c7c7" style="fill: var(--color1, #c4c7c7)" d="M18.828 19.771c0.26 0.26 0.682 0.26 0.943 0s0.26-0.682 0-0.943l-2.828-2.828 2.828-2.828c0.26-0.26 0.26-0.682 0-0.943s-0.682-0.26-0.943 0l-2.828 2.828-2.828-2.828c-0.26-0.26-0.682-0.26-0.943 0s-0.26 0.682 0 0.943l2.828 2.828-2.828 2.828c-0.26 0.26-0.26 0.682 0 0.943s0.682 0.26 0.943 0l2.828-2.828 2.828 2.828z"></path>
</symbol>

<symbol id="mic-form-Icon" viewBox="0 0 32 32">
<path fill="#c4c7c7" style="fill: var(--color1, #c4c7c7)" d="M20 15.333c0 2.213-1.787 4-4 4s-4-1.787-4-4v-8c0-2.213 1.787-4 4-4s4 1.787 4 4v8zM16 22c3.68 0 6.667-2.987 6.667-6.667h2.667c0 4.707-3.48 8.573-8 9.227v4.107h-2.667v-4.107c-4.52-0.653-8-4.52-8-9.227h2.667c0 3.68 2.987 6.667 6.667 6.667z"></path>
</symbol>

<symbol id="icon-arrow-btn-left" viewBox="0 0 32 32">
<path fill="#c4c7c7" style="fill: var(--color1, #c4c7c7)" d="M13.362 20.297c0.26 0.27 0.682 0.27 0.943 0s0.26-0.709 0-0.979l-2.593-2.693h9.789c0.345 0 0.625-0.28 0.625-0.625s-0.28-0.625-0.625-0.625h-9.789l2.593-2.693c0.26-0.27 0.26-0.709 0-0.979s-0.682-0.27-0.943 0l-3.667 3.808c-0.26 0.27-0.26 0.709 0 0.979l3.667 3.808z"></path>
<path fill="none" stroke="#968e98" style="stroke: var(--color2, #968e98)" stroke-linejoin="miter" stroke-linecap="butt" stroke-miterlimit="4" stroke-width="0.6667" d="M16 3c7.18 0 13 5.82 13 13s-5.82 13-13 13c-7.18 0-13-5.82-13-13s5.82-13 13-13z"></path>
</symbol>

<symbol id="icon-btn-toggleable" viewBox="0 0 32 32">
<path fill="none" stroke="#cdc4ce" style="stroke: var(--color1, #cdc4ce)" stroke-linejoin="miter" stroke-linecap="butt" stroke-miterlimit="4" stroke-width="1.3333" d="M13.79 15.105l4.419-2.209M18.21 19.105l-4.415-2.207M22 12c0 1.105-0.895 2-2 2s-2-0.895-2-2c0-1.105 0.895-2 2-2s2 0.895 2 2zM14 16c0 1.105-0.895 2-2 2s-2-0.895-2-2c0-1.105 0.895-2 2-2s2 0.895 2 2zM22 20c0 1.105-0.895 2-2 2s-2-0.895-2-2c0-1.105 0.895-2 2-2s2 0.895 2 2z"></path>
<path fill="none" stroke="#968e98" style="stroke: var(--color2, #968e98)" stroke-linejoin="miter" stroke-linecap="butt" stroke-miterlimit="4" stroke-width="0.6667" d="M16 3c7.18 0 13 5.82 13 13s-5.82 13-13 13c-7.18 0-13-5.82-13-13s5.82-13 13-13z"></path>
</symbol>

<symbol id="icon-but-layer" viewBox="0 0 32 32">
<path fill="#cdc4ce" style="fill: var(--color3, #cdc4ce)" d="M18.5 9.333c0.794 0 1.444 0.617 1.497 1.397l0.003 0.103v0.499l1.167 0.001c0.794 0 1.444 0.617 1.497 1.397l0.003 0.103v6.333c0 0.794-0.617 1.444-1.397 1.497l-0.103 0.003h-1.167v0.5c0 0.794-0.617 1.444-1.397 1.497l-0.103 0.003h-5c-0.794 0-1.444-0.617-1.497-1.397l-0.003-0.103v-0.5h-1.167c-0.794 0-1.444-0.617-1.497-1.397l-0.003-0.103v-6.333c0-0.794 0.617-1.444 1.397-1.497l0.103-0.003 1.167-0.001v-0.499c0-0.794 0.617-1.444 1.397-1.497l0.103-0.003h5zM18.5 10.333h-5c-0.253 0-0.462 0.188-0.495 0.432l-0.005 0.068v10.333c0 0.253 0.188 0.462 0.432 0.495l0.068 0.005h5c0.253 0 0.462-0.188 0.495-0.432l0.005-0.068v-10.333c0-0.253-0.188-0.462-0.432-0.495l-0.068-0.005zM12 12.333l-1.167 0.001c-0.253 0-0.462 0.188-0.495 0.432l-0.005 0.068v6.333c0 0.253 0.188 0.462 0.432 0.495l0.068 0.005h1.167v-7.334zM21.167 12.333l-1.167-0.001v7.334h1.167c0.253 0 0.462-0.188 0.495-0.432l0.005-0.068v-6.333c0-0.276-0.224-0.5-0.5-0.5z"></path>
<path fill="none" stroke="#968e98" style="stroke: var(--color2, #968e98)" stroke-linejoin="miter" stroke-linecap="butt" stroke-miterlimit="4" stroke-width="0.6667" d="M16 3c7.18 0 13 5.82 13 13s-5.82 13-13 13c-7.18 0-13-5.82-13-13s5.82-13 13-13z"></path>
</symbol>

<symbol id="leading" viewBox="0 0 32 32">
<path fill="#000" style="fill: var(--color1, #000)" d="M32 16c0 8.837-7.163 16-16 16s-16-7.163-16-16c0-8.837 7.163-16 16-16s16 7.163 16 16z"></path>
<path fill="#e9c400" style="fill: var(--color2, #e9c400)" d="M19.333 4.667c0.268 1.331-0.168 2.096-1.66 3.621-0.566-0.361-1.598-0.542-2.528-0.404 2.326-1.106 3.298-1.669 4.188-3.216zM26 4.667c0 0-1.157 4.706-3.609 6.664 1.825-0.114 4.028-0.753 5.604-1.254-1.262 1.744-3.245 2.621-5.225 3.285 1.263 0.877 2.787 1.769 5.23 1.918-2.763 0.951-5.437 0.441-6.641 0.035 0.905 1.729 5.092 3.281 6.184 3.816-2.693 0.208-6.154-0.545-8.444-1.63-0.506 1.219 0.081 2.636 0.511 3.855 0.096 0.223 0.192 0.441 0.288 0.659-0.258-0.173-0.511-0.347-0.753-0.525-1.193-0.803-2.417-1.581-3.008-2.914-1.32 1.546-3.17 3.077-5.41 4.232-0.88 1.095-1.431 2.428-1.729 3.657-0.42-0.947-0.698-1.992-0.49-2.988-1.239-0.178-1.8-1.472-1.795-2.696 0.637 0.307 0.763 0.312 1.578 0.406 0-0.5-0.030-0.619 0.152-1.422 0.521 0.416 1.062 0.555 1.557 0.585-0.106-0.377-0.152-0.966-0.187-1.353 0.657 0.352 0.971 0.481 1.522 0.535 0.020-0.54 0.005-0.991 0.207-1.506 1.497 0.942 2.457 0.074 3.438-1.055-1.001-0.842-4.874-1.080-4.808 0.352-0.708-0.362-0.951-0.555-1.193-0.788-0.46 0.421-0.678 1.036-0.763 1.556-0.47-0.466-0.521-0.52-0.865-1.179-0.288 0.5-0.445 0.842-0.541 1.516-0.43-0.307-0.779-0.649-1.001-1.061-0.379 0.768-0.42 0.793-0.627 1.635-0.9-0.649-1.102-1.546-1.153-2.359-0.101-1.635 0.015-5.362 1.567-7.081-0.086 1.799 0.662 3.469 1.709 3.999 0.637 0.243 4.879-3.697 6.957-4.623 1.188-0.505 2.432 0.352 3.428 0.461 3.822-1.145 8.312-4.731 8.312-4.731zM14 11.135c0 0-1.656 1.256-3.066 2.152 0.981 0.144 3.131 0.002 3.733-0.855 0.278-0.392-0.667-1.297-0.667-1.297zM19.812 18.803c0.728 0.307 1.476 0.54 2.215 0.709 0.121 0.178 0.233 0.352 0.339 0.52-0.748 0.263-1.593 0.347-2.23 0.139-0.167-0.486-0.278-0.956-0.324-1.368zM23.25 19.75l0.516 0.075c1.608 1.814 2.925 5.114 2.234 7.527 0 0-0.361 0.343-0.718 0.343s-0.903-0.343-0.903-0.343c0.562-1.868 0.836-4.316-1.128-7.602zM22.82 20.815c0.298 0.565 0.526 1.095 0.698 1.591-0.652 0.332-1.471 0.441-2.265 0.406-0.233-0.52-0.496-1.080-0.738-1.65 0.779 0.089 1.588-0.069 2.306-0.347zM17.188 21.142c0.607 0.52 1.274 1.006 1.967 1.467-0.354 1.685-1.689 3.142-3.737 4.742 0 0-1.271 0.649-2.085 0.649-0.831 0-2.127-0.649-2.127-0.649 2.892-1.576 4.783-3.632 5.981-6.209zM23.761 23.283c0.126 0.585 0.167 1.125 0.152 1.63-1.886 0.704-3.16 0.669-4.93 0.203 0.364-0.51 0.657-1.041 0.854-1.601 1.653 0.466 2.801 0.282 3.924-0.233zM18.371 25.88c1.926 0.54 3.479 0.654 5.435 0.015-0.091 0.515-0.228 0.996-0.379 1.457 0 0-1.999 0.343-3.292 0.343-1.291-0-3.286-0.343-3.286-0.343 0.571-0.485 1.082-0.971 1.522-1.472z"></path>
</symbol>

<symbol id="witcher-icon" viewBox="0 0 32 32">
<path fill="#000" style="fill: var(--color1, #000)" d="M32 16c0 8.837-7.163 16-16 16s-16-7.163-16-16c0-8.837 7.163-16 16-16s16 7.163 16 16z"></path>
<path fill="#fff" style="fill: var(--color3, #fff)" d="M14.49 25.37c0.004 0.005 0.019 0.038 0.033 0.072s0.048 0.109 0.078 0.166c0.029 0.057 0.073 0.129 0.097 0.162s0.059 0.068 0.077 0.081c0.019 0.013 0.053 0.025 0.075 0.029s0.131 0.011 0.242 0.016c0.138 0.007 0.471 0.009 1.051 0.006 0.514-0.003 0.883-0.008 0.934-0.014 0.047-0.005 0.094-0.012 0.106-0.014s0.039-0.022 0.061-0.043c0.023-0.021 0.057-0.060 0.075-0.087s0.049-0.080 0.069-0.117c0.020-0.037 0.054-0.109 0.075-0.16s0.042-0.092 0.047-0.092c0.004 0 0.004 0.013 0.002 0.029s-0.022 0.167-0.045 0.335c-0.023 0.168-0.051 0.371-0.064 0.453s-0.030 0.195-0.040 0.251c-0.010 0.056-0.022 0.118-0.027 0.137-0.008 0.028-0.013 0.034-0.038 0.038-0.016 0.002-0.090 0.008-0.164 0.013s-0.29 0.015-0.48 0.022c-0.19 0.007-0.485 0.013-0.655 0.013s-0.465-0.006-0.656-0.013c-0.19-0.007-0.409-0.018-0.485-0.023s-0.151-0.012-0.165-0.015-0.027-0.008-0.028-0.011c-0.002-0.003-0.012-0.045-0.022-0.094s-0.034-0.201-0.054-0.336c-0.020-0.136-0.052-0.367-0.073-0.514s-0.036-0.274-0.036-0.283 0.003-0.012 0.007-0.006zM6.621 4.004c0 0.003-0.018 0.060-0.041 0.128s-0.048 0.148-0.056 0.178c-0.008 0.030-0.019 0.086-0.024 0.126-0.006 0.044-0.009 0.136-0.006 0.238 0.003 0.132 0.008 0.18 0.023 0.238 0.010 0.039 0.037 0.109 0.058 0.153s0.062 0.118 0.091 0.162c0.029 0.045 0.075 0.103 0.103 0.13s0.087 0.074 0.131 0.103c0.044 0.030 0.145 0.086 0.224 0.127s0.234 0.112 0.346 0.159c0.111 0.047 0.331 0.138 0.489 0.204s0.566 0.231 0.907 0.368c0.341 0.137 0.84 0.338 1.109 0.447s0.649 0.26 0.844 0.337c0.195 0.076 0.537 0.206 0.759 0.29s0.407 0.153 0.411 0.155c0.004 0.003-0.218 0.27-0.493 0.593s-0.504 0.593-0.51 0.599c-0.008 0.010-0.031 0.001-0.122-0.048-0.062-0.033-0.185-0.101-0.274-0.152s-0.276-0.159-0.416-0.241c-0.139-0.082-0.374-0.222-0.521-0.312s-0.404-0.249-0.572-0.353-0.449-0.281-0.624-0.392c-0.175-0.111-0.462-0.293-0.638-0.407s-0.48-0.31-0.678-0.438-0.42-0.274-0.494-0.323c-0.075-0.049-0.165-0.115-0.202-0.146s-0.086-0.078-0.109-0.104-0.057-0.070-0.077-0.097c-0.021-0.027-0.051-0.075-0.069-0.108s-0.044-0.092-0.059-0.135-0.036-0.11-0.046-0.153c-0.010-0.042-0.021-0.107-0.023-0.144s-0.001-0.101 0.005-0.144c0.005-0.042 0.013-0.090 0.017-0.106 0.005-0.022 0.005-0.029-0.005-0.029-0.005 0-0.016 0.022-0.023 0.048s-0.020 0.079-0.029 0.118c-0.010 0.047-0.015 0.114-0.015 0.193 0 0.077 0.005 0.144 0.013 0.184 0.008 0.035 0.027 0.095 0.042 0.135s0.051 0.109 0.080 0.153c0.029 0.045 0.084 0.115 0.124 0.156s0.103 0.101 0.143 0.133c0.040 0.032 0.136 0.101 0.215 0.153s0.354 0.232 0.611 0.4 0.714 0.466 1.015 0.661c0.301 0.196 0.75 0.486 0.997 0.646s0.604 0.39 0.795 0.511c0.19 0.122 0.448 0.285 0.8 0.507l-0.022 0.022c-0.012 0.013-0.108 0.124-0.213 0.247s-0.194 0.225-0.198 0.227c-0.004 0.001-0.159-0.1-0.342-0.224s-0.442-0.298-0.573-0.387c-0.131-0.089-0.398-0.271-0.593-0.405s-0.492-0.336-0.66-0.453c-0.168-0.116-0.467-0.324-0.665-0.462s-0.495-0.348-0.66-0.467c-0.165-0.118-0.388-0.28-0.494-0.359-0.146-0.109-0.222-0.171-0.31-0.26-0.064-0.065-0.144-0.156-0.177-0.203s-0.081-0.124-0.105-0.17c-0.024-0.047-0.058-0.127-0.075-0.179s-0.037-0.125-0.043-0.162c-0.006-0.037-0.012-0.122-0.011-0.188 0-0.086 0.005-0.147 0.019-0.211 0.011-0.049 0.034-0.132 0.052-0.184s0.054-0.136 0.080-0.188c0.026-0.052 0.075-0.136 0.11-0.188s0.088-0.127 0.119-0.166 0.099-0.119 0.152-0.178c0.053-0.058 0.136-0.144 0.186-0.189s0.114-0.104 0.143-0.129c0.030-0.026 0.054-0.045 0.055-0.043zM25.373 4c0.004 0.001 0.029 0.020 0.056 0.042s0.111 0.103 0.188 0.178c0.075 0.074 0.169 0.171 0.207 0.215s0.098 0.119 0.133 0.166 0.085 0.122 0.112 0.166c0.028 0.045 0.062 0.105 0.076 0.135s0.041 0.091 0.059 0.135c0.017 0.045 0.043 0.126 0.057 0.179 0.024 0.092 0.026 0.111 0.026 0.269 0 0.111-0.004 0.188-0.012 0.22-0.007 0.027-0.022 0.082-0.035 0.121s-0.040 0.109-0.062 0.153c-0.021 0.045-0.058 0.111-0.083 0.148s-0.079 0.108-0.12 0.156c-0.040 0.049-0.113 0.124-0.16 0.166s-0.17 0.139-0.274 0.216-0.33 0.241-0.503 0.365c-0.173 0.123-0.429 0.305-0.57 0.403s-0.414 0.289-0.606 0.422c-0.192 0.134-0.542 0.374-0.777 0.535s-0.627 0.426-0.871 0.592c-0.244 0.165-0.486 0.328-0.537 0.363-0.059 0.040-0.095 0.058-0.101 0.053s-0.101-0.118-0.215-0.251c-0.156-0.183-0.204-0.245-0.196-0.252 0.006-0.005 0.114-0.074 0.24-0.152s0.455-0.288 0.732-0.466c0.277-0.177 0.719-0.462 0.983-0.633s0.76-0.493 1.1-0.715c0.34-0.222 0.761-0.496 0.934-0.609s0.347-0.231 0.386-0.261c0.039-0.030 0.1-0.080 0.134-0.111s0.087-0.090 0.119-0.129c0.030-0.039 0.072-0.102 0.092-0.139 0.020-0.037 0.045-0.092 0.055-0.121s0.025-0.081 0.031-0.114c0.008-0.035 0.013-0.109 0.013-0.173 0-0.062-0.006-0.144-0.013-0.181s-0.021-0.095-0.029-0.127c-0.009-0.030-0.020-0.056-0.025-0.056s-0.006 0.013-0.002 0.038c0.004 0.022 0.011 0.075 0.015 0.119 0.004 0.047 0.004 0.111-0.001 0.153-0.004 0.039-0.012 0.090-0.017 0.112s-0.020 0.073-0.033 0.112c-0.013 0.040-0.040 0.104-0.059 0.144s-0.054 0.098-0.076 0.13c-0.022 0.032-0.072 0.090-0.109 0.128s-0.092 0.090-0.122 0.114c-0.030 0.023-0.179 0.125-0.332 0.224s-0.45 0.293-0.66 0.429c-0.21 0.136-0.58 0.373-0.822 0.527s-0.579 0.366-0.75 0.473c-0.171 0.106-0.429 0.266-0.575 0.354s-0.352 0.213-0.458 0.276c-0.106 0.063-0.286 0.168-0.4 0.233s-0.271 0.153-0.494 0.275l-0.019-0.021c-0.011-0.012-0.241-0.281-0.511-0.599s-0.488-0.581-0.483-0.584c0.004-0.004 0.18-0.071 0.393-0.15s0.522-0.197 0.687-0.261c0.165-0.065 0.547-0.216 0.848-0.337s0.814-0.328 1.14-0.459c0.326-0.13 0.653-0.263 0.727-0.294s0.27-0.112 0.436-0.179 0.359-0.149 0.431-0.181c0.072-0.031 0.177-0.083 0.234-0.112s0.137-0.076 0.18-0.103c0.042-0.028 0.102-0.074 0.134-0.105s0.076-0.083 0.1-0.118c0.023-0.034 0.058-0.093 0.079-0.13s0.048-0.103 0.064-0.148c0.014-0.044 0.031-0.115 0.038-0.157 0.007-0.049 0.009-0.129 0.005-0.229-0.004-0.105-0.011-0.176-0.023-0.229-0.010-0.042-0.030-0.11-0.044-0.153s-0.037-0.103-0.049-0.136c-0.013-0.034-0.021-0.061-0.017-0.061zM10.473 4.809c0.005 0.003 0.078 0.048 0.162 0.102s0.316 0.206 0.516 0.34 0.48 0.324 0.624 0.422c0.143 0.098 0.348 0.239 0.453 0.312s0.239 0.167 0.295 0.207c0.056 0.040 0.107 0.079 0.112 0.086s0.158 0.255 0.336 0.55c0.179 0.294 0.325 0.54 0.325 0.545 0 0.006-0.212 0.008-1.244 0.005l-0.796-1.279c-0.437-0.704-0.796-1.282-0.796-1.287s0.005-0.005 0.011-0.004zM21.529 4.817c0.002 0.005-0.355 0.583-1.585 2.562l-0.62 0.003c-0.492 0.001-0.62-0.001-0.62-0.009 0-0.006 0.148-0.256 0.33-0.555s0.335-0.548 0.343-0.554c0.008-0.006 0.137-0.098 0.288-0.204s0.4-0.277 0.552-0.382 0.436-0.296 0.629-0.424c0.192-0.129 0.425-0.282 0.516-0.34s0.167-0.102 0.168-0.097zM13.857 5.844c0.031 0.003 0.524 0.043 2.139 0.174l1.095-0.089c0.602-0.048 1.097-0.086 1.1-0.084s-0.233 0.479-0.523 1.059c-0.515 1.029-0.527 1.053-0.503 1.053 0.021 0 0.049-0.030 0.401-0.449l0.090 0.005c0.049 0.003 0.541 0.015 1.091 0.028s1.007 0.025 1.013 0.027c0.006 0.002-0.031 0.059-0.097 0.147-0.059 0.079-0.106 0.145-0.103 0.148s0.066-0.052 0.142-0.121c0.075-0.070 0.139-0.127 0.144-0.126s0.224 0.273 0.491 0.606c0.267 0.333 0.482 0.609 0.479 0.614s-0.418 0.245-0.92 0.534c-0.503 0.289-0.917 0.526-0.92 0.526s-0.093-0.198-0.198-0.442c-0.104-0.243-0.19-0.445-0.19-0.449s0.094-0.126 0.209-0.269c0.115-0.144 0.212-0.268 0.216-0.274s0.004-0.012 0.002-0.012c-0.003 0-0.116 0.103-0.251 0.229-0.152 0.141-0.254 0.229-0.265 0.229s-0.47-0.057-2.029-0.251h-0.943l-1.007 0.126c-0.555 0.070-1.015 0.125-1.023 0.124s-0.121-0.101-0.251-0.222c-0.13-0.12-0.244-0.222-0.252-0.226s0.083 0.116 0.205 0.268c0.145 0.181 0.218 0.28 0.215 0.289-0.003 0.007-0.089 0.208-0.191 0.446s-0.189 0.433-0.195 0.433c-0.004 0-0.421-0.237-0.925-0.528s-0.916-0.531-0.916-0.537c0-0.005 0.134-0.177 0.296-0.38s0.382-0.476 0.673-0.84l0.139 0.128c0.076 0.070 0.14 0.125 0.142 0.12s-0.046-0.071-0.103-0.147c-0.058-0.077-0.104-0.141-0.101-0.143s0.459-0.013 1.015-0.027c0.556-0.013 1.051-0.024 1.189-0.028l0.186 0.22c0.146 0.174 0.19 0.221 0.209 0.223 0.013 0.001 0.023 0 0.023-0.003s-0.236-0.476-0.525-1.054c-0.289-0.577-0.525-1.053-0.524-1.055s0.026-0.003 0.056 0.001zM12.77 5.858c0.004 0 0.062 0.025 0.13 0.057 0.067 0.031 0.239 0.113 0.381 0.182 0.244 0.118 0.26 0.127 0.278 0.161 0.011 0.020 0.054 0.091 0.096 0.157s0.145 0.228 0.23 0.359c0.085 0.131 0.208 0.321 0.395 0.607l-0.067 0.005c-0.037 0.004-0.214 0.013-0.392 0.022s-0.327 0.014-0.329 0.012c-0.003-0.003-0.165-0.35-0.361-0.772s-0.359-0.773-0.362-0.778c-0.003-0.006-0.002-0.012 0.001-0.012zM19.221 5.867c0.002 0.005-0.158 0.355-0.354 0.779s-0.357 0.771-0.36 0.774c-0.002 0.003-0.16-0.003-0.35-0.013s-0.368-0.019-0.441-0.028l0.145-0.22c0.080-0.121 0.21-0.32 0.29-0.444s0.183-0.286 0.314-0.498l0.274-0.132c0.151-0.073 0.321-0.153 0.377-0.179s0.104-0.043 0.105-0.039zM25.892 6.628c0.003 0.008-0.002 0.063-0.010 0.122s-0.024 0.161-0.037 0.224c-0.013 0.065-0.037 0.173-0.054 0.242s-0.051 0.19-0.075 0.269c-0.023 0.079-0.070 0.216-0.103 0.305s-0.091 0.232-0.127 0.319c-0.037 0.086-0.106 0.238-0.154 0.336s-0.125 0.249-0.172 0.332c-0.046 0.084-0.126 0.223-0.177 0.31s-0.145 0.234-0.206 0.328c-0.062 0.094-0.162 0.24-0.222 0.323s-0.159 0.217-0.22 0.296c-0.061 0.079-0.159 0.2-0.216 0.269s-0.157 0.184-0.221 0.256c-0.063 0.072-0.2 0.215-0.304 0.32s-0.231 0.226-0.283 0.272-0.098 0.085-0.103 0.088c-0.005 0.002-0.064-0.019-0.13-0.048s-0.133-0.057-0.175-0.074l0.27-0.272c0.148-0.15 0.334-0.345 0.413-0.433s0.196-0.224 0.259-0.301c0.064-0.076 0.169-0.207 0.234-0.292s0.171-0.225 0.234-0.314c0.064-0.089 0.163-0.232 0.22-0.319s0.146-0.228 0.198-0.314 0.126-0.213 0.163-0.28c0.038-0.068 0.103-0.194 0.145-0.278s0.104-0.214 0.136-0.285c0.031-0.072 0.076-0.177 0.099-0.233s0.057-0.147 0.076-0.202c0.019-0.054 0.057-0.173 0.084-0.265s0.060-0.224 0.075-0.296c0.024-0.116 0.030-0.132 0.052-0.149 0.014-0.011 0.093-0.076 0.176-0.145 0.114-0.094 0.152-0.121 0.155-0.11zM6.108 6.62c0.004 0 0.084 0.064 0.18 0.141s0.173 0.141 0.174 0.141c0.001 0.001 0.012 0.054 0.025 0.118s0.040 0.173 0.059 0.242c0.019 0.069 0.060 0.203 0.092 0.296s0.084 0.233 0.116 0.31c0.032 0.076 0.089 0.206 0.127 0.287s0.108 0.221 0.155 0.31c0.048 0.089 0.12 0.22 0.163 0.292s0.102 0.172 0.135 0.224c0.032 0.052 0.11 0.171 0.173 0.265s0.159 0.233 0.215 0.31c0.057 0.076 0.148 0.199 0.206 0.273s0.165 0.207 0.24 0.296c0.074 0.090 0.175 0.207 0.224 0.261s0.166 0.181 0.261 0.283c0.096 0.101 0.235 0.242 0.31 0.314s0.132 0.133 0.128 0.136c-0.004 0.004-0.070 0.033-0.146 0.066-0.125 0.053-0.141 0.058-0.159 0.048-0.011-0.006-0.073-0.061-0.139-0.12s-0.196-0.188-0.29-0.283c-0.093-0.096-0.231-0.243-0.304-0.327s-0.183-0.213-0.243-0.287c-0.059-0.074-0.147-0.185-0.194-0.247s-0.128-0.17-0.179-0.242-0.143-0.205-0.203-0.296c-0.059-0.092-0.149-0.232-0.198-0.314s-0.123-0.208-0.164-0.283c-0.041-0.074-0.119-0.222-0.171-0.328s-0.119-0.245-0.147-0.31c-0.029-0.064-0.075-0.177-0.106-0.251s-0.085-0.23-0.124-0.345-0.090-0.293-0.115-0.395c-0.025-0.101-0.056-0.242-0.067-0.314s-0.025-0.162-0.029-0.199c-0.004-0.039-0.004-0.070-0.001-0.070zM7.060 7.589c0.003 0 0.057 0.045 0.12 0.1s0.201 0.17 0.307 0.254c0.106 0.085 0.262 0.207 0.346 0.272s0.304 0.23 0.489 0.368c0.185 0.137 0.448 0.331 0.584 0.431s0.36 0.261 0.498 0.361c0.138 0.1 0.257 0.191 0.263 0.203s0.021 0.062 0.032 0.11c0.013 0.048 0.030 0.132 0.039 0.186 0.013 0.075 0.016 0.146 0.015 0.301 0 0.173-0.003 0.215-0.020 0.294-0.011 0.050-0.032 0.125-0.047 0.166s-0.038 0.092-0.051 0.114c-0.013 0.022-0.032 0.054-0.066 0.099l-0.074-0.051c-0.041-0.028-0.135-0.096-0.209-0.151s-0.195-0.15-0.269-0.212c-0.074-0.062-0.195-0.17-0.269-0.239s-0.189-0.183-0.257-0.255c-0.068-0.071-0.154-0.165-0.194-0.21s-0.105-0.123-0.147-0.175c-0.042-0.052-0.117-0.146-0.165-0.211s-0.141-0.197-0.207-0.296-0.154-0.24-0.198-0.314c-0.043-0.074-0.124-0.223-0.179-0.332s-0.131-0.27-0.169-0.359c-0.038-0.089-0.092-0.224-0.119-0.301s-0.052-0.142-0.055-0.145c-0.003-0.005-0.002-0.007 0.001-0.007zM24.932 7.597c0.002 0.004-0.021 0.071-0.050 0.15s-0.069 0.182-0.089 0.229-0.051 0.122-0.071 0.166c-0.020 0.045-0.073 0.153-0.117 0.242s-0.119 0.228-0.166 0.31c-0.047 0.082-0.121 0.205-0.165 0.274s-0.123 0.184-0.174 0.256c-0.051 0.072-0.121 0.167-0.156 0.211s-0.101 0.127-0.148 0.184c-0.048 0.057-0.125 0.145-0.172 0.197s-0.147 0.157-0.224 0.233c-0.076 0.076-0.191 0.186-0.256 0.243s-0.163 0.142-0.22 0.188-0.142 0.113-0.189 0.148c-0.047 0.036-0.136 0.099-0.31 0.219l-0.021-0.030c-0.012-0.015-0.039-0.065-0.060-0.11-0.022-0.044-0.048-0.111-0.058-0.148s-0.024-0.106-0.031-0.152c-0.008-0.049-0.014-0.149-0.014-0.235s0.006-0.197 0.014-0.256c0.007-0.058 0.022-0.141 0.031-0.184s0.024-0.101 0.050-0.173l0.278-0.2c0.153-0.11 0.395-0.285 0.538-0.39s0.428-0.316 0.633-0.469 0.45-0.338 0.543-0.412c0.094-0.073 0.233-0.184 0.31-0.247s0.173-0.144 0.215-0.182c0.041-0.038 0.077-0.066 0.079-0.062zM15.456 8.757c0.015-0.001 0.018 0.006 0.021 0.042 0.002 0.023 0.014 0.163 0.030 0.311s0.037 0.384 0.048 0.525c0.013 0.141 0.027 0.309 0.032 0.372s0.015 0.206 0.022 0.314c0.008 0.109 0.028 0.341 0.045 0.516s0.062 0.606 0.099 0.956c0.037 0.351 0.1 0.93 0.138 1.288 0.041 0.371 0.077 0.669 0.085 0.694 0.008 0.023 0.017 0.042 0.022 0.042s0.014-0.021 0.022-0.047c0.010-0.029 0.032-0.196 0.057-0.411 0.022-0.2 0.070-0.646 0.107-0.992s0.090-0.842 0.117-1.104c0.027-0.261 0.057-0.571 0.067-0.686s0.025-0.3 0.032-0.408c0.007-0.109 0.026-0.338 0.041-0.511s0.040-0.444 0.056-0.603c0.016-0.158 0.030-0.29 0.033-0.293s0.405 0.048 0.893 0.111c0.489 0.064 0.894 0.116 0.901 0.116s0.011 0.004 0.011 0.009c0 0.005-0.041 0.031-0.092 0.059s-0.123 0.071-0.16 0.096c-0.037 0.025-0.1 0.070-0.139 0.1s-0.11 0.092-0.156 0.136c-0.046 0.045-0.117 0.121-0.156 0.17s-0.096 0.126-0.126 0.17c-0.029 0.045-0.084 0.145-0.123 0.224s-0.087 0.192-0.108 0.251-0.048 0.153-0.063 0.206c-0.014 0.055-0.036 0.149-0.048 0.211s-0.034 0.193-0.049 0.292c-0.015 0.099-0.044 0.31-0.064 0.471s-0.043 0.371-0.053 0.467c-0.010 0.096-0.022 0.268-0.027 0.381-0.006 0.136-0.006 0.244-0.001 0.318 0.005 0.062 0.015 0.157 0.023 0.211s0.024 0.152 0.036 0.215c0.013 0.065 0.039 0.181 0.058 0.26s0.057 0.223 0.085 0.319 0.053 0.182 0.055 0.191c0.002 0.008 0.006 0.015 0.011 0.015s0.012-0.010 0.018-0.022c0.005-0.013 0.011-0.033 0.011-0.047s-0.020-0.124-0.044-0.245c-0.024-0.121-0.057-0.296-0.072-0.39s-0.033-0.225-0.041-0.292c-0.007-0.066-0.013-0.162-0.013-0.213s0.006-0.124 0.014-0.162c0.008-0.039 0.026-0.1 0.039-0.137s0.043-0.093 0.064-0.126c0.021-0.032 0.062-0.083 0.092-0.112s0.083-0.068 0.175-0.117l0.017 0.022c0.010 0.013 0.035 0.043 0.057 0.069s0.063 0.073 0.143 0.164l-0.068 0.074c-0.055 0.058-0.079 0.094-0.117 0.172-0.026 0.055-0.054 0.123-0.062 0.153s-0.018 0.096-0.023 0.148c-0.005 0.052-0.008 0.135-0.005 0.184s0.015 0.132 0.028 0.184c0.012 0.052 0.037 0.141 0.055 0.197s0.059 0.17 0.092 0.251c0.032 0.082 0.092 0.219 0.134 0.305s0.075 0.158 0.074 0.159c-0.002 0.001-0.134 0.082-0.294 0.18s-0.376 0.23-0.48 0.292c-0.103 0.062-0.206 0.121-0.226 0.132-0.039 0.019-0.040 0.019-1.574 0.019l-0.092-0.053c-0.051-0.029-0.159-0.092-0.241-0.142s-0.269-0.163-0.418-0.254c-0.148-0.090-0.272-0.166-0.277-0.17s0.022-0.065 0.057-0.137c0.034-0.074 0.085-0.187 0.113-0.251s0.075-0.196 0.107-0.29c0.031-0.093 0.066-0.211 0.077-0.26 0.015-0.069 0.020-0.119 0.020-0.215 0-0.069-0.004-0.158-0.011-0.197s-0.023-0.104-0.038-0.144c-0.014-0.039-0.045-0.104-0.068-0.144s-0.068-0.099-0.16-0.193l0.070-0.079c0.040-0.043 0.088-0.1 0.108-0.125 0.030-0.037 0.041-0.047 0.056-0.042 0.010 0.003 0.040 0.018 0.066 0.033s0.072 0.053 0.101 0.083c0.030 0.030 0.061 0.066 0.072 0.081s0.032 0.054 0.049 0.088c0.016 0.033 0.041 0.095 0.054 0.139 0.015 0.051 0.024 0.11 0.028 0.172 0.003 0.060-0.001 0.143-0.010 0.229-0.008 0.074-0.025 0.201-0.038 0.283s-0.045 0.259-0.072 0.395c-0.027 0.136-0.048 0.263-0.048 0.283s0.005 0.044 0.012 0.054c0.007 0.010 0.014 0.014 0.018 0.009s0.022-0.064 0.042-0.13 0.057-0.197 0.081-0.292c0.024-0.093 0.056-0.231 0.071-0.305s0.036-0.189 0.046-0.256c0.011-0.071 0.021-0.19 0.024-0.287 0.003-0.092 0-0.249-0.004-0.35s-0.022-0.293-0.038-0.426c-0.014-0.133-0.040-0.337-0.054-0.453s-0.038-0.277-0.050-0.359c-0.013-0.082-0.035-0.211-0.050-0.287s-0.043-0.196-0.063-0.265c-0.020-0.069-0.058-0.18-0.085-0.247s-0.069-0.16-0.094-0.206c-0.024-0.047-0.070-0.124-0.101-0.17s-0.081-0.116-0.11-0.153-0.080-0.095-0.112-0.13c-0.032-0.034-0.1-0.097-0.15-0.139s-0.137-0.107-0.192-0.144c-0.056-0.037-0.138-0.087-0.183-0.11s-0.084-0.046-0.084-0.051c0-0.004 0.040-0.013 0.088-0.019s0.449-0.057 0.891-0.116 0.812-0.106 0.821-0.107zM15.587 8.756h0.831l-0.005 0.042c-0.004 0.024-0.086 0.883-0.36 3.776l-0.057 0.051-0.049-0.051-0.18-1.889c-0.1-1.039-0.18-1.898-0.18-1.909v-0.021zM11.128 8.973c0.010 0.007 0.429 0.25 0.93 0.541s0.912 0.528 0.914 0.529c0.001 0-0.050 0.14-0.115 0.31s-0.116 0.311-0.113 0.314c0.003 0.002 0.019-0.026 0.035-0.063s0.078-0.169 0.136-0.292c0.058-0.124 0.109-0.228 0.111-0.232s0.398 0.207 0.877 0.47c0.479 0.263 0.873 0.479 0.875 0.481s0.010 0.035 0.016 0.073c0.005 0.038 0.021 0.137 0.033 0.222s0.032 0.241 0.044 0.35c0.013 0.109 0.027 0.249 0.033 0.314s0.009 0.122 0.007 0.128c-0.002 0.007-0.027-0.018-0.057-0.057s-0.076-0.089-0.103-0.111c-0.034-0.028-0.702-0.39-2.126-1.154-1.142-0.612-2.076-1.115-2.076-1.119s0.104-0.138 0.231-0.301c0.127-0.162 0.252-0.321 0.279-0.355 0.046-0.057 0.050-0.060 0.068-0.048zM20.899 8.974c0.006 0.005 0.133 0.166 0.281 0.356s0.27 0.347 0.27 0.35c0 0.002-0.931 0.502-2.070 1.113-1.291 0.691-2.089 1.123-2.122 1.149-0.028 0.022-0.077 0.073-0.109 0.112s-0.060 0.073-0.063 0.074-0.003-0.037 0.002-0.085c0.004-0.048 0.017-0.184 0.029-0.302s0.035-0.299 0.049-0.399c0.015-0.101 0.031-0.212 0.049-0.307l0.866-0.476c0.477-0.262 0.87-0.478 0.876-0.48s0.072 0.127 0.148 0.289 0.143 0.296 0.148 0.299c0.005 0.004 0.006-0.001 0.002-0.012s-0.059-0.151-0.121-0.312c-0.063-0.162-0.112-0.295-0.11-0.297s0.423-0.246 0.934-0.543c0.722-0.419 0.931-0.537 0.939-0.528zM13.524 9.066c0.031 0.013 0.103 0.047 0.16 0.075s0.139 0.075 0.184 0.105c0.044 0.029 0.111 0.077 0.148 0.108s0.111 0.1 0.166 0.156c0.054 0.057 0.125 0.14 0.157 0.185s0.080 0.12 0.107 0.166 0.066 0.124 0.089 0.173c0.022 0.049 0.056 0.134 0.075 0.188s0.051 0.159 0.071 0.233c0.019 0.074 0.045 0.194 0.057 0.267s0.022 0.141 0.022 0.151c0 0.015-0.008 0.013-0.070-0.024-0.038-0.022-0.198-0.115-0.356-0.205s-0.409-0.232-0.557-0.314c-0.148-0.083-0.364-0.205-0.479-0.273-0.153-0.089-0.209-0.126-0.206-0.135s0.086-0.206 0.186-0.44c0.1-0.235 0.182-0.43 0.184-0.432s0.029 0.004 0.060 0.016zM18.533 9.050c0.003 0.004 0.087 0.2 0.188 0.437s0.183 0.434 0.186 0.44c0.002 0.004-0.081 0.057-0.183 0.118s-0.401 0.229-0.663 0.376c-0.262 0.147-0.554 0.313-0.649 0.369-0.17 0.1-0.172 0.101-0.172 0.077 0-0.013 0.010-0.083 0.022-0.154s0.038-0.187 0.055-0.256c0.018-0.069 0.050-0.177 0.073-0.238s0.064-0.161 0.092-0.22c0.029-0.059 0.075-0.144 0.101-0.188s0.080-0.119 0.116-0.166c0.036-0.048 0.104-0.124 0.152-0.17s0.124-0.115 0.171-0.15c0.047-0.035 0.132-0.092 0.189-0.126s0.152-0.082 0.211-0.108c0.058-0.025 0.11-0.044 0.113-0.040zM6.484 9.887c0.005-0.001 0.066 0.083 0.136 0.185s0.18 0.257 0.243 0.344c0.063 0.086 0.155 0.209 0.205 0.274s0.127 0.161 0.171 0.215c0.044 0.054 0.11 0.133 0.147 0.175s0.125 0.133 0.194 0.204c0.070 0.070 0.125 0.129 0.122 0.132s-0.071-0.025-0.153-0.064c-0.082-0.038-0.185-0.084-0.229-0.104s-0.11-0.048-0.144-0.063c-0.035-0.014-0.354-0.102-0.709-0.195s-0.988-0.259-1.405-0.369c-0.418-0.109-0.763-0.202-0.768-0.206s0.002-0.011 0.018-0.014c0.014-0.004 0.507-0.12 1.095-0.259s1.071-0.254 1.075-0.254zM25.525 9.89c0.008 0.003 0.496 0.118 1.084 0.257s1.077 0.255 1.086 0.259c0.014 0.006 0.015 0.009 0.004 0.013-0.007 0.004-0.43 0.115-0.938 0.249s-1.112 0.291-1.342 0.351c-0.23 0.059-0.452 0.118-0.494 0.13s-0.151 0.056-0.242 0.098c-0.092 0.040-0.215 0.097-0.274 0.124s-0.11 0.048-0.112 0.047c-0.003-0.003 0.054-0.065 0.126-0.137s0.165-0.173 0.207-0.223c0.043-0.049 0.138-0.164 0.211-0.257s0.187-0.24 0.251-0.328c0.065-0.088 0.172-0.237 0.238-0.331s0.134-0.19 0.15-0.214c0.022-0.031 0.034-0.041 0.045-0.038zM10.639 10.062c0.003 0.001 0.075 0.084 0.314 0.368l-0.010 0.040c-0.006 0.022-0.011 0.127-0.011 0.242 0 0.149 0.004 0.228 0.015 0.305 0.009 0.057 0.027 0.145 0.040 0.197s0.037 0.135 0.054 0.184c0.017 0.049 0.055 0.138 0.083 0.197s0.084 0.156 0.124 0.215c0.040 0.059 0.104 0.145 0.143 0.193s0.108 0.118 0.152 0.161c0.044 0.041 0.116 0.104 0.161 0.14s0.115 0.088 0.157 0.116c0.042 0.028 0.128 0.076 0.193 0.108s0.167 0.074 0.229 0.095c0.062 0.021 0.156 0.047 0.211 0.058s0.147 0.025 0.207 0.031c0.069 0.007 0.165 0.009 0.269 0.005 0.089-0.003 0.202-0.011 0.251-0.019s0.156-0.029 0.386-0.080l0.067 0.072c0.037 0.040 0.094 0.11 0.128 0.157s0.083 0.128 0.11 0.183c0.027 0.054 0.059 0.136 0.072 0.184s0.027 0.126 0.032 0.175 0.009 0.118 0.007 0.154c-0.002 0.036-0.001 0.065 0.003 0.065s0.014-0.009 0.022-0.020c0.009-0.012 0.022-0.045 0.029-0.074 0.008-0.037 0.011-0.088 0.007-0.165-0.004-0.086-0.010-0.132-0.029-0.193-0.013-0.045-0.039-0.113-0.058-0.153-0.018-0.040-0.059-0.11-0.091-0.157s-0.089-0.127-0.198-0.269l0.065-0.038c0.036-0.021 0.106-0.065 0.155-0.098s0.136-0.098 0.292-0.223l0.054 0.054c0.030 0.030 0.074 0.084 0.101 0.123s0.056 0.090 0.066 0.115c0.011 0.024 0.026 0.069 0.033 0.099s0.016 0.082 0.020 0.117c0.003 0.034 0.001 0.1-0.005 0.148s-0.015 0.118-0.023 0.157c-0.008 0.040-0.028 0.118-0.045 0.175s-0.049 0.155-0.074 0.22c-0.025 0.064-0.066 0.165-0.092 0.224s-0.066 0.146-0.091 0.195c-0.026 0.052-0.049 0.086-0.056 0.084-0.005-0.002-0.074-0.039-0.15-0.081s-0.14-0.075-0.142-0.073c-0.001 0.002 0.013 0.035 0.033 0.074s0.053 0.116 0.075 0.173c0.022 0.056 0.052 0.147 0.067 0.202s0.030 0.109 0.032 0.121c0.004 0.018 0.081 0.067 0.425 0.271 0.232 0.136 0.435 0.258 0.483 0.286l-0.049 0.048c-0.027 0.027-0.052 0.049-0.057 0.049s-0.18-0.095-0.392-0.211c-0.213-0.117-0.388-0.21-0.39-0.209s-0.001 0.048 0.008 0.207l0.552 0.317c0.303 0.175 0.602 0.346 0.664 0.38 0.106 0.059 0.117 0.063 0.193 0.071 0.044 0.004 0.17 0.013 0.278 0.019 0.116 0.006 0.273 0.008 0.382 0.004 0.101-0.003 0.236-0.009 0.301-0.014s0.133-0.010 0.153-0.013c0.025-0.004 0.174-0.083 0.512-0.276 0.261-0.15 0.562-0.321 0.858-0.491l0.002-0.104c0.002-0.066-0.001-0.101-0.006-0.1s-0.18 0.097-0.391 0.211c-0.21 0.115-0.383 0.208-0.386 0.207s-0.028-0.022-0.109-0.093l0.451-0.269c0.282-0.169 0.453-0.276 0.458-0.287s0.018-0.063 0.033-0.117c0.014-0.055 0.042-0.139 0.060-0.188s0.053-0.129 0.077-0.178c0.024-0.048 0.042-0.090 0.040-0.092s-0.069 0.031-0.148 0.076c-0.079 0.044-0.146 0.081-0.151 0.081s-0.038-0.066-0.075-0.146c-0.038-0.080-0.089-0.197-0.115-0.258s-0.066-0.175-0.091-0.251c-0.025-0.077-0.056-0.19-0.068-0.251-0.018-0.087-0.024-0.14-0.024-0.233-0.001-0.076 0.004-0.14 0.012-0.17 0.006-0.028 0.025-0.078 0.040-0.112s0.045-0.087 0.066-0.117c0.020-0.030 0.058-0.080 0.086-0.11s0.057-0.056 0.065-0.056 0.055 0.033 0.105 0.074c0.051 0.041 0.131 0.101 0.178 0.134s0.118 0.078 0.233 0.143l-0.048 0.060c-0.026 0.033-0.068 0.089-0.093 0.124s-0.064 0.091-0.086 0.126c-0.022 0.034-0.056 0.097-0.074 0.139s-0.040 0.104-0.049 0.139c-0.010 0.034-0.022 0.099-0.027 0.144-0.007 0.058-0.007 0.1 0 0.152 0.005 0.040 0.017 0.089 0.027 0.11s0.022 0.039 0.027 0.039c0.005 0 0.009-0.039 0.009-0.097 0-0.053 0.006-0.133 0.014-0.177s0.021-0.108 0.030-0.139c0.010-0.032 0.030-0.089 0.045-0.126s0.057-0.11 0.091-0.162c0.034-0.052 0.096-0.135 0.137-0.184s0.083-0.092 0.092-0.097c0.013-0.006 0.052-0.001 0.135 0.019 0.064 0.015 0.153 0.033 0.198 0.041s0.128 0.018 0.184 0.024c0.063 0.006 0.166 0.008 0.265 0.005 0.089-0.004 0.2-0.012 0.247-0.020s0.126-0.025 0.175-0.038c0.049-0.013 0.128-0.037 0.175-0.054s0.134-0.056 0.193-0.085c0.059-0.030 0.14-0.075 0.18-0.101s0.114-0.081 0.166-0.122 0.138-0.12 0.193-0.175c0.054-0.054 0.134-0.144 0.176-0.202s0.095-0.133 0.118-0.17c0.022-0.038 0.064-0.114 0.091-0.171s0.066-0.152 0.086-0.211c0.020-0.059 0.046-0.154 0.058-0.211s0.025-0.142 0.031-0.188c0.004-0.048 0.012-0.126 0.014-0.175s0.001-0.144-0.004-0.211c-0.005-0.067-0.012-0.129-0.014-0.139-0.004-0.013 0.010-0.037 0.051-0.085 0.031-0.038 0.102-0.121 0.259-0.305l0.73 0.875 0.532 0.224c0.294 0.123 0.533 0.226 0.533 0.229s-0.282 0.164-0.626 0.36c-0.345 0.196-0.93 0.527-1.3 0.737s-0.916 0.518-1.212 0.685-0.69 0.387-0.875 0.489c-0.185 0.102-0.373 0.208-0.418 0.234-0.058 0.034-0.11 0.077-0.185 0.152-0.071 0.069-0.122 0.129-0.157 0.184-0.029 0.044-0.067 0.112-0.085 0.152s-0.042 0.098-0.053 0.13c-0.011 0.031-0.028 0.094-0.038 0.139-0.016 0.073-0.019 0.131-0.025 0.642-0.004 0.308-0.008 0.578-0.009 0.637l-4.35-0.004-0.005-0.583c-0.005-0.538-0.007-0.59-0.024-0.673-0.010-0.049-0.029-0.122-0.042-0.162s-0.040-0.107-0.061-0.148c-0.022-0.042-0.058-0.107-0.083-0.144s-0.085-0.109-0.135-0.158c-0.049-0.050-0.116-0.109-0.148-0.132s-0.149-0.090-0.26-0.15c-0.111-0.061-0.477-0.265-0.813-0.453s-1.007-0.567-1.491-0.842c-0.484-0.274-1.113-0.629-1.399-0.79s-0.518-0.296-0.518-0.3 0.239-0.108 1.064-0.455l0.363-0.437c0.2-0.24 0.366-0.435 0.368-0.433zM12.004 10.595c0.004 0 0.347 0.183 0.759 0.408s0.75 0.412 0.75 0.417c0 0.004-0.017 0.016-0.039 0.025-0.031 0.014-0.045 0.015-0.074 0.009-0.020-0.004-0.085-0.022-0.146-0.040s-0.116-0.030-0.123-0.030-0.032 0.013-0.057 0.028c-0.023 0.016-0.064 0.039-0.090 0.049s-0.072 0.027-0.103 0.034c-0.031 0.008-0.088 0.013-0.128 0.013s-0.096-0.005-0.126-0.013c-0.030-0.007-0.083-0.027-0.117-0.043s-0.088-0.050-0.119-0.076c-0.031-0.025-0.075-0.072-0.097-0.102s-0.056-0.084-0.072-0.118c-0.017-0.035-0.037-0.092-0.044-0.126s-0.014-0.105-0.014-0.247l-0.072-0.054c-0.039-0.030-0.075-0.061-0.080-0.070-0.004-0.009-0.010-0.027-0.013-0.040s-0.002-0.024 0.004-0.024zM19.993 10.595c0.009 0 0.009 0.007 0 0.037-0.009 0.032-0.022 0.047-0.156 0.147l-0.005 0.117c-0.004 0.082-0.011 0.135-0.024 0.179-0.011 0.034-0.033 0.087-0.049 0.117s-0.049 0.075-0.072 0.103c-0.022 0.027-0.062 0.066-0.088 0.087s-0.075 0.053-0.11 0.070c-0.035 0.017-0.087 0.037-0.117 0.044s-0.086 0.014-0.126 0.014c-0.041 0-0.101-0.007-0.139-0.017-0.037-0.010-0.090-0.028-0.117-0.041s-0.064-0.035-0.081-0.048c-0.024-0.017-0.038-0.022-0.058-0.017-0.015 0.003-0.085 0.022-0.287 0.076l-0.039-0.017c-0.021-0.010-0.040-0.021-0.041-0.024s0.334-0.191 0.747-0.416c0.414-0.226 0.757-0.411 0.762-0.411zM11.193 10.678c0.006 0.006 0.073 0.082 0.148 0.169s0.152 0.178 0.168 0.202c0.016 0.024 0.033 0.061 0.039 0.081s0.019 0.068 0.031 0.108 0.039 0.104 0.057 0.144c0.019 0.039 0.055 0.101 0.079 0.139s0.076 0.101 0.115 0.142c0.039 0.042 0.103 0.101 0.143 0.132s0.106 0.077 0.148 0.102c0.042 0.026 0.119 0.067 0.171 0.092s0.153 0.068 0.224 0.097c0.072 0.028 0.164 0.064 0.206 0.078s0.149 0.042 0.238 0.060c0.089 0.018 0.192 0.043 0.229 0.056s0.092 0.036 0.123 0.053c0.031 0.017 0.078 0.052 0.104 0.078s0.060 0.065 0.075 0.085c0.016 0.025 0.022 0.041 0.017 0.047-0.005 0.004-0.040 0.013-0.076 0.022s-0.104 0.021-0.148 0.028c-0.045 0.007-0.142 0.018-0.216 0.024-0.101 0.007-0.167 0.007-0.265-0.001-0.072-0.005-0.179-0.020-0.238-0.031s-0.153-0.037-0.207-0.054c-0.055-0.018-0.145-0.055-0.202-0.082s-0.134-0.068-0.171-0.092c-0.037-0.022-0.106-0.070-0.153-0.104s-0.123-0.1-0.17-0.144-0.112-0.118-0.147-0.162c-0.034-0.045-0.083-0.118-0.11-0.162s-0.061-0.109-0.076-0.144c-0.015-0.035-0.044-0.108-0.063-0.162s-0.042-0.137-0.052-0.184c-0.011-0.048-0.025-0.133-0.033-0.191s-0.014-0.178-0.015-0.266 0.003-0.162 0.006-0.166c0.004-0.004 0.013-0.001 0.019 0.005zM20.824 10.682c0.003 0.009 0.006 0.074 0.006 0.143s-0.004 0.17-0.009 0.224c-0.004 0.054-0.019 0.148-0.031 0.208-0.012 0.060-0.036 0.153-0.053 0.206s-0.060 0.153-0.094 0.222c-0.035 0.069-0.090 0.163-0.123 0.21s-0.106 0.13-0.16 0.185c-0.055 0.056-0.139 0.13-0.189 0.167s-0.127 0.088-0.171 0.115c-0.045 0.027-0.121 0.068-0.171 0.091s-0.135 0.057-0.189 0.075c-0.055 0.018-0.147 0.042-0.207 0.055s-0.164 0.026-0.233 0.031c-0.069 0.005-0.171 0.007-0.224 0.004s-0.145-0.013-0.202-0.020-0.132-0.019-0.166-0.026c-0.035-0.008-0.078-0.018-0.13-0.031l0.020-0.034c0.011-0.019 0.046-0.060 0.078-0.092 0.036-0.035 0.084-0.071 0.122-0.091 0.034-0.018 0.091-0.041 0.126-0.052s0.121-0.031 0.193-0.046c0.072-0.015 0.16-0.035 0.195-0.045s0.144-0.048 0.238-0.086c0.095-0.038 0.222-0.092 0.281-0.122s0.142-0.076 0.184-0.103c0.042-0.027 0.104-0.073 0.139-0.1s0.088-0.079 0.119-0.113c0.031-0.034 0.078-0.094 0.105-0.134s0.066-0.11 0.089-0.157c0.022-0.048 0.050-0.122 0.064-0.166s0.022-0.085 0.022-0.090c0-0.005 0.017-0.034 0.038-0.065s0.103-0.129 0.182-0.219c0.116-0.132 0.145-0.16 0.15-0.146zM8.749 11.495l0.027 0.015c0.014 0.008 0.928 0.525 4.031 2.285l-0.081 0.006c-0.044 0.003-2.153 0.022-4.686 0.042s-4.78 0.040-4.992 0.043c-0.323 0.005-0.385 0.004-0.382-0.005 0.002-0.007 1.359-0.541 3.043-1.199l3.039-1.187zM23.267 11.502c0.011 0.004 1.379 0.539 3.041 1.188s3.023 1.184 3.025 1.191c0.004 0.010-0.065 0.011-0.382 0.005-0.212-0.004-2.456-0.023-4.987-0.043s-4.64-0.039-4.687-0.041c-0.047-0.003-0.081-0.008-0.076-0.012s0.918-0.522 2.028-1.152c1.725-0.977 2.021-1.143 2.038-1.136zM14.020 12.112c0.015 0 0.044 0.008 0.066 0.017s0.038 0.022 0.038 0.027c0 0.005-0.046 0.041-0.101 0.080s-0.14 0.095-0.187 0.125-0.104 0.064-0.171 0.096l-0.193-0.191 0.072-0.015c0.040-0.008 0.136-0.038 0.216-0.066s0.164-0.055 0.189-0.061c0.025-0.005 0.057-0.011 0.072-0.012zM17.998 12.116c0.025 0.003 0.13 0.032 0.233 0.067s0.213 0.067 0.296 0.083l-0.058 0.058c-0.032 0.032-0.077 0.074-0.144 0.128l-0.047-0.023c-0.026-0.014-0.078-0.043-0.115-0.066s-0.119-0.078-0.182-0.122c-0.090-0.063-0.111-0.082-0.103-0.091 0.006-0.005 0.026-0.016 0.043-0.024 0.022-0.010 0.046-0.013 0.076-0.010zM11.951 14.572c0.076-0.001 0.198 0.003 0.269 0.008s0.172 0.015 0.224 0.022c0.052 0.008 0.143 0.030 0.202 0.050s0.148 0.056 0.198 0.082c0.049 0.026 0.12 0.069 0.157 0.097s0.088 0.073 0.113 0.1c0.025 0.026 0.070 0.081 0.101 0.122s0.056 0.079 0.056 0.085c0 0.006-2.146 1.473-4.768 3.262s-4.77 3.249-4.772 3.248c-0.003-0.002 0.875-1.315 1.949-2.919s1.961-2.923 1.969-2.931 0.069-0.033 0.136-0.056c0.066-0.023 0.352-0.124 0.633-0.223s0.795-0.274 1.14-0.389c0.346-0.116 0.727-0.24 0.848-0.277s0.299-0.089 0.395-0.116c0.096-0.027 0.228-0.059 0.292-0.073s0.186-0.033 0.269-0.046c0.084-0.012 0.199-0.026 0.256-0.031s0.124-0.011 0.148-0.013c0.025-0.002 0.108-0.004 0.184-0.004zM20.081 14.575c0.118 0.002 0.274 0.010 0.346 0.017s0.185 0.022 0.251 0.032c0.066 0.011 0.176 0.030 0.242 0.044s0.188 0.044 0.269 0.066c0.082 0.022 0.268 0.078 0.413 0.123s0.493 0.157 0.772 0.25c0.279 0.092 0.671 0.225 0.871 0.294s0.524 0.183 0.718 0.252c0.195 0.069 0.361 0.127 0.368 0.13s0.895 1.32 1.974 2.926c1.077 1.606 1.958 2.925 1.957 2.93s-2.146-1.453-4.766-3.239-4.766-3.252-4.771-3.256c-0.004-0.003 0.023-0.047 0.059-0.096s0.097-0.118 0.133-0.152c0.037-0.034 0.097-0.083 0.134-0.107s0.1-0.059 0.139-0.078c0.040-0.019 0.104-0.045 0.144-0.058s0.106-0.031 0.148-0.040c0.042-0.009 0.127-0.021 0.189-0.026s0.13-0.012 0.153-0.013c0.022-0.002 0.137-0.002 0.256 0zM15.994 16.086c1.524 0 1.909 0.003 1.907 0.012-0.002 0.006-0.035 0.022-0.075 0.035-0.059 0.020-0.097 0.025-0.237 0.033-0.092 0.005-0.283 0.014-0.426 0.019s-0.464 0.013-0.714 0.018c-0.283 0.005-0.622 0.005-0.902 0-0.247-0.004-0.566-0.013-0.709-0.018s-0.335-0.013-0.427-0.019c-0.13-0.007-0.18-0.013-0.233-0.030-0.037-0.012-0.074-0.027-0.081-0.035-0.012-0.013 0.161-0.014 1.897-0.014zM14.232 16.194l0.065 0.044c0.036 0.024 0.101 0.073 0.145 0.107s0.102 0.083 0.179 0.15l-0.039 0.179c-0.021 0.099-0.051 0.255-0.068 0.345s-0.029 0.169-0.027 0.17c0.002 0.003 0.016-0.038 0.031-0.090s0.059-0.191 0.167-0.525l0.041 0.063c0.022 0.035 0.060 0.101 0.125 0.233l-0.32 0.772c-0.176 0.424-0.325 0.782-0.338 0.817l-0.008-0.027c-0.004-0.014-0.018-0.108-0.031-0.206s-0.030-0.256-0.037-0.35c-0.010-0.108-0.015-0.275-0.015-0.453 0-0.155 0.005-0.339 0.011-0.408s0.021-0.212 0.033-0.319c0.013-0.106 0.032-0.247 0.045-0.314s0.026-0.136 0.031-0.154l0.009-0.034zM17.765 16.197c0.002 0.001 0.013 0.050 0.025 0.109s0.031 0.164 0.040 0.233c0.010 0.069 0.028 0.208 0.039 0.31 0.018 0.161 0.020 0.232 0.021 0.561 0 0.243-0.004 0.422-0.012 0.502-0.006 0.069-0.022 0.205-0.034 0.301s-0.024 0.188-0.026 0.204c-0.003 0.016-0.008 0.030-0.012 0.030s-0.154-0.352-0.66-1.566l0.014-0.040c0.008-0.022 0.036-0.077 0.062-0.122s0.057-0.093 0.067-0.108c0.011-0.014 0.022-0.022 0.027-0.018s0.040 0.113 0.080 0.242c0.040 0.128 0.080 0.258 0.089 0.288s0.018 0.048 0.020 0.040c0.002-0.007-0.015-0.109-0.038-0.224s-0.051-0.263-0.090-0.442l0.049-0.046c0.027-0.024 0.075-0.066 0.108-0.092s0.096-0.073 0.143-0.105c0.047-0.032 0.086-0.058 0.087-0.057zM15.027 16.786c0.007 0 0.046 0.016 0.086 0.036s0.093 0.050 0.117 0.067c0.036 0.026 0.050 0.047 0.088 0.123 0.025 0.051 0.046 0.1 0.047 0.11s-0.079 0.232-0.177 0.494c-0.098 0.261-0.181 0.479-0.185 0.485s-0.012-0.013-0.016-0.040c-0.005-0.027-0.016-0.096-0.023-0.153s-0.018-0.186-0.024-0.287c-0.008-0.142-0.008-0.222 0-0.35 0.005-0.092 0.019-0.214 0.029-0.274s0.024-0.131 0.032-0.16c0.009-0.031 0.019-0.051 0.027-0.051zM16.966 16.786c0.006 0 0.017 0.011 0.022 0.024s0.017 0.059 0.026 0.101 0.021 0.109 0.026 0.148c0.005 0.040 0.014 0.143 0.019 0.229 0.005 0.103 0.005 0.215-0.001 0.328-0.004 0.093-0.015 0.217-0.022 0.274s-0.017 0.129-0.022 0.162c-0.005 0.033-0.013 0.055-0.017 0.049s-0.089-0.226-0.368-0.974l0.023-0.056c0.014-0.031 0.036-0.078 0.052-0.104s0.040-0.059 0.056-0.072c0.016-0.013 0.066-0.043 0.111-0.066s0.088-0.042 0.095-0.042zM15.679 17.056c0.064-0.001 0.074 0.002 0.117 0.028 0.026 0.015 0.068 0.044 0.094 0.063s0.050 0.039 0.053 0.045c0.004 0.006-0.048 0.186-0.114 0.399s-0.123 0.385-0.127 0.381c-0.004-0.004-0.032-0.065-0.065-0.136s-0.070-0.17-0.085-0.22c-0.014-0.049-0.033-0.12-0.040-0.157s-0.019-0.126-0.024-0.197c-0.005-0.072-0.006-0.14-0.003-0.153 0.006-0.018 0.018-0.025 0.066-0.038 0.031-0.008 0.090-0.015 0.128-0.015zM16.312 17.055c0.036 0 0.096 0.007 0.203 0.031l-0.005 0.144c-0.004 0.083-0.014 0.18-0.023 0.229-0.009 0.047-0.033 0.134-0.053 0.193s-0.058 0.156-0.086 0.215c-0.028 0.059-0.053 0.104-0.057 0.1s-0.059-0.18-0.242-0.773l0.019-0.016c0.011-0.009 0.056-0.040 0.101-0.070 0.080-0.053 0.081-0.053 0.145-0.053zM13.176 17.833c0.059 0.003 0.116 0.008 0.127 0.011 0.017 0.004-0.196 0.354-2.149 3.536-1.192 1.942-2.171 3.532-2.177 3.533s-0.006-0.004-0.004-0.013c0.003-0.008 0.245-1.13 0.54-2.492s0.541-2.482 0.546-2.489c0.006-0.007 0.297-0.251 0.648-0.544s0.762-0.634 0.916-0.759c0.153-0.127 0.361-0.296 0.462-0.377s0.218-0.17 0.26-0.197c0.042-0.026 0.104-0.061 0.139-0.077s0.099-0.041 0.144-0.057c0.044-0.014 0.123-0.036 0.175-0.046s0.133-0.022 0.18-0.027c0.047-0.004 0.134-0.005 0.193-0.003zM18.869 17.828c0.014 0 0.075 0.004 0.135 0.008s0.146 0.017 0.193 0.027c0.047 0.009 0.124 0.030 0.171 0.045s0.124 0.048 0.171 0.071c0.047 0.023 0.111 0.060 0.144 0.082s0.141 0.106 0.242 0.188c0.101 0.081 0.333 0.271 0.516 0.422s0.597 0.494 1.509 1.254l0.408 1.889c0.224 1.038 0.467 2.162 0.539 2.495s0.127 0.608 0.124 0.606c-0.005-0.001-0.983-1.591-2.175-3.533s-2.166-3.533-2.163-3.535c0.003-0.003 0.040-0.007 0.083-0.010s0.090-0.006 0.105-0.007zM13.99 18.909c0.003 0.004 0.041 0.065 0.086 0.134s0.109 0.172 0.143 0.229c0.035 0.057 0.094 0.158 0.131 0.224s0.091 0.168 0.119 0.224c0.027 0.057 0.057 0.129 0.069 0.162 0.017 0.050 0.030 0.195 0.191 2.158l-0.038 0.092c-0.031 0.077-0.040 0.111-0.051 0.206-0.007 0.063-0.013 0.13-0.013 0.148s-0.004 0.036-0.009 0.039c-0.005 0.003-0.011-0.011-0.014-0.030s-0.049-0.356-0.103-0.751c-0.055-0.395-0.103-0.74-0.109-0.767s-0.023-0.093-0.040-0.146c-0.017-0.053-0.035-0.098-0.039-0.101s-0.009-0.002-0.009 0.002 0.036 0.555 0.081 1.223c0.044 0.668 0.081 1.274 0.081 1.346s0.004 0.237 0.009 0.368c0.005 0.131 0.015 0.328 0.022 0.44s0.022 0.279 0.031 0.374c0.010 0.095 0.028 0.247 0.040 0.337s0.032 0.219 0.045 0.285 0.026 0.137 0.034 0.193l-0.021-0.018c-0.011-0.010-0.040-0.042-0.063-0.072s-0.052-0.072-0.062-0.094c-0.010-0.022-0.028-0.091-0.040-0.153s-0.035-0.209-0.050-0.328c-0.014-0.118-0.037-0.325-0.049-0.458s-0.044-0.547-0.072-0.92-0.111-1.501-0.186-2.508c-0.075-1.014-0.132-1.834-0.128-1.838s0.010-0.004 0.013-0.001zM18.020 18.904c0.004 0 0.005 0.017 0.003 0.038s-0.047 0.651-0.101 1.398c-0.054 0.747-0.133 1.828-0.174 2.4s-0.084 1.138-0.094 1.256c-0.010 0.118-0.024 0.275-0.032 0.35s-0.022 0.199-0.031 0.278c-0.010 0.079-0.028 0.2-0.040 0.269s-0.030 0.152-0.040 0.184c-0.013 0.042-0.034 0.078-0.077 0.132-0.032 0.041-0.064 0.074-0.070 0.074-0.008 0-0.004-0.033 0.014-0.128 0.013-0.070 0.034-0.198 0.047-0.284s0.029-0.212 0.036-0.278c0.008-0.066 0.020-0.194 0.027-0.283s0.018-0.224 0.023-0.301c0.004-0.076 0.013-0.302 0.019-0.502 0.007-0.266 0.030-0.676 0.085-1.521 0.041-0.637 0.077-1.184 0.080-1.216 0.004-0.037 0.003-0.055-0.003-0.049s-0.021 0.043-0.036 0.085c-0.014 0.042-0.033 0.104-0.040 0.139s-0.053 0.344-0.101 0.686-0.094 0.68-0.103 0.749c-0.010 0.069-0.021 0.128-0.025 0.132s-0.012-0.047-0.018-0.112c-0.007-0.066-0.016-0.136-0.021-0.159s-0.024-0.077-0.078-0.202l0.084-1.027c0.053-0.648 0.089-1.049 0.099-1.086 0.007-0.032 0.031-0.097 0.050-0.144s0.065-0.138 0.1-0.202c0.035-0.065 0.105-0.186 0.155-0.269s0.128-0.21 0.174-0.281c0.046-0.070 0.086-0.127 0.090-0.127zM14.911 19.595c0.004 0 0.040 0.023 0.079 0.051s0.199 0.144 0.355 0.257c0.155 0.113 0.335 0.247 0.4 0.298s0.129 0.106 0.145 0.124c0.016 0.018 0.030 0.041 0.030 0.051s0.004 0.075 0.009 0.145c0.005 0.071 0.019 0.353 0.031 0.626s0.025 0.533 0.029 0.576c0.004 0.044 0.009 0.079 0.012 0.079s0.007-0.048 0.012-0.106c0.004-0.057 0.016-0.328 0.029-0.599s0.027-0.55 0.032-0.619c0.005-0.069 0.013-0.132 0.016-0.139s0.045-0.044 0.092-0.082c0.047-0.038 0.172-0.133 0.277-0.212s0.29-0.214 0.409-0.298c0.118-0.085 0.217-0.154 0.22-0.154s-0.001 0.083-0.006 0.182c-0.006 0.1-0.020 0.299-0.030 0.442s-0.027 0.357-0.036 0.476c-0.010 0.118-0.024 0.278-0.032 0.354s-0.020 0.18-0.028 0.229c-0.007 0.049-0.026 0.128-0.040 0.175s-0.045 0.119-0.066 0.162c-0.022 0.042-0.067 0.115-0.102 0.162s-0.102 0.144-0.15 0.215c-0.048 0.072-0.104 0.147-0.124 0.169s-0.048 0.046-0.063 0.053c-0.019 0.010-0.041 0.013-0.072 0.009-0.025-0.003-0.085-0.021-0.135-0.040s-0.116-0.041-0.148-0.047c-0.040-0.007-0.074-0.008-0.108-0.002-0.027 0.004-0.094 0.026-0.148 0.047s-0.113 0.040-0.13 0.043c-0.017 0.002-0.043 0.002-0.057-0.002s-0.043-0.022-0.066-0.044c-0.022-0.021-0.076-0.091-0.119-0.154s-0.111-0.162-0.152-0.215c-0.040-0.055-0.090-0.129-0.11-0.166s-0.054-0.112-0.072-0.166c-0.019-0.055-0.040-0.137-0.047-0.184s-0.022-0.166-0.031-0.265c-0.010-0.099-0.029-0.31-0.041-0.471s-0.030-0.417-0.040-0.57c-0.010-0.153-0.020-0.303-0.022-0.335s-0.002-0.056 0.002-0.056zM15.040 21.569c0.004 0 0.014 0.025 0.023 0.056s0.040 0.105 0.070 0.164c0.030 0.059 0.080 0.148 0.11 0.197s0.080 0.121 0.108 0.161c0.028 0.040 0.084 0.105 0.123 0.147s0.083 0.081 0.096 0.088c0.013 0.007 0.035 0.013 0.048 0.013s0.043-0.016 0.071-0.039c0.026-0.021 0.074-0.060 0.105-0.086s0.080-0.059 0.107-0.071c0.040-0.019 0.059-0.022 0.108-0.019 0.035 0.003 0.075 0.012 0.099 0.023 0.022 0.011 0.068 0.043 0.101 0.072s0.079 0.066 0.099 0.082c0.021 0.016 0.046 0.032 0.056 0.035s0.029 0.002 0.042-0.001c0.013-0.003 0.052-0.030 0.084-0.062s0.093-0.1 0.134-0.154c0.040-0.055 0.101-0.141 0.132-0.193s0.081-0.139 0.108-0.193c0.027-0.055 0.059-0.124 0.071-0.155s0.024-0.056 0.028-0.056c0.004 0 0.010 0.035 0.013 0.078s0.007 0.134 0.007 0.321l-0.041 0.085c-0.022 0.047-0.058 0.111-0.081 0.144s-0.064 0.084-0.093 0.116c-0.030 0.031-0.080 0.077-0.112 0.102s-0.089 0.074-0.126 0.11c-0.039 0.037-0.079 0.067-0.094 0.071s-0.039 0.004-0.052 0.001c-0.013-0.003-0.046-0.016-0.072-0.028s-0.075-0.046-0.11-0.074c-0.035-0.028-0.081-0.058-0.103-0.068-0.028-0.013-0.059-0.019-0.099-0.019s-0.072 0.006-0.099 0.018c-0.022 0.011-0.066 0.040-0.099 0.066s-0.087 0.061-0.121 0.078c-0.035 0.017-0.075 0.030-0.090 0.030s-0.045-0.012-0.067-0.025-0.050-0.039-0.063-0.056c-0.013-0.017-0.053-0.053-0.090-0.081s-0.101-0.088-0.144-0.132c-0.042-0.045-0.095-0.113-0.119-0.152s-0.055-0.101-0.098-0.206l0.005-0.157c0.003-0.086 0.007-0.174 0.011-0.196s0.009-0.038 0.013-0.038zM14.652 22.982c0.004 0.004 0.038 0.1 0.075 0.213s0.092 0.264 0.122 0.337c0.030 0.073 0.073 0.179 0.098 0.236s0.082 0.182 0.128 0.278c0.045 0.096 0.126 0.258 0.178 0.362s0.098 0.187 0.101 0.186c0.003 0 0.007-0.031 0.010-0.070 0.004-0.048 0.014-0.091 0.034-0.136 0.015-0.037 0.038-0.080 0.071-0.121l0.041 0.085c0.022 0.047 0.047 0.109 0.055 0.139s0.018 0.088 0.023 0.13c0.005 0.042 0.008 0.103 0.007 0.136-0.004 0.052-0.007 0.063-0.031 0.087-0.015 0.015-0.050 0.038-0.079 0.050s-0.056 0.021-0.060 0.018c-0.005-0.003-0.019-0.022-0.031-0.043-0.017-0.030-0.024-0.059-0.031-0.136-0.005-0.055-0.011-0.1-0.012-0.101s-0.037 0.054-0.159 0.245l-0.028-0.063c-0.015-0.035-0.053-0.124-0.084-0.197s-0.072-0.176-0.092-0.227c-0.019-0.050-0.037-0.092-0.040-0.092s0.006 0.059 0.020 0.133c0.013 0.073 0.046 0.232 0.119 0.575l-0.018 0.020c-0.010 0.011-0.057 0.054-0.103 0.096s-0.114 0.096-0.148 0.12c-0.035 0.023-0.068 0.043-0.074 0.043s-0.015-0.012-0.021-0.025c-0.005-0.013-0.021-0.083-0.035-0.154s-0.034-0.187-0.045-0.256c-0.010-0.069-0.026-0.197-0.035-0.283s-0.023-0.228-0.029-0.314c-0.006-0.1-0.009-0.253-0.005-0.417 0.004-0.144 0.010-0.313 0.015-0.377s0.018-0.186 0.027-0.269c0.010-0.084 0.021-0.167 0.023-0.184s0.008-0.028 0.012-0.022zM17.349 22.978c0.004 0 0.013 0.049 0.021 0.109s0.019 0.173 0.026 0.25c0.007 0.076 0.018 0.23 0.024 0.341 0.005 0.118 0.008 0.283 0.004 0.399-0.004 0.109-0.012 0.26-0.020 0.337s-0.021 0.205-0.031 0.287c-0.010 0.082-0.028 0.205-0.040 0.274s-0.030 0.162-0.040 0.206c-0.010 0.044-0.022 0.087-0.027 0.094-0.007 0.012-0.012 0.012-0.038-0.001-0.016-0.008-0.062-0.040-0.101-0.072s-0.104-0.088-0.216-0.196l0.011-0.052c0.006-0.029 0.038-0.182 0.070-0.342s0.058-0.296 0.058-0.305c0-0.010-0.005-0.006-0.014 0.012-0.006 0.014-0.044 0.108-0.084 0.206s-0.088 0.217-0.149 0.346l-0.076-0.121c-0.042-0.066-0.078-0.119-0.081-0.118s-0.007 0.042-0.010 0.091c-0.005 0.063-0.012 0.099-0.024 0.125-0.010 0.020-0.024 0.043-0.030 0.052-0.012 0.015-0.014 0.015-0.057 0-0.024-0.009-0.062-0.032-0.121-0.088v-0.088c0-0.049 0.007-0.125 0.017-0.175 0.009-0.048 0.027-0.111 0.040-0.141s0.033-0.074 0.046-0.097c0.013-0.023 0.027-0.040 0.032-0.038s0.022 0.031 0.039 0.065c0.017 0.033 0.036 0.077 0.042 0.097s0.014 0.066 0.023 0.17l0.153-0.305c0.084-0.168 0.178-0.362 0.209-0.431s0.092-0.214 0.136-0.323c0.043-0.109 0.106-0.282 0.14-0.384s0.064-0.186 0.067-0.186zM16.003 24.254c0.006 0.002 0.030 0.042 0.054 0.088 0.028 0.057 0.048 0.109 0.056 0.154 0.007 0.039 0.013 0.090 0.013 0.115s0.003 0.045 0.006 0.045 0.010-0.019 0.013-0.042c0.004-0.024 0.015-0.075 0.026-0.115s0.037-0.107 0.060-0.15c0.026-0.049 0.046-0.075 0.051-0.071s0.022 0.035 0.038 0.069c0.016 0.034 0.035 0.090 0.042 0.125s0.015 0.105 0.019 0.157c0.004 0.052 0.004 0.117 0.001 0.144-0.004 0.031-0.016 0.067-0.035 0.099-0.017 0.030-0.036 0.050-0.047 0.052s-0.043-0.013-0.075-0.034c-0.030-0.020-0.063-0.048-0.071-0.061s-0.018-0.047-0.024-0.123l-0.006 0.049c-0.003 0.027-0.013 0.066-0.022 0.084s-0.032 0.053-0.051 0.074c-0.018 0.021-0.040 0.039-0.049 0.039s-0.032-0.018-0.054-0.040c-0.021-0.022-0.044-0.053-0.051-0.067s-0.017-0.042-0.029-0.094l-0.006 0.027c-0.004 0.014-0.012 0.037-0.019 0.049s-0.034 0.037-0.060 0.056c-0.026 0.018-0.058 0.035-0.070 0.039-0.019 0.005-0.027 0.001-0.047-0.024-0.013-0.016-0.030-0.048-0.039-0.070-0.009-0.026-0.014-0.070-0.014-0.121 0-0.045 0.005-0.118 0.009-0.162s0.013-0.095 0.019-0.112c0.005-0.017 0.023-0.061 0.040-0.097s0.033-0.065 0.037-0.065c0.004-0.001 0.028 0.043 0.054 0.096 0.033 0.069 0.052 0.124 0.067 0.194 0.012 0.053 0.023 0.093 0.028 0.090s0.006-0.030 0.006-0.057c0-0.027 0.006-0.078 0.014-0.112s0.023-0.083 0.034-0.108c0.012-0.025 0.032-0.063 0.046-0.083s0.030-0.038 0.035-0.036zM17.501 25.221c0.003 0-0.022 0.056-0.056 0.123s-0.084 0.16-0.112 0.205c-0.028 0.044-0.066 0.099-0.084 0.121s-0.047 0.048-0.064 0.056c-0.017 0.008-0.071 0.022-0.12 0.029s-0.171 0.019-0.269 0.025c-0.118 0.007-0.392 0.011-0.799 0.011-0.391 0-0.682-0.004-0.79-0.011-0.094-0.006-0.205-0.015-0.247-0.021s-0.092-0.014-0.112-0.018c-0.025-0.007-0.050-0.025-0.085-0.061-0.027-0.029-0.077-0.098-0.11-0.154s-0.083-0.144-0.108-0.195c-0.026-0.050-0.044-0.095-0.040-0.099s0.034 0.022 0.067 0.057c0.034 0.034 0.082 0.076 0.106 0.092s0.066 0.037 0.092 0.047c0.026 0.010 0.073 0.022 0.103 0.027s0.144 0.014 0.25 0.022c0.106 0.007 0.314 0.018 0.462 0.024 0.165 0.006 0.392 0.008 0.588 0.004 0.175-0.003 0.392-0.009 0.48-0.014s0.22-0.013 0.292-0.019c0.072-0.005 0.162-0.015 0.202-0.022 0.041-0.007 0.097-0.024 0.13-0.041 0.040-0.020 0.084-0.054 0.139-0.108 0.044-0.043 0.083-0.079 0.086-0.079z"></path>
</symbol>

<symbol id="arrow-up-right" viewBox="0 0 34 32">
<path fill="#3a3000" style="fill: var(--color1, #3a3000)" d="M13.902 6.457c-0.751-0.014-1.348 0.583-1.333 1.333s0.634 1.37 1.385 1.385l7.476 0.141-13.843 13.843c-0.488 0.488-0.488 1.28 0 1.768s1.28 0.488 1.768 0l13.843-13.843 0.141 7.476c0.014 0.75 0.634 1.37 1.385 1.385s1.347-0.583 1.333-1.333l-0.199-10.57c-0.014-0.751-0.634-1.37-1.385-1.385l-10.57-0.199z"></path>
</symbol>

<symbol id="more-vertical" viewBox="0 0 32 32">
<path d="M16 10.256c-1.473 0-2.667-1.102-2.667-2.462s1.194-2.462 2.667-2.462c1.473 0 2.667 1.102 2.667 2.462s-1.194 2.462-2.667 2.462z"></path>
<path d="M16 18.462c-1.473 0-2.667-1.102-2.667-2.462s1.194-2.462 2.667-2.462c1.473 0 2.667 1.102 2.667 2.462s-1.194 2.462-2.667 2.462z"></path>
<path d="M13.333 24.205c0 1.359 1.194 2.462 2.667 2.462s2.667-1.102 2.667-2.462c0-1.359-1.194-2.461-2.667-2.461s-2.667 1.102-2.667 2.461z"></path>
</symbol>

<symbol id="icon-toggleable-dark" viewBox="0 0 32 32">
<path fill="none" stroke="#cdc4ce" style="stroke: var(--color1, #cdc4ce)" stroke-linejoin="round" stroke-linecap="round" stroke-miterlimit="4" stroke-width="1.3333" d="M12 12c0-0.736 0.597-1.333 1.333-1.333h5.333c0.736 0 1.333 0.597 1.333 1.333v10l-4-4-4 4v-10z"></path>
<path fill="none" stroke="#968e98" style="stroke: var(--color2, #968e98)" stroke-linejoin="miter" stroke-linecap="butt" stroke-miterlimit="4" stroke-width="0.6667" d="M16 3c7.18 0 13 5.82 13 13s-5.82 13-13 13c-7.18 0-13-5.82-13-13s5.82-13 13-13z"></path>
</symbol>

<symbol id="icon-container" viewBox="0 0 32 32">
<path fill="#cdc4ce" style="fill: var(--color1, #cdc4ce)" d="M21.055 10.208c0.414 0 0.75 0.336 0.75 0.75v3.394c0 0.414-0.336 0.75-0.75 0.75s-0.75-0.336-0.75-0.75v-2.644h-2.644c-0.414 0-0.75-0.336-0.75-0.75s0.336-0.75 0.75-0.75h3.394z"></path>
<path fill="#cdc4ce" style="fill: var(--color1, #cdc4ce)" d="M10.208 10.958c0-0.414 0.336-0.75 0.75-0.75h3.394c0.414 0 0.75 0.336 0.75 0.75s-0.336 0.75-0.75 0.75h-2.644v2.644c0 0.414-0.336 0.75-0.75 0.75s-0.75-0.336-0.75-0.75v-3.394z"></path>
<path fill="#cdc4ce" style="fill: var(--color1, #cdc4ce)" d="M10.958 21.805c-0.414 0-0.75-0.336-0.75-0.75v-3.394c0-0.414 0.336-0.75 0.75-0.75s0.75 0.336 0.75 0.75v2.644h2.644c0.414 0 0.75 0.336 0.75 0.75s-0.336 0.75-0.75 0.75h-3.394z"></path>
<path fill="#cdc4ce" style="fill: var(--color1, #cdc4ce)" d="M21.805 21.055c0 0.414-0.336 0.75-0.75 0.75h-3.394c-0.414 0-0.75-0.336-0.75-0.75s0.336-0.75 0.75-0.75h2.644v-2.644c0-0.414 0.336-0.75 0.75-0.75s0.75 0.336 0.75 0.75v3.394z"></path>
<path fill="none" stroke="#968e98" style="stroke: var(--color2, #968e98)" stroke-linejoin="miter" stroke-linecap="butt" stroke-miterlimit="4" stroke-width="0.8" d="M16 0.4c8.616 0 15.6 6.984 15.6 15.6s-6.984 15.6-15.6 15.6c-8.616 0-15.6-6.984-15.6-15.6s6.984-15.6 15.6-15.6z"></path>
</symbol>

<symbol id="icon-btn-minus" viewBox="0 0 32 32">
<path fill="#cdc4ce" style="fill: var(--color1, #cdc4ce)" d="M11.333 15.333c-0.368 0-0.667 0.298-0.667 0.667s0.298 0.667 0.667 0.667c5.604 0 3.318 0 9.333 0 0.368 0 0.667-0.298 0.667-0.667s-0.298-0.667-0.667-0.667c-6.015 0-3.729 0-9.333 0z"></path>
<path fill="none" stroke="#968e98" style="stroke: var(--color2, #968e98)" stroke-linejoin="miter" stroke-linecap="butt" stroke-miterlimit="4" stroke-width="0.6667" d="M16 3c7.18 0 13 5.82 13 13s-5.82 13-13 13c-7.18 0-13-5.82-13-13s5.82-13 13-13z"></path>
</symbol>

<symbol id="icon-btn-plus" viewBox="0 0 32 32">
<path fill="#cdc4ce" style="fill: var(--color1, #cdc4ce)" d="M16.8 10.4c0-0.442-0.358-0.8-0.8-0.8s-0.8 0.358-0.8 0.8v4.8h-4.8c-0.442 0-0.8 0.358-0.8 0.8s0.358 0.8 0.8 0.8h4.8v4.8c0 0.442 0.358 0.8 0.8 0.8s0.8-0.358 0.8-0.8v-4.8h4.8c0.442 0 0.8-0.358 0.8-0.8s-0.358-0.8-0.8-0.8h-4.8v-4.8z"></path>
<path fill="none" stroke="#968e98" style="stroke: var(--color2, #968e98)" stroke-linejoin="miter" stroke-linecap="butt" stroke-miterlimit="4" stroke-width="0.8" d="M16 0.4c8.616 0 15.6 6.984 15.6 15.6s-6.984 15.6-15.6 15.6c-8.616 0-15.6-6.984-15.6-15.6s6.984-15.6 15.6-15.6z"></path>
</symbol>

<symbol id="icon-save" viewBox="0 0 32 32">
<path fill="none" stroke="#cdc4ce" style="stroke: var(--color1, #cdc4ce)" stroke-linejoin="round" stroke-linecap="round" stroke-miterlimit="4" stroke-width="1.3333" d="M12 12c0-0.736 0.597-1.333 1.333-1.333h5.333c0.736 0 1.333 0.597 1.333 1.333v10l-4-4-4 4v-10z"></path>
<path fill="none" stroke="#968e98" style="stroke: var(--color2, #968e98)" stroke-linejoin="miter" stroke-linecap="butt" stroke-miterlimit="4" stroke-width="0.6667" d="M16 3c7.18 0 13 5.82 13 13s-5.82 13-13 13c-7.18 0-13-5.82-13-13s5.82-13 13-13z"></path>
</symbol>

<symbol id="icon-ukr-characters" viewBox="0 0 32 32">
<path fill="#005ac2" style="fill: var(--color1, #005ac2)" d="M32 16c0 8.837-7.163 16-16 16s-16-7.163-16-16c0-8.837 7.163-16 16-16s16 7.163 16 16z"></path>
<path fill="#e9c400" style="fill: var(--color2, #e9c400)" d="M16 2.667c-7.36 0-13.333 5.973-13.333 13.333s5.973 13.333 13.333 13.333c7.36 0 13.333-5.973 13.333-13.333s-5.973-13.333-13.333-13.333zM24.48 22.441c-1.907-2.32-6.533-3.107-8.48-3.107s-6.573 0.787-8.48 3.107c-1.36-1.787-2.187-4.013-2.187-6.44 0-5.88 4.787-10.667 10.667-10.667s10.667 4.787 10.667 10.667c0 2.427-0.827 4.653-2.187 6.44zM11.333 12.667c0-2.587 2.080-4.667 4.667-4.667s4.667 2.080 4.667 4.667c0 2.587-2.080 4.667-4.667 4.667s-4.667-2.080-4.667-4.667z"></path>
</symbol>

<symbol id="icon-profile" viewBox="0 0 32 32">
<path fill="#968e98" style="fill: var(--color1, #968e98)" d="M19.614 15.476c2.093-1.198 3.497-3.404 3.497-5.928 0-3.801-3.184-6.882-7.111-6.882s-7.111 3.081-7.111 6.882c0 2.524 1.404 4.73 3.497 5.928-5.608 1.525-9.719 6.509-9.719 12.423 0 0.792 0.663 1.434 1.481 1.434s1.482-0.642 1.482-1.434c0-5.543 4.643-10.036 10.37-10.036s10.37 4.493 10.37 10.036c0 0.792 0.663 1.434 1.482 1.434s1.481-0.642 1.481-1.434c0-5.914-4.111-10.899-9.719-12.423zM20.148 9.548c0 2.217-1.857 4.014-4.148 4.014s-4.148-1.797-4.148-4.014 1.857-4.014 4.148-4.014c2.291 0 4.148 1.797 4.148 4.014z"></path>
</symbol>

<symbol id="icon-Magic-center" viewBox="0 0 32 32">
<path d="M13.925 0.191c-0.432 2.812-1.9 4.288-4.529 4.274 2.24 0.301 4.522 0.534 4.529 4.279-0.043-3.079 1.737-4.212 4.544-4.279-2.694-0.1-4.6-1.089-4.544-4.274zM22.984 0.964c-0.645 0.952-1.474 1.422-2.757 0.687 1.056 0.787 1.318 1.654 0.723 2.603 0.631-0.747 1.24-1.518 2.764-0.686-1.262-0.672-1.332-1.574-0.73-2.603zM6.231 0c-0.191 1.256-0.851 1.91-2.020 1.903 0.999 0.134 2.013 0.24 2.020 1.905-0.021-1.369 0.773-1.878 2.020-1.905-1.198-0.047-2.049-0.488-2.020-1.903zM27.648 3.233c-0.191 1.256-0.851 1.91-2.020 1.903 0.999 0.134 2.013 0.24 2.020 1.905-0.021-1.369 0.773-1.878 2.020-1.905-1.198-0.047-2.048-0.488-2.020-1.903zM5.625 6.58c-1.12 3.587-3.385 3.206-5.625 2.899 2.527 0.681 3.498 2.491 3.071 5.303 0.897-3.072 3.021-3.513 5.63-2.899-2.665-0.808-4.033-2.364-3.076-5.303zM18.88 6.914c-0.624 4.114-2.786 6.278-6.635 6.258 3.275 0.434 6.635 0.781 6.635 6.258-0.057-4.495 2.545-6.158 6.649-6.258-3.934-0.147-6.727-1.596-6.649-6.258zM28.576 9.472c-0.928 1.443-2.091 1.924-3.523 1.342 1.156 0.648 2.339 1.276 1.425 3.313 0.73-1.683 1.978-1.917 3.523-1.336-1.439-0.648-2.24-1.596-1.425-3.319zM0.691 15.049c0.649 1.115 0.541 2.010-0.398 2.672 0.883-0.461 1.761-0.955 2.829 0.374-0.891-1.082-0.581-1.937 0.398-2.671-0.987 0.648-1.947 0.775-2.829-0.374zM10.416 15.069c0.808 1.79-0.035 2.758-1.538 3.4 1.609-0.568 2.892-0.301 3.608 1.449-0.9-2.124 0.34-2.752 1.538-3.4-1.489 0.568-2.679 0.060-3.608-1.449zM26.577 15.911c-1.885 4.321-4.87 6.125-9.059 5.103 3.445 1.322 7.003 2.571 5.415 8.542 1.24-4.922 4.565-6.058 9.066-5.109-4.246-1.169-6.868-3.473-5.423-8.536zM4.181 18.542c1.11 3.86 0.061 6.552-3.354 7.914 3.081-0.788 6.194-1.683 8.412 3.166-1.871-3.961-0.241-6.372 3.353-7.935-3.544 1.282-6.599 1.002-8.411-3.146zM16.186 22.616c-1.545 1.376-3.048 1.576-4.48 0.488 1.099 1.089 2.24 2.164 0.51 4.228 1.403-1.71 2.92-1.61 4.487-0.488-1.432-1.162-2.027-2.504-0.517-4.228zM28.513 25.789c-0.192 1.256-0.851 1.91-2.020 1.904 0.999 0.134 2.013 0.24 2.020 1.904-0.021-1.369 0.772-1.877 2.020-1.904-1.198-0.047-2.049-0.488-2.020-1.904zM16.484 28.193c-0.192 1.256-0.851 1.91-2.020 1.903 0.999 0.134 2.013 0.24 2.020 1.904-0.021-1.369 0.772-1.877 2.020-1.904-1.198-0.047-2.049-0.488-2.020-1.903z"></path>
</symbol>

<symbol id="icon-class" viewBox="0 0 29 32">
<path fill="#c4c7c7" style="fill: var(--color1, #c4c7c7)" d="M8 6.4c-0.884 0-1.6 0.716-1.6 1.6s0.716 1.6 1.6 1.6h12.8c0.884 0 1.6-0.716 1.6-1.6s-0.716-1.6-1.6-1.6h-12.8z"></path>
<path fill="#c4c7c7" style="fill: var(--color1, #c4c7c7)" d="M6.4 14.4c0-0.884 0.716-1.6 1.6-1.6h12.8c0.884 0 1.6 0.716 1.6 1.6s-0.716 1.6-1.6 1.6h-12.8c-0.884 0-1.6-0.716-1.6-1.6z"></path>
<path fill="#c4c7c7" style="fill: var(--color1, #c4c7c7)" d="M8 19.2c-0.884 0-1.6 0.716-1.6 1.6s0.716 1.6 1.6 1.6h6.4c0.884 0 1.6-0.716 1.6-1.6s-0.716-1.6-1.6-1.6h-6.4z"></path>
<path fill="#c4c7c7" style="fill: var(--color1, #c4c7c7)" d="M3.2 0c-1.767 0-3.2 1.433-3.2 3.2v25.6c0 1.767 1.433 3.2 3.2 3.2h22.4c1.767 0 3.2-1.433 3.2-3.2v-25.6c0-1.767-1.433-3.2-3.2-3.2h-22.4zM25.6 3.2h-22.4v25.6h13.7l8.7-9.426v-16.174zM25.6 28.8h-4.346l4.346-4.708v4.708z"></path>
</symbol>

<symbol id="icon-alphabet" viewBox="0 0 32 32">
<path fill="#c4c7c7" style="fill: var(--color1, #c4c7c7)" d="M13.229 19.289h-5.137l-0.977 2.93h-3.115l5.293-14.219h2.715l5.322 14.219h-3.115l-0.986-2.93zM8.883 16.916h3.555l-1.787-5.322-1.768 5.322z"></path>
<path fill="#c4c7c7" style="fill: var(--color1, #c4c7c7)" d="M18.063 16.857c0-1.621 0.384-2.927 1.152-3.916 0.775-0.99 1.816-1.484 3.125-1.484 1.159 0 2.061 0.397 2.705 1.191l0.117-0.996h2.559v10.215c0 0.925-0.212 1.729-0.635 2.412-0.417 0.684-1.006 1.204-1.768 1.562s-1.654 0.537-2.676 0.537c-0.775 0-1.53-0.156-2.266-0.469-0.736-0.306-1.292-0.703-1.67-1.191l1.25-1.719c0.703 0.788 1.556 1.182 2.559 1.182 0.749 0 1.331-0.202 1.748-0.605 0.417-0.397 0.625-0.963 0.625-1.699v-0.566c-0.651 0.736-1.507 1.103-2.568 1.103-1.269 0-2.298-0.495-3.086-1.484-0.781-0.996-1.172-2.315-1.172-3.955v-0.117zM20.885 17.063c0 0.957 0.192 1.709 0.576 2.256 0.384 0.54 0.911 0.811 1.582 0.811 0.859 0 1.475-0.322 1.846-0.967v-4.443c-0.378-0.645-0.986-0.967-1.826-0.967-0.677 0-1.211 0.277-1.602 0.83-0.384 0.553-0.576 1.38-0.576 2.481z"></path>
</symbol>

<symbol id="icon-book" viewBox="0 0 36 32">
<path fill="#c4c7c7" style="fill: var(--color1, #c4c7c7)" d="M14.533 10.15c-1.078 0-2.231 0.633-2.829 1.025-0.002 0.001-0.006 0.004-0.010 0.013s-0.011 0.027-0.011 0.052v8.92c0 0.046 0.024 0.127 0.152 0.198 0.133 0.074 0.283 0.078 0.384 0.034 0.648-0.284 1.463-0.542 2.313-0.542 1.076 0 2.103 0.412 2.82 0.784 0.010 0.005 0.020 0.010 0.030 0.016v-9.461c-0.178-0.118-0.426-0.271-0.72-0.423-0.633-0.328-1.406-0.616-2.13-0.616zM18.883 11.189v9.461c0.010-0.005 0.020-0.010 0.030-0.016 0.717-0.372 1.744-0.784 2.82-0.784 0.85 0 1.665 0.257 2.313 0.542 0.101 0.044 0.251 0.040 0.384-0.034 0.128-0.071 0.152-0.152 0.152-0.198v-8.92c0-0.025-0.006-0.042-0.011-0.052s-0.008-0.012-0.010-0.013c-0.598-0.392-1.751-1.025-2.829-1.025-0.724 0-1.497 0.288-2.13 0.616-0.294 0.153-0.542 0.306-0.72 0.423zM17.673 22.592l-0.001-0-0.011-0.008c-0.010-0.008-0.027-0.020-0.050-0.037-0.045-0.033-0.115-0.082-0.204-0.141-0.179-0.12-0.437-0.28-0.745-0.439-0.633-0.328-1.406-0.616-2.13-0.616-0.564 0-1.163 0.175-1.711 0.415-0.585 0.256-1.228 0.176-1.718-0.097-0.495-0.276-0.921-0.805-0.921-1.508v-8.92c0-0.504 0.233-1.014 0.698-1.319 0.631-0.414 2.103-1.271 3.652-1.271 1.076 0 2.103 0.412 2.82 0.784 0.31 0.161 0.575 0.321 0.78 0.453 0.204-0.132 0.47-0.292 0.78-0.453 0.717-0.372 1.744-0.784 2.82-0.784 1.548 0 3.021 0.857 3.652 1.271 0.465 0.305 0.698 0.816 0.698 1.319v8.92c0 0.703-0.427 1.232-0.921 1.508-0.489 0.273-1.133 0.354-1.718 0.097-0.548-0.24-1.147-0.415-1.711-0.415-0.724 0-1.497 0.288-2.13 0.616-0.308 0.16-0.565 0.32-0.745 0.439-0.089 0.060-0.159 0.108-0.204 0.141-0.023 0.017-0.039 0.029-0.050 0.037l-0.011 0.008-0.001 0-0.001 0-0 0-0.46 0.357-0.46-0.358z"></path>
</symbol>

<symbol id="icon-arrow-next" viewBox="0 0 32 32">
<path fill="#c4c7c7" style="fill: var(--color1, #c4c7c7)" d="M11.724 7.724c0.521-0.521 1.365-0.521 1.886 0l7.333 7.333c0.521 0.521 0.521 1.365 0 1.886l-7.333 7.333c-0.521 0.521-1.365 0.521-1.886 0s-0.521-1.365 0-1.886l6.391-6.391-6.391-6.391c-0.521-0.521-0.521-1.365 0-1.886z"></path>
</symbol>

<symbol id="icon-arrow-prev" viewBox="0 0 32 32">
<path fill="#cdc4ce" style="fill: var(--color2, #cdc4ce)" d="M19.943 24.276c-0.521 0.521-1.365 0.521-1.886 0l-7.333-7.333c-0.521-0.521-0.521-1.365 0-1.886l7.333-7.333c0.521-0.521 1.365-0.521 1.886 0s0.521 1.365 0 1.886l-6.391 6.391 6.391 6.391c0.521 0.521 0.521 1.365 0 1.886z"></path>
</symbol>
</defs>
</svg>
